<?xml version="1.0" encoding="UTF-8" standalone="no"?>
<svg
   xmlns:dc="http://purl.org/dc/elements/1.1/"
   xmlns:cc="http://creativecommons.org/ns#"
   xmlns:rdf="http://www.w3.org/1999/02/22-rdf-syntax-ns#"
   xmlns:svg="http://www.w3.org/2000/svg"
   xmlns="http://www.w3.org/2000/svg"
   xmlns:sodipodi="http://sodipodi.sourceforge.net/DTD/sodipodi-0.dtd"
   xmlns:inkscape="http://www.inkscape.org/namespaces/inkscape"
   id="Layer_1"
   data-name="Layer 1"
   viewBox="0 0 311.35999 83.220002"
   version="1.1"
   sodipodi:docname="Acculab logo white 2-to-1.svg"
   width="311.35999"
   height="83.220001"
   inkscape:version="0.92.2 (5c3e80d, 2017-08-06)">
  <metadata
     id="metadata45">
    <rdf:RDF>
      <cc:Work
         rdf:about="">
        <dc:format>image/svg+xml</dc:format>
        <dc:type
           rdf:resource="http://purl.org/dc/dcmitype/StillImage" />
        <dc:title>Acculab logo FINAL</dc:title>
      </cc:Work>
    </rdf:RDF>
  </metadata>
  <sodipodi:namedview
     pagecolor="#ffffff"
     bordercolor="#666666"
     borderopacity="1"
     objecttolerance="10"
     gridtolerance="10"
     guidetolerance="10"
     inkscape:pageopacity="0"
     inkscape:pageshadow="2"
     inkscape:window-width="1366"
     inkscape:window-height="706"
     id="namedview43"
     showgrid="false"
     inkscape:zoom="0.71028412"
     inkscape:cx="199.92"
     inkscape:cy="98.264999"
     inkscape:window-x="1912"
     inkscape:window-y="304"
     inkscape:window-maximized="1"
     inkscape:current-layer="Layer_1" />
  <defs
     id="defs4">
    <style
       id="style2">.cls-1{fill:#fff;}</style>
  </defs>
  <title
     id="title6">Acculab logo FINAL</title>
  <path
     class="cls-1"
     d="m 11.32,67.250001 -3.08,15.94 H 0 L 15.94,0.83000122 H 26.57 L 42.51,83.190001 h -8.24 l -3.08,-15.94 z m 9.94,-51.33 -8.4,43.41 h 16.79 z"
     id="path8"
     inkscape:connector-curvature="0"
     style="fill:#ffffff" />
  <path
     class="cls-1"
     d="m 64.76,22.080001 q 18.6,0 18.6,17.27 v 1.33 h -8 v -1.35 q 0,-9.3 -10.63,-9.3 -10.63,0 -10.58,9.3 v 26.57 q 0,9.3 10.62,9.3 10.62,0 10.63,-9.3 v -1.33 h 8 v 1.33 q 0,17.26 -18.6,17.27 -18.6,0.01 -18.62,-17.25 v -26.59 q 0,-17.24 18.58,-17.25 z"
     id="path10"
     inkscape:connector-curvature="0"
     style="fill:#ffffff" />
  <path
     class="cls-1"
     d="m 109.94,22.080001 q 18.58,0 18.59,17.27 v 1.33 h -8 v -1.35 q 0,-9.3 -10.62,-9.3 -10.62,0 -10.6,9.3 v 26.57 q 0,9.3 10.63,9.3 10.63,0 10.62,-9.3 v -1.33 h 8 v 1.33 q 0,17.26 -18.59,17.27 -18.59,0.01 -18.6,-17.27 v -26.57 q -0.03,-17.24 18.57,-17.25 z"
     id="path12"
     inkscape:connector-curvature="0"
     style="fill:#ffffff" />
  <path
     class="cls-1"
     d="m 195.31,75.220001 h 31.88 v 8 H 187.34 V 0.83000122 h 8 z"
     id="path14"
     inkscape:connector-curvature="0"
     style="fill:#ffffff" />
  <path
     class="cls-1"
     d="m 266.19,83.190001 h -8 v -2.07 a 24,24 0 0 1 -10.62,2.07 q -18.6,0 -18.6,-17.27 v -26.59 q 0,-17.26 18.6,-17.27 18.6,-0.01 18.62,17.27 z m -18.59,-8 q 10.62,0 10.62,-9.3 v -26.56 q 0,-9.3 -10.62,-9.3 -10.62,0 -10.63,9.3 v 26.57 q 0,9.32 10.63,9.32 z"
     id="path16"
     inkscape:connector-curvature="0"
     style="fill:#ffffff" />
  <path
     class="cls-1"
     d="m 292.76,22.080001 q 18.6,0 18.6,17.27 v 26.57 q 0,17.26 -18.6,17.27 -18.6,0.01 -18.6,-17.27 V 0.83000122 h 8 V 24.160001 a 23.85,23.85 0 0 1 10.6,-2.08 z m 0,53.14 q 10.63,0 10.63,-9.3 v -26.59 q 0,-9.3 -10.63,-9.3 -10.63,0 -10.63,9.3 v 26.57 q 0,9.32 10.63,9.32 z"
     id="path18"
     inkscape:connector-curvature="0"
     style="fill:#ffffff" />
  <path
     class="cls-1"
     d="m 165.76,22.080001 v 2.44 41.4 q 0,9.3 -10.63,9.3 -10.63,0 -10.63,-9.3 v -43.84 c 0,0 0,-7.66 -14.62,-3.36 v 1.8 c 0,0 6.55,-1.11 6.65,1.56 v 43.84 q 0,17.26 18.6,17.27 18.6,0.01 18.6,-17.27 v -43.84 c 0.11,-2.67 6.65,-1.56 6.65,-1.56 v -1.8 c -14.62,-4.3 -14.62,3.36 -14.62,3.36 z"
     id="path20"
     inkscape:connector-curvature="0"
     style="fill:#ffffff" />
  <circle
     class="cls-1"
     cx="151.39999"
     cy="8.2900019"
     r="1.58"
     id="circle22"
     style="fill:#ffffff" />
  <circle
     class="cls-1"
     cx="151.81"
     cy="41.090004"
     r="1.35"
     id="circle24"
     style="fill:#ffffff" />
  <circle
     class="cls-1"
     cx="151.81"
     cy="26.15"
     r="2.4100001"
     id="circle26"
     style="fill:#ffffff" />
  <circle
     class="cls-1"
     cx="157.53999"
     cy="37.459999"
     r="3.8800001"
     id="circle28"
     style="fill:#ffffff" />
  <circle
     class="cls-1"
     cx="157.53999"
     cy="14.419999"
     r="1.35"
     id="circle30"
     style="fill:#ffffff" />
  <circle
     class="cls-1"
     cx="150.09999"
     cy="16.490005"
     r="2.23"
     id="circle32"
     style="fill:#ffffff" />
  <circle
     class="cls-1"
     cx="159.42999"
     cy="22.800003"
     r="2.1700001"
     id="circle34"
     style="fill:#ffffff" />
  <circle
     class="cls-1"
     cx="156.25"
     cy="1.1500024"
     r="1.15"
     id="circle36"
     style="fill:#ffffff" />
  <circle
     class="cls-1"
     cx="163.87999"
     cy="10.46"
     r="1.15"
     id="circle38"
     style="fill:#ffffff" />
  <path
     class="cls-1"
     d="m 163.88,51.330001 c 0,0 -3.63,1.92 -8.78,-3 a 8.36,8.36 0 0 0 -8.78,-1.74 v 4.74 0 13.27 q 0,8.16 8.78,8.15 8.78,-0.01 8.78,-8.15 z"
     id="path40"
     inkscape:connector-curvature="0"
     style="fill:#ffffff" />
</svg>
