<?xml version="1.0" encoding="UTF-8" standalone="no"?>
<svg
   xmlns:dc="http://purl.org/dc/elements/1.1/"
   xmlns:cc="http://creativecommons.org/ns#"
   xmlns:rdf="http://www.w3.org/1999/02/22-rdf-syntax-ns#"
   xmlns:svg="http://www.w3.org/2000/svg"
   xmlns="http://www.w3.org/2000/svg"
   xmlns:sodipodi="http://sodipodi.sourceforge.net/DTD/sodipodi-0.dtd"
   xmlns:inkscape="http://www.inkscape.org/namespaces/inkscape"
   id="Layer_1"
   data-name="Layer 1"
   viewBox="0 0 340.18 115.76"
   version="1.1"
   sodipodi:docname="Acculab logo.svg"
   width="340.17999"
   height="115.76"
   inkscape:version="0.92.2 (5c3e80d, 2017-08-06)">
  <metadata
     id="metadata99">
    <rdf:RDF>
      <cc:Work
         rdf:about="">
        <dc:format>image/svg+xml</dc:format>
        <dc:type
           rdf:resource="http://purl.org/dc/dcmitype/StillImage" />
        <dc:title>Acculab logo FINAL</dc:title>
      </cc:Work>
    </rdf:RDF>
  </metadata>
  <sodipodi:namedview
     pagecolor="#ffffff"
     bordercolor="#666666"
     borderopacity="1"
     objecttolerance="10"
     gridtolerance="10"
     guidetolerance="10"
     inkscape:pageopacity="0"
     inkscape:pageshadow="2"
     inkscape:window-width="1366"
     inkscape:window-height="706"
     id="namedview97"
     showgrid="false"
     inkscape:zoom="0.71028412"
     inkscape:cx="199.92"
     inkscape:cy="98.264999"
     inkscape:window-x="1912"
     inkscape:window-y="304"
     inkscape:window-maximized="1"
     inkscape:current-layer="Layer_1" />
  <defs
     id="defs4">
    <style
       id="style2">.cls-1{fill:#24709c;}.cls-2{fill:#828386;}.cls-3{fill:#87d6ed;}.cls-4{fill:#808285;}</style>
  </defs>
  <title
     id="title6">Acculab logo FINAL</title>
  <path
     class="cls-1"
     d="M 12.36,73.470002 9,90.890002 H 0 L 17.41,0.89000214 H 29.03 L 46.44,90.890002 h -9 l -3.36,-17.42 z m 10.82,-56.08 -9.17,47.37 h 18.38 z"
     id="path8"
     inkscape:connector-curvature="0"
     style="fill:#24709c" />
  <path
     class="cls-1"
     d="m 70.77,24.120002 q 20.32,0 20.32,18.87 v 1.45 h -8.71 v -1.45 q 0,-10.15 -11.61,-10.16 -11.61,-0.01 -11.59,10.16 v 29 q 0,10.15 11.61,10.16 11.61,0.01 11.61,-10.16 v -1.45 h 8.71 v 1.45 q 0,18.87 -20.32,18.87 -20.32,0 -20.34,-18.84 v -29 q 0,-18.9 20.32,-18.9 z"
     id="path10"
     inkscape:connector-curvature="0"
     style="fill:#24709c" />
  <path
     class="cls-1"
     d="m 120.12,24.120002 q 20.31,0 20.32,18.87 v 1.45 h -8.71 v -1.45 q 0,-10.15 -11.61,-10.16 -11.61,-0.01 -11.61,10.16 v 29 q 0,10.15 11.61,10.16 11.61,0.01 11.61,-10.16 v -1.45 h 8.71 v 1.45 q 0,18.87 -20.32,18.87 -20.32,0 -20.32,-18.87 v -29 q 0,-18.87 20.32,-18.87 z"
     id="path12"
     inkscape:connector-curvature="0"
     style="fill:#24709c" />
  <path
     class="cls-1"
     d="m 213.4,82.180002 h 34.84 v 8.71 H 204.7 V 0.89000214 h 8.7 z"
     id="path14"
     inkscape:connector-curvature="0"
     style="fill:#24709c" />
  <path
     class="cls-1"
     d="m 290.85,90.890002 h -8.67 v -2.26 a 26.35,26.35 0 0 1 -11.62,2.26 q -20.31,0 -20.32,-18.87 v -29 q 0,-18.87 20.32,-18.87 20.32,0 20.32,18.87 z m -20.32,-8.71 q 11.63,0 11.62,-10.16 v -29 q 0,-10.15 -11.62,-10.16 -11.62,-0.01 -11.61,10.13 v 29 q 0,10.18 11.61,10.19 z"
     id="path16"
     inkscape:connector-curvature="0"
     style="fill:#24709c" />
  <path
     class="cls-1"
     d="m 319.88,24.120002 q 20.3,0 20.3,18.87 v 29 q 0,18.87 -20.32,18.87 -20.32,0 -20.32,-18.87 V 0.90000214 h 8.71 V 26.390002 a 26.18,26.18 0 0 1 11.63,-2.27 z m 0,58.06 q 11.61,0 11.61,-10.16 v -29 q 0,-10.15 -11.61,-10.16 -11.61,-0.01 -11.61,10.13 v 29 q 0,10.18 11.61,10.19 z"
     id="path18"
     inkscape:connector-curvature="0"
     style="fill:#24709c" />
  <path
     class="cls-2"
     d="m 181.11,24.120002 v 2.66 45.24 q 0,10.15 -11.61,10.16 -11.61,0.01 -11.61,-10.16 v -47.9 c 0,0 0,-8.37 -16,-3.67 v 2 c 0,0 7.15,-1.21 7.27,1.71 v 47.9 q 0,18.87 20.32,18.87 20.32,0 20.32,-18.87 v -47.9 c 0.12,-2.92 7.27,-1.71 7.27,-1.71 v -2 c -16,-4.7 -15.96,3.67 -15.96,3.67 z"
     id="path20"
     inkscape:connector-curvature="0"
     style="fill:#828386" />
  <circle
     class="cls-3"
     cx="165.42"
     cy="9.0500011"
     r="1.72"
     id="circle22"
     style="fill:#87d6ed" />
  <circle
     class="cls-3"
     cx="165.87"
     cy="44.890003"
     r="1.47"
     id="circle24"
     style="fill:#87d6ed" />
  <circle
     class="cls-3"
     cx="165.87"
     cy="28.570005"
     r="2.6300001"
     id="circle26"
     style="fill:#87d6ed" />
  <circle
     class="cls-3"
     cx="172.12999"
     cy="40.920002"
     r="4.23"
     id="circle28"
     style="fill:#87d6ed" />
  <circle
     class="cls-3"
     cx="172.12999"
     cy="15.750002"
     r="1.47"
     id="circle30"
     style="fill:#87d6ed" />
  <circle
     class="cls-3"
     cx="164"
     cy="18.020002"
     r="2.4300001"
     id="circle32"
     style="fill:#87d6ed" />
  <circle
     class="cls-3"
     cx="174.2"
     cy="24.910002"
     r="2.3800001"
     id="circle34"
     style="fill:#87d6ed" />
  <circle
     class="cls-3"
     cx="170.71999"
     cy="1.2499996"
     r="1.25"
     id="circle36"
     style="fill:#87d6ed" />
  <circle
     class="cls-3"
     cx="179.06"
     cy="11.420004"
     r="1.25"
     id="circle38"
     style="fill:#87d6ed" />
  <path
     class="cls-3"
     d="m 179.06,56.100002 c 0,0 -4,2.1 -9.59,-3.24 a 9.14,9.14 0 0 0 -9.59,-1.89 v 5.13 0 14.53 q 0,8.89 9.59,8.9 9.59,0.01 9.59,-8.9 z"
     id="path40"
     inkscape:connector-curvature="0"
     style="fill:#87d6ed" />
  <path
     class="cls-4"
     d="m 0,101.63 h 1.37 v 9.49 h 4.55 v 1.15 H 0 Z"
     id="path42"
     inkscape:connector-curvature="0"
     style="fill:#808285" />
  <path
     class="cls-4"
     d="m 16.41,112.3 -0.11,-1 v 0 a 2.82,2.82 0 0 1 -2.33,1.14 2.18,2.18 0 0 1 -2.34,-2.2 c 0,-1.85 1.64,-2.86 4.59,-2.84 v -0.16 a 1.57,1.57 0 0 0 -1.73,-1.77 3.77,3.77 0 0 0 -2,0.57 l -0.32,-0.91 a 4.75,4.75 0 0 1 2.51,-0.68 c 2.34,0 2.91,1.59 2.91,3.12 v 2.86 a 11.23,11.23 0 0 0 0.12,1.83 z m -0.2,-3.9 c -1.52,0 -3.24,0.24 -3.24,1.73 a 1.22,1.22 0 0 0 1.31,1.32 1.91,1.91 0 0 0 1.9,-1.28 1.7,1.7 0 0 0 0.08,-0.44 z"
     id="path44"
     inkscape:connector-curvature="0"
     style="fill:#808285" />
  <path
     class="cls-4"
     d="m 24.5,112.3 c 0,-0.52 0.06,-1.29 0.06,-2 v -9.24 h 1.38 v 4.8 0 a 2.85,2.85 0 0 1 2.61,-1.4 c 1.89,0 3.23,1.58 3.22,3.9 0,2.73 -1.72,4.09 -3.43,4.09 a 2.74,2.74 0 0 1 -2.56,-1.44 v 0 l -0.07,1.26 z m 1.44,-3.06 a 2.84,2.84 0 0 0 0.06,0.51 2.15,2.15 0 0 0 2.09,1.62 c 1.45,0 2.32,-1.18 2.32,-2.94 0,-1.53 -0.79,-2.84 -2.28,-2.84 a 2.21,2.21 0 0 0 -2.11,1.71 2.89,2.89 0 0 0 -0.08,0.57 z"
     id="path46"
     inkscape:connector-curvature="0"
     style="fill:#808285" />
  <path
     class="cls-4"
     d="m 45.24,108.42 a 3.73,3.73 0 0 1 -3.8,4.06 3.64,3.64 0 0 1 -3.67,-3.93 3.74,3.74 0 0 1 3.79,-4.06 3.61,3.61 0 0 1 3.68,3.93 z m -6.06,0.08 c 0,1.67 1,2.94 2.32,2.94 1.32,0 2.32,-1.25 2.32,-3 0,-1.3 -0.65,-2.94 -2.29,-2.94 -1.64,0 -2.35,1.55 -2.35,3 z"
     id="path48"
     inkscape:connector-curvature="0"
     style="fill:#808285" />
  <path
     class="cls-4"
     d="m 51.77,107.05 c 0,-0.9 0,-1.68 -0.06,-2.39 h 1.21 l 0.05,1.5 h 0.06 a 2.29,2.29 0 0 1 2.15,-1.67 1.64,1.64 0 0 1 0.4,0 v 1.32 a 1.77,1.77 0 0 0 -0.48,-0.05 1.94,1.94 0 0 0 -1.92,1.87 4,4 0 0 0 -0.07,0.65 v 4.07 h -1.34 z"
     id="path50"
     inkscape:connector-curvature="0"
     style="fill:#808285" />
  <path
     class="cls-4"
     d="m 65.86,112.3 -0.11,-1 v 0 a 2.82,2.82 0 0 1 -2.33,1.14 2.18,2.18 0 0 1 -2.34,-2.2 c 0,-1.85 1.64,-2.86 4.6,-2.84 v -0.16 a 1.58,1.58 0 0 0 -1.74,-1.77 3.8,3.8 0 0 0 -2,0.57 l -0.32,-0.91 a 4.75,4.75 0 0 1 2.51,-0.68 c 2.34,0 2.91,1.59 2.91,3.12 v 2.86 a 10.15,10.15 0 0 0 0.13,1.83 z m -0.2,-3.9 c -1.52,0 -3.24,0.24 -3.24,1.73 a 1.22,1.22 0 0 0 1.31,1.32 1.9,1.9 0 0 0 1.85,-1.28 1.36,1.36 0 0 0 0.08,-0.44 z"
     id="path52"
     inkscape:connector-curvature="0"
     style="fill:#808285" />
  <path
     class="cls-4"
     d="m 75.63,102.47 v 2.16 h 2 v 1.06 h -2 v 4.12 c 0,0.95 0.27,1.49 1,1.49 a 3,3 0 0 0 0.81,-0.1 l 0.06,1 a 3.44,3.44 0 0 1 -1.23,0.19 1.91,1.91 0 0 1 -1.5,-0.58 2.81,2.81 0 0 1 -0.54,-2 v -4.17 h -1.15 v -1.01 h 1.19 v -1.8 z"
     id="path54"
     inkscape:connector-curvature="0"
     style="fill:#808285" />
  <path
     class="cls-4"
     d="m 90.78,108.42 a 3.74,3.74 0 0 1 -3.81,4.06 3.63,3.63 0 0 1 -3.66,-3.93 3.73,3.73 0 0 1 3.79,-4.06 3.62,3.62 0 0 1 3.68,3.93 z m -6.07,0.08 c 0,1.67 1,2.94 2.32,2.94 1.32,0 2.33,-1.25 2.33,-3 0,-1.3 -0.65,-2.94 -2.29,-2.94 -1.64,0 -2.36,1.55 -2.36,3 z"
     id="path56"
     inkscape:connector-curvature="0"
     style="fill:#808285" />
  <path
     class="cls-4"
     d="m 97.3,107.05 c 0,-0.9 0,-1.68 -0.06,-2.39 h 1.22 v 1.5 h 0.07 a 2.28,2.28 0 0 1 2.11,-1.67 1.64,1.64 0 0 1 0.4,0 v 1.32 a 1.7,1.7 0 0 0 -0.47,-0.05 2,2 0 0 0 -1.87,1.78 4.12,4.12 0 0 0 -0.06,0.65 v 4.07 h -1.38 z"
     id="path58"
     inkscape:connector-curvature="0"
     style="fill:#808285" />
  <path
     class="cls-4"
     d="m 108.18,104.63 1.68,4.52 c 0.17,0.5 0.36,1.1 0.49,1.56 v 0 c 0.14,-0.46 0.3,-1 0.49,-1.59 l 1.51,-4.49 h 1.47 l -2.08,5.45 c -1,2.62 -1.68,4 -2.62,4.78 a 3.74,3.74 0 0 1 -1.71,0.9 l -0.35,-1.16 a 3.79,3.79 0 0 0 1.22,-0.68 4.27,4.27 0 0 0 1.17,-1.55 1,1 0 0 0 0.11,-0.33 1.13,1.13 0 0 0 -0.1,-0.37 l -2.82,-7 z"
     id="path60"
     inkscape:connector-curvature="0"
     style="fill:#808285" />
  <path
     class="cls-4"
     d="m 131.31,101.63 v 10.64 h -1.37 v -10.64 z"
     id="path62"
     inkscape:connector-curvature="0"
     style="fill:#808285" />
  <path
     class="cls-4"
     d="m 138.59,106.73 c 0,-0.79 0,-1.44 -0.06,-2.07 h 1.23 l 0.08,1.26 v 0 a 2.83,2.83 0 0 1 2.53,-1.43 c 1.06,0 2.7,0.63 2.7,3.25 v 4.56 h -1.39 v -4.4 c 0,-1.23 -0.46,-2.26 -1.77,-2.26 a 2,2 0 0 0 -1.86,1.42 2.06,2.06 0 0 0 -0.1,0.65 v 4.59 h -1.39 z"
     id="path64"
     inkscape:connector-curvature="0"
     style="fill:#808285" />
  <path
     class="cls-4"
     d="m 152.28,112.3 v -6.58 h -1.1 v -1.09 h 1.08 v -0.36 a 3.58,3.58 0 0 1 0.92,-2.64 2.64,2.64 0 0 1 1.86,-0.71 3.27,3.27 0 0 1 1.19,0.22 l -0.19,1.07 a 2.19,2.19 0 0 0 -0.89,-0.17 c -1.18,0 -1.48,1 -1.48,2.21 v 0.38 h 1.85 v 1.06 h -1.85 v 6.58 z"
     id="path66"
     inkscape:connector-curvature="0"
     style="fill:#808285" />
  <path
     class="cls-4"
     d="m 168.23,108.42 a 3.74,3.74 0 0 1 -3.81,4.06 3.64,3.64 0 0 1 -3.66,-3.93 3.73,3.73 0 0 1 3.79,-4.06 3.61,3.61 0 0 1 3.68,3.93 z m -6.06,0.08 c 0,1.67 1,2.94 2.32,2.94 1.32,0 2.32,-1.25 2.32,-3 0,-1.3 -0.65,-2.94 -2.29,-2.94 -1.64,0 -2.34,1.55 -2.34,3 z"
     id="path68"
     inkscape:connector-curvature="0"
     style="fill:#808285" />
  <path
     class="cls-4"
     d="m 174.76,107.05 c 0,-0.9 0,-1.68 -0.06,-2.39 h 1.21 l 0.05,1.5 h 0.06 a 2.29,2.29 0 0 1 2.12,-1.67 1.51,1.51 0 0 1 0.39,0 v 1.32 a 1.65,1.65 0 0 0 -0.47,-0.05 1.94,1.94 0 0 0 -1.88,1.87 3.16,3.16 0 0 0 -0.07,0.65 v 4.07 h -1.37 z"
     id="path70"
     inkscape:connector-curvature="0"
     style="fill:#808285" />
  <path
     class="cls-4"
     d="m 184.76,106.73 c 0,-0.79 0,-1.44 -0.06,-2.07 h 1.21 l 0.07,1.23 v 0 a 2.65,2.65 0 0 1 2.4,-1.4 2.26,2.26 0 0 1 2.17,1.53 v 0 a 3.28,3.28 0 0 1 0.85,-1 2.67,2.67 0 0 1 1.69,-0.53 c 1,0 2.51,0.66 2.51,3.31 v 4.5 h -1.36 v -4.32 c 0,-1.47 -0.53,-2.36 -1.65,-2.36 a 1.82,1.82 0 0 0 -1.65,1.27 2.38,2.38 0 0 0 -0.11,0.69 v 4.72 h -1.36 v -4.58 c 0,-1.21 -0.53,-2.1 -1.59,-2.1 a 1.9,1.9 0 0 0 -1.72,1.39 1.94,1.94 0 0 0 -0.11,0.68 v 4.61 h -1.36 z"
     id="path72"
     inkscape:connector-curvature="0"
     style="fill:#808285" />
  <path
     class="cls-4"
     d="m 206.94,112.3 -0.11,-1 h -0.05 a 2.86,2.86 0 0 1 -2.34,1.14 2.18,2.18 0 0 1 -2.33,-2.2 c 0,-1.85 1.64,-2.86 4.59,-2.84 v -0.16 a 1.57,1.57 0 0 0 -1.73,-1.77 3.74,3.74 0 0 0 -2,0.57 l -0.32,-0.91 a 4.75,4.75 0 0 1 2.51,-0.68 c 2.34,0 2.91,1.59 2.91,3.12 v 2.86 a 11.23,11.23 0 0 0 0.12,1.83 z m -0.21,-3.9 c -1.51,0 -3.23,0.24 -3.23,1.73 a 1.22,1.22 0 0 0 1.31,1.32 1.92,1.92 0 0 0 1.85,-1.28 1.68,1.68 0 0 0 0.07,-0.44 z"
     id="path74"
     inkscape:connector-curvature="0"
     style="fill:#808285" />
  <path
     class="cls-4"
     d="m 216.71,102.47 v 2.16 h 2 v 1.06 h -2 v 4.12 c 0,0.95 0.26,1.49 1,1.49 a 2.89,2.89 0 0 0 0.8,-0.1 l 0.07,1 a 3.46,3.46 0 0 1 -1.24,0.19 1.94,1.94 0 0 1 -1.5,-0.58 2.86,2.86 0 0 1 -0.53,-2 v -4.17 h -1.13 v -1.01 h 1.19 v -1.8 z"
     id="path76"
     inkscape:connector-curvature="0"
     style="fill:#808285" />
  <path
     class="cls-4"
     d="m 226.58,102.51 a 0.82,0.82 0 0 1 -0.88,0.86 0.83,0.83 0 0 1 -0.84,-0.86 0.85,0.85 0 0 1 0.87,-0.87 0.82,0.82 0 0 1 0.85,0.87 z m -1.55,9.79 v -7.67 h 1.39 v 7.64 z"
     id="path78"
     inkscape:connector-curvature="0"
     style="fill:#808285" />
  <path
     class="cls-4"
     d="m 240.42,108.42 a 3.74,3.74 0 0 1 -3.81,4.06 3.63,3.63 0 0 1 -3.66,-3.93 3.73,3.73 0 0 1 3.79,-4.06 3.62,3.62 0 0 1 3.68,3.93 z m -6.07,0.08 c 0,1.67 1,2.94 2.33,2.94 1.33,0 2.32,-1.25 2.32,-3 0,-1.3 -0.65,-2.94 -2.29,-2.94 -1.64,0 -2.36,1.55 -2.36,3 z"
     id="path80"
     inkscape:connector-curvature="0"
     style="fill:#808285" />
  <path
     class="cls-4"
     d="m 246.95,106.73 c 0,-0.79 0,-1.44 -0.07,-2.07 h 1.23 l 0.08,1.26 v 0 a 2.83,2.83 0 0 1 2.53,-1.43 c 1.06,0 2.7,0.63 2.7,3.25 v 4.56 h -1.39 v -4.4 c 0,-1.23 -0.46,-2.26 -1.77,-2.26 a 2,2 0 0 0 -1.86,1.42 2.08,2.08 0 0 0 -0.09,0.65 v 4.59 h -1.39 z"
     id="path82"
     inkscape:connector-curvature="0"
     style="fill:#808285" />
  <path
     class="cls-4"
     d="m 270.97,110.63 a 4.89,4.89 0 0 0 2.47,0.7 c 1.4,0 2.23,-0.75 2.23,-1.82 0,-1.07 -0.57,-1.56 -2,-2.12 -1.74,-0.61 -2.81,-1.51 -2.81,-3 0,-1.66 1.37,-2.89 3.44,-2.89 a 4.79,4.79 0 0 1 2.35,0.52 l -0.37,1.12 a 4.25,4.25 0 0 0 -2,-0.51 c -1.45,0 -2,0.87 -2,1.6 0,1 0.65,1.48 2.11,2 1.8,0.7 2.72,1.56 2.72,3.13 0,1.57 -1.21,3.06 -3.73,3.06 a 5.49,5.49 0 0 1 -2.71,-0.68 z"
     id="path84"
     inkscape:connector-curvature="0"
     style="fill:#808285" />
  <path
     class="cls-4"
     d="m 284.06,104.63 1.67,4.52 c 0.17,0.5 0.36,1.1 0.49,1.56 v 0 c 0.14,-0.46 0.3,-1 0.49,-1.59 l 1.52,-4.49 h 1.47 l -2.09,5.45 c -1,2.62 -1.67,4 -2.62,4.78 a 3.74,3.74 0 0 1 -1.71,0.9 l -0.34,-1.16 a 3.86,3.86 0 0 0 1.21,-0.68 4.16,4.16 0 0 0 1.17,-1.55 1,1 0 0 0 0.11,-0.33 1.33,1.33 0 0 0 -0.09,-0.37 l -2.83,-7 z"
     id="path86"
     inkscape:connector-curvature="0"
     style="fill:#808285" />
  <path
     class="cls-4"
     d="m 295.48,110.88 a 3.63,3.63 0 0 0 1.83,0.56 c 1,0 1.49,-0.51 1.49,-1.14 0,-0.63 -0.4,-1 -1.42,-1.41 -1.38,-0.49 -2,-1.24 -2,-2.16 a 2.36,2.36 0 0 1 2.64,-2.24 3.84,3.84 0 0 1 1.88,0.47 l -0.35,1 a 3,3 0 0 0 -1.56,-0.44 c -0.82,0 -1.28,0.47 -1.28,1 0,0.53 0.46,0.92 1.45,1.3 1.33,0.5 2,1.17 2,2.3 0,1.34 -1,2.29 -2.86,2.29 a 4.32,4.32 0 0 1 -2.15,-0.52 z"
     id="path88"
     inkscape:connector-curvature="0"
     style="fill:#808285" />
  <path
     class="cls-4"
     d="m 308.37,102.47 v 2.16 h 2 v 1.06 h -2 v 4.12 c 0,0.95 0.27,1.49 1,1.49 a 2.92,2.92 0 0 0 0.81,-0.1 l 0.06,1 a 3.4,3.4 0 0 1 -1.23,0.19 1.91,1.91 0 0 1 -1.5,-0.58 2.85,2.85 0 0 1 -0.54,-2 v -4.17 h -1.18 v -1.01 h 1.18 v -1.8 z"
     id="path90"
     inkscape:connector-curvature="0"
     style="fill:#808285" />
  <path
     class="cls-4"
     d="m 317.38,108.73 a 2.45,2.45 0 0 0 2.62,2.66 5.1,5.1 0 0 0 2.12,-0.4 l 0.23,1 a 6.19,6.19 0 0 1 -2.54,0.47 3.55,3.55 0 0 1 -3.76,-3.85 c 0,-2.31 1.36,-4.12 3.59,-4.12 2.49,0 3.16,2.19 3.16,3.6 a 6.41,6.41 0 0 1 -0.05,0.64 z m 4.07,-1 a 2,2 0 0 0 -1.92,-2.26 2.31,2.31 0 0 0 -2.14,2.26 z"
     id="path92"
     inkscape:connector-curvature="0"
     style="fill:#808285" />
  <path
     class="cls-4"
     d="m 329.29,106.73 c 0,-0.79 0,-1.44 -0.06,-2.07 h 1.21 l 0.07,1.23 v 0 a 2.65,2.65 0 0 1 2.4,-1.4 2.26,2.26 0 0 1 2.17,1.53 v 0 a 3.28,3.28 0 0 1 0.85,-1 2.67,2.67 0 0 1 1.69,-0.53 c 1,0 2.51,0.66 2.51,3.31 v 4.5 h -1.36 v -4.32 c 0,-1.47 -0.53,-2.36 -1.65,-2.36 a 1.82,1.82 0 0 0 -1.65,1.27 2.38,2.38 0 0 0 -0.11,0.69 v 4.72 h -1.28 v -4.58 c 0,-1.21 -0.54,-2.1 -1.6,-2.1 a 1.9,1.9 0 0 0 -1.72,1.39 1.94,1.94 0 0 0 -0.11,0.68 v 4.61 h -1.36 z"
     id="path94"
     inkscape:connector-curvature="0"
     style="fill:#808285" />
</svg>
