<?xml version="1.0" encoding="UTF-8" standalone="no"?>
<!-- Generator: Adobe Illustrator 19.0.0, SVG Export Plug-In . SVG Version: 6.00 Build 0)  -->

<svg
   xmlns:dc="http://purl.org/dc/elements/1.1/"
   xmlns:cc="http://creativecommons.org/ns#"
   xmlns:rdf="http://www.w3.org/1999/02/22-rdf-syntax-ns#"
   xmlns:svg="http://www.w3.org/2000/svg"
   xmlns="http://www.w3.org/2000/svg"
   xmlns:sodipodi="http://sodipodi.sourceforge.net/DTD/sodipodi-0.dtd"
   xmlns:inkscape="http://www.inkscape.org/namespaces/inkscape"
   version="1.1"
   id="Layer_1"
   x="0px"
   y="0px"
   viewBox="0 0 499.99999 500.00001"
   xml:space="preserve"
   sodipodi:docname="DifficultyFindingVeins-veinInsideGlass.svg"
   inkscape:version="0.92.2 (5c3e80d, 2017-08-06)"
   width="500"
   height="500"
   inkscape:export-filename="C:\Users\mpoladian\Pictures\ehope\patient_card_vectors\difficulty_finding_veins\DifficultyFindingVeins-veinInsideGlass.png"
   inkscape:export-xdpi="64.949997"
   inkscape:export-ydpi="64.949997"><metadata
     id="metadata250"><rdf:RDF><cc:Work
         rdf:about=""><dc:format>image/svg+xml</dc:format><dc:type
           rdf:resource="http://purl.org/dc/dcmitype/StillImage" /><dc:title></dc:title></cc:Work></rdf:RDF></metadata><defs
     id="defs248" /><sodipodi:namedview
     pagecolor="#ffffff"
     bordercolor="#666666"
     borderopacity="1"
     objecttolerance="10"
     gridtolerance="10"
     guidetolerance="10"
     inkscape:pageopacity="0"
     inkscape:pageshadow="2"
     inkscape:window-width="1920"
     inkscape:window-height="1058"
     id="namedview246"
     showgrid="false"
     inkscape:zoom="0.82981718"
     inkscape:cx="311.94869"
     inkscape:cy="239.86891"
     inkscape:window-x="-8"
     inkscape:window-y="-8"
     inkscape:window-maximized="1"
     inkscape:current-layer="Layer_1" /><style
     type="text/css"
     id="style241">
	.st0{fill:#010201;}
</style><path
     style="color:#000000;font-style:normal;font-variant:normal;font-weight:normal;font-stretch:normal;font-size:medium;line-height:normal;font-family:sans-serif;font-variant-ligatures:normal;font-variant-position:normal;font-variant-caps:normal;font-variant-numeric:normal;font-variant-alternates:normal;font-feature-settings:normal;text-indent:0;text-align:start;text-decoration:none;text-decoration-line:none;text-decoration-style:solid;text-decoration-color:#000000;letter-spacing:normal;word-spacing:normal;text-transform:none;writing-mode:lr-tb;direction:ltr;text-orientation:mixed;dominant-baseline:auto;baseline-shift:baseline;text-anchor:start;white-space:normal;shape-padding:0;clip-rule:nonzero;display:inline;overflow:visible;visibility:visible;opacity:1;isolation:auto;mix-blend-mode:normal;color-interpolation:sRGB;color-interpolation-filters:linearRGB;solid-color:#000000;solid-opacity:1;vector-effect:none;fill:#000000;fill-opacity:1;fill-rule:nonzero;stroke:none;stroke-width:8.59255886;stroke-linecap:butt;stroke-linejoin:miter;stroke-miterlimit:4;stroke-dasharray:none;stroke-dashoffset:0;stroke-opacity:1;color-rendering:auto;image-rendering:auto;shape-rendering:auto;text-rendering:auto;enable-background:accumulate"
     d="m 198.22045,0.00140821 c -10.65443,0.042 -21.56715,0.879389 -32.72652,2.50585699 C 117.94884,9.4502412 78.186355,32.789402 46.960879,69.243512 20.516638,100.05354 5.8544313,136.27812 1.1113267,176.54025 H 0 v 21.92185 h 0.7109366 c -0.40020329,7.81715 0.4840882,15.41755 1.4726544,22.84567 7.0849335,53.79555 32.156573,97.84881 74.949124,130.8143 74.428325,57.35297 176.385705,54.89363 247.415705,-5.99023 2.9083,-2.49202 3.87489,-2.5396 4.1289,-2.5 0.25343,0.0395 1.66976,0.86332 4.09765,3.29297 47.83018,48.34986 95.99445,96.34393 144.06232,144.50177 1.8035,1.80687 3.63155,3.63794 5.5664,5.48827 l 0.01,0.01 0.01,0.008 c 2.08659,1.97105 4.85408,3.27665 7.67772,3.03906 2.81251,-0.23664 5.06659,-1.79435 6.79687,-3.63671 1.60751,-1.67679 2.91185,-3.83437 3.08398,-6.39648 0.17284,-2.5727 -0.93345,-5.10119 -2.61133,-7.03124 l -0.0371,-0.043 -0.041,-0.043 c -2.01274,-2.19186 -4.03004,-4.30149 -6.1328,-6.40819 v -0.002 l -0.002,-0.002 c -47.12898,-47.13119 -94.3414,-94.34692 -141.46857,-141.56233 -2.42515,-2.42968 -4.18005,-4.21682 -5.12889,-5.41209 -0.94885,-1.19528 -0.92656,-1.50554 -0.92578,-1.46876 7.7e-4,0.0368 0.014,-0.4194 0.93359,-1.77929 0.91961,-1.35989 2.58451,-3.376 4.86327,-6.11132 l 0.004,-0.004 0.004,-0.004 C 377.74286,285.91631 392.64936,245.89529 393.26317,201.79413 393.96256,152.21963 378.99286,106.73071 345.9312,68.950542 305.70158,22.961592 255.75384,-0.22537179 198.22045,0.00140821 Z M 195.88253,19.624431 c 27.36639,-0.142174 55.05392,6.774089 83.10928,21.304661 5e-4,2.6e-4 0.001,-2.7e-4 0.002,0 0.002,0.001 0.004,0.003 0.006,0.004 72.81808,37.91043 104.89703,116.029588 90.13074,190.671648 v 0.002 c -5.98101,30.28736 -19.65961,57.30883 -38.61909,79.46865 l -3.92382,-8.38476 c -5.18802,-11.08848 -10.7434,-22.05336 -17.02732,-32.54683 l -0.004,-0.006 C 284.12015,227.49269 247.76329,196.71561 203.81419,175.0051 l -0.008,-0.004 -0.008,-0.004 c -6.31071,-3.08418 -10.17088,-6.95897 -12.98436,-13.28124 v -0.002 c -8.20075,-18.44219 -18.40669,-35.65444 -30.41988,-51.87884 -1.95095,-2.71935 -3.87984,-4.82719 -5.41992,-7.0957 48.34778,15.0592 97.56041,20.66815 138.80452,48.29486 l 6.08983,-5.75389 c -4.05977,-6.87582 -9.5899,-11.20831 -14.89451,-14.84179 -30.21259,-21.51979 -65.16518,-31.317688 -98.88464,-40.859318 l -0.006,-0.002 c -31.11409,-8.84495 -61.02126,-17.78204 -87.737651,-35.05826 l -0.01172,-0.008 c -1.391474,-0.91868 -2.226112,-1.58254 -2.871089,-2.13477 0.563808,-0.48018 1.160535,-0.99834 2.460934,-1.8164 C 130.19444,30.254697 162.85112,19.796037 195.88256,19.624431 Z M 73.130767,72.011092 c 0.123677,0.002 0.95766,0.23466 2.544919,1.45506 9.081682,7.03871 18.214045,14.20131 27.652304,21.05467 l 0.0215,0.0156 0.0215,0.0156 c 1.95226,1.38065 2.74203,2.97222 3.03321,5.00585 1.00694,7.146478 1.60245,14.370358 2.20311,21.763648 2.15994,28.52356 -4.65168,55.5 -15.572241,82.04677 l -0.002,0.004 -0.002,0.006 c -18.234317,44.62718 -20.339061,75.2869 -6.878834,115.56803 l 8.363271,-1.63086 c -0.51134,-8.11136 -0.679654,-13.56908 -1.30664,-19.13278 l 0.0039,0.0312 c -2.195625,-20.89749 -1.726486,-40.5656 7.410144,-59.61126 l 0.002,-0.004 c 11.75031,-24.41064 22.08514,-49.70453 28.79294,-76.32412 3.04715,-11.954 5.19586,-24.2278 5.45311,-36.88473 11.20857,14.42491 21.55954,29.14944 30.22653,44.87495 l 0.01,0.0156 0.008,0.0137 c 3.97704,7.08351 7.84752,13.08394 7.77734,20.04489 -0.17184,16.95772 -0.25852,33.81977 -1.36328,50.67768 -2.30921,35.1306 -6.39626,71.00509 3.13867,106.82799 l -0.01,-0.0371 c 1.35408,5.27569 1.48626,13.31787 7.9121,20.96286 l 2.56641,3.05274 C 126.56873,367.82487 81.851964,340.55117 49.244079,291.88582 l -0.002,-0.002 C 30.44903,263.80558 22.228954,232.23656 20.951146,198.4621 h 0.347655 v -17.52732 l -0.002,-0.0703 c -0.04802,-1.44317 0.732764,-3.70451 1.164062,-6.9453 l 0.002,-0.0176 0.002,-0.0156 c 4.866928,-38.92424 21.373804,-71.93571 48.460876,-100.253788 1.589674,-1.66041 2.081399,-1.62271 2.205075,-1.62108 z M 196.1228,195.18867 c 17.59142,8.19544 34.67652,16.66944 49.8808,28.27926 25.40172,19.42254 43.56795,45.68447 62.94718,71.65811 l 0.008,0.008 0.006,0.008 c 2.64285,3.50652 4.93858,10.0013 11.9121,13.2617 l 8.53709,3.99218 c -33.79029,38.71474 -84.1532,61.82037 -139.25763,59.56439 v -5.95508 c 0,-8.90065 0.72932,-16.32443 -0.20313,-24.0781 l -0.002,-0.0176 -0.002,-0.0195 c -2.33747,-18.14924 -1.3412,-36.59907 -1.08203,-55.38079 0.0355,-2.56131 0.59052,-3.2254 0.31836,-3.01952 0.0172,-3.2e-4 0.002,2.8e-4 0.0215,0 0.43552,-0.006 1.43876,0.12742 2.87695,0.59571 h 0.002 0.002 c 33.42811,10.85266 62.13411,26.58328 79.82412,57.88859 l 0.004,0.006 0.006,0.008 c 0.23867,0.41846 0.73491,2.13528 2.53514,3.93945 0.90012,0.90209 2.41402,1.84449 4.17969,1.98828 1.76567,0.1438 3.41369,-0.45397 4.791,-1.3164 l 0.0274,-0.0195 0.0293,-0.0176 c 2.19457,-1.42268 3.98979,-4.20618 3.88671,-6.7578 -0.10307,-2.55164 -1.16142,-4.10563 -1.99218,-5.53907 l -0.004,-0.008 -0.004,-0.008 c -8.81823,-15.07102 -18.37169,-29.97274 -32.97457,-41.53315 l -0.002,-0.002 c -16.25428,-12.88395 -34.8108,-20.18047 -53.49993,-26.42184 l -0.01,-0.004 -0.01,-0.002 c -2.3703,-0.7786 -4.18873,-1.69399 -5.10741,-2.56836 -0.9187,-0.87437 -1.33048,-1.49509 -1.21485,-3.60937 v -0.008 l 0.002,-0.008 c 1.10355,-21.60198 2.45658,-43.23645 3.56835,-64.90422 z"
     id="XMLID_15_"
     inkscape:connector-curvature="0"
     sodipodi:nodetypes="scccccccccccccccccsccccccsccccccccscccccccccccccccccccccccccccccccccccccccccccccccccccccccccccccccccccccccccccscccccccccccccccccccccccccccccccc" /></svg>