<?xml version="1.0" encoding="UTF-8" standalone="no"?>
<svg
   xmlns:dc="http://purl.org/dc/elements/1.1/"
   xmlns:cc="http://creativecommons.org/ns#"
   xmlns:rdf="http://www.w3.org/1999/02/22-rdf-syntax-ns#"
   xmlns:svg="http://www.w3.org/2000/svg"
   xmlns="http://www.w3.org/2000/svg"
   id="svg4"
   version="1.1"
   viewBox="0 0 512 512">
  <metadata
     id="metadata10">
    <rdf:RDF>
      <cc:Work
         rdf:about="">
        <dc:format>image/svg+xml</dc:format>
        <dc:type
           rdf:resource="http://purl.org/dc/dcmitype/StillImage" />
        <dc:title></dc:title>
      </cc:Work>
    </rdf:RDF>
  </metadata>
  <defs
     id="defs8" />
  <path
     id="path2"
     d="M 255.75 0 A 48 48 0 0 0 237.53711 3.6914062 L 66.544922 74.939453 L 45.537109 83.691406 A 48 48 0 0 0 41.720703 85.511719 A 48 48 0 0 0 39.644531 86.701172 A 48 48 0 0 0 37.601562 87.939453 A 48 48 0 0 0 35.619141 89.357422 A 48 48 0 0 0 33.738281 90.771484 A 48 48 0 0 0 31.935547 92.355469 A 48 48 0 0 0 30.152344 94 A 48 48 0 0 0 28.548828 95.722656 A 48 48 0 0 0 26.9375 97.539062 A 48 48 0 0 0 25.505859 99.421875 A 48 48 0 0 0 24.074219 101.39844 A 48 48 0 0 0 22.841797 103.41211 A 48 48 0 0 0 21.625 105.50586 A 48 48 0 0 0 20.576172 107.67773 A 48 48 0 0 0 19.59375 109.8457 A 48 48 0 0 0 18.773438 112.08594 A 48 48 0 0 0 17.998047 114.38086 A 48 48 0 0 0 17.410156 116.68555 A 48 48 0 0 0 16.871094 119.03516 A 48 48 0 0 0 16.511719 121.4043 A 48 48 0 0 0 16.210938 123.7793 A 48 48 0 0 0 16 128 C 16 130.99387 16.03423 133.96969 16.085938 136.93555 C 16.109039 138.31901 16.145949 139.69272 16.179688 141.06836 C 16.213395 142.38652 16.249155 143.7031 16.292969 145.01562 C 23.043572 355.61054 154.15578 473.57116 237.53906 508.30859 A 48 48 0 0 0 255.99805 511.98828 L 255.99805 446.31445 L 255.93359 446.34766 C 162.19859 399.65866 83.437187 290.03819 80.117188 138.61719 L 255.99805 65.332031 L 255.99805 0.01171875 A 48 48 0 0 0 255.75 0 z M 256.25 0 A 48 48 0 0 0 256.00195 0.01171875 L 256.00195 65.332031 L 431.88281 138.61719 C 428.56281 290.03819 349.80141 399.65866 256.06641 446.34766 L 256.00195 446.31445 L 256.00195 511.98828 A 48 48 0 0 0 274.46094 508.30859 C 357.84419 473.57117 488.95643 355.61054 495.70703 145.01562 C 495.75084 143.7031 495.78661 142.38652 495.82031 141.06836 C 495.85405 139.69272 495.89096 138.31901 495.91406 136.93555 C 495.96577 133.96969 496 130.99387 496 128 A 48 48 0 0 0 495.78906 123.7793 A 48 48 0 0 0 495.48828 121.4043 A 48 48 0 0 0 495.12891 119.03516 A 48 48 0 0 0 494.58984 116.68555 A 48 48 0 0 0 494.00195 114.38086 A 48 48 0 0 0 493.22656 112.08594 A 48 48 0 0 0 492.40625 109.8457 A 48 48 0 0 0 491.42383 107.67773 A 48 48 0 0 0 490.375 105.50586 A 48 48 0 0 0 489.1582 103.41211 A 48 48 0 0 0 487.92578 101.39844 A 48 48 0 0 0 486.49414 99.421875 A 48 48 0 0 0 485.0625 97.539062 A 48 48 0 0 0 483.45117 95.722656 A 48 48 0 0 0 481.84766 94 A 48 48 0 0 0 480.06445 92.355469 A 48 48 0 0 0 478.26172 90.771484 A 48 48 0 0 0 476.38086 89.357422 A 48 48 0 0 0 474.39844 87.939453 A 48 48 0 0 0 472.35547 86.701172 A 48 48 0 0 0 470.2793 85.511719 A 48 48 0 0 0 466.46289 83.691406 L 466.46094 83.691406 L 445.45508 74.939453 L 274.46289 3.6914062 A 48 48 0 0 0 256.25 0 z " />
  <path
     style="stroke-width:0.57651269"
     d="M 293.58544,231.38357 231.32207,213.16576 C 224.11568,211.09031 219.1,204.34511 219.1,196.85045 c 0,-9.39715 7.60997,-17.00714 17.00714,-17.00714 h 38.22277 c 7.03346,0 13.95161,2.13311 19.71675,6.0534 3.51672,2.36371 8.24413,1.78719 11.242,-1.15304 l 20.06264,-19.60142 c 4.09324,-3.97793 3.51673,-10.60783 -1.03772,-14.12457 -14.12457,-11.06904 -31.76585,-17.23772 -49.86835,-17.29538 v -27.67261 c 0,-5.0733 -4.15091,-9.224205 -9.22421,-9.224205 h -18.4484 c -5.07332,0 -9.2242,4.150905 -9.2242,9.224205 v 27.67261 h -1.44128 c -36.72387,0 -66.24131,31.53525 -62.83989,68.95092 2.42135,26.57724 22.7146,48.19647 48.31177,55.69113 l 59.09255,17.29539 c 7.20641,2.1331 12.22205,8.82064 12.22205,16.3153 0,9.39716 -7.60996,17.00713 -17.00712,17.00713 h -38.22278 c -7.03346,0 -13.95161,-2.13309 -19.71674,-6.05338 -3.51673,-2.36372 -8.24414,-1.78719 -11.242,1.15303 l -20.06263,19.60143 c -4.09326,3.97792 -3.51674,10.60782 1.03771,14.12456 14.12457,11.06904 31.76586,17.23771 49.86836,17.29538 v 27.6726 c 0,5.07331 4.15088,9.22421 9.2242,9.22421 h 18.4484 c 5.0733,0 9.22421,-4.1509 9.22421,-9.22421 v -27.78791 c 26.86549,-0.51887 52.05911,-16.48825 60.93739,-41.91247 12.39503,-35.51318 -8.41707,-71.94878 -41.79718,-81.69184 z"
     id="path817" />
</svg>
