<?xml version="1.0" encoding="UTF-8" standalone="no"?>
<svg
   xmlns:dc="http://purl.org/dc/elements/1.1/"
   xmlns:cc="http://creativecommons.org/ns#"
   xmlns:rdf="http://www.w3.org/1999/02/22-rdf-syntax-ns#"
   xmlns:svg="http://www.w3.org/2000/svg"
   xmlns="http://www.w3.org/2000/svg"
   id="svg8"
   version="1.1"
   viewBox="0 0 500 500"
   height="500mm"
   width="500mm">
  <defs
     id="defs2" />
  <metadata
     id="metadata5">
    <rdf:RDF>
      <cc:Work
         rdf:about="">
        <dc:format>image/svg+xml</dc:format>
        <dc:type
           rdf:resource="http://purl.org/dc/dcmitype/StillImage" />
        <dc:title></dc:title>
      </cc:Work>
    </rdf:RDF>
  </metadata>
  <g
     transform="translate(0,203)"
     id="layer1">
    <path
       id="path815"
       d="m 290.75551,-201.30931 c -24.78362,0 -45.10047,20.31684 -45.10047,45.10047 0,18.85795 11.76399,35.12723 28.30724,41.83025 L 263.26333,8.714957 c -15.94245,1.985123 -30.28935,9.322541 -41.16969,20.144022 L 111.7772,-51.47343 c 1.08709,-3.8618 1.67073,-7.92743 1.67073,-12.12197 0,-24.78364 -20.316863,-45.10047 -45.100473,-45.10047 -24.783629,0 -45.100469,20.31684 -45.100469,45.10047 0,24.78363 20.31684,45.100471 45.100469,45.100471 10.35259,0 19.92424,-3.546811 27.56277,-9.481691 L 206.35252,52.43769 c -3.36208,8.226713 -5.22195,17.210446 -5.22195,26.606541 0,11.681162 2.87023,22.726189 7.93548,32.469099 L 92.894497,169.48884 c -9.73083,-7.38211 -21.83322,-11.7777 -34.907605,-11.7777 C 26.112032,157.71114 0,183.82316 0,215.69804 c 0,31.87488 26.112029,57.98622 57.986892,57.98622 31.874835,0 57.986228,-26.11134 57.986228,-57.98622 0,-8.59496 -1.90169,-16.76948 -5.29987,-24.12742 l 116.20019,-57.9975 c 12.28229,10.19404 28.02539,16.34311 45.12977,16.34311 11.57609,0 22.52892,-2.81653 32.20739,-7.797 l 86.75228,97.45523 c -3.1216,5.56828 -4.90768,11.97172 -4.90768,18.76759 0,21.23803 17.41993,38.65795 38.65796,38.65795 21.23799,0 38.65723,-17.41992 38.65723,-38.65795 0,-21.238 -17.41924,-38.65724 -38.65723,-38.65724 -4.13027,0 -8.11493,0.66091 -11.85629,1.87847 l -86.51522,-97.16421 c 10.30706,-12.31498 16.53355,-28.14495 16.53355,-45.354839 0,-1.929792 -0.0816,-3.841886 -0.23507,-5.734031 l 61.90302,-21.249407 c 9.09703,14.758707 25.41358,24.659463 43.91319,24.659463 28.32921,0 51.54366,-23.214432 51.54366,-51.543681 0,-28.32925 -23.21445,-51.543685 -51.54366,-51.543685 -28.18742,0 -51.30754,22.983507 -51.53835,51.119506 L 334.68732,46.099025 C 325.7489,29.220783 310.19295,16.322436 291.53794,10.931727 l 10.71959,-123.541697 c 19.26925,-5.12547 33.59846,-22.78598 33.59846,-43.59887 0,-24.78363 -20.31688,-45.10047 -45.10048,-45.10047 z m 0,25.77151 c 10.8691,0 19.32895,8.45984 19.32895,19.32896 0,10.8691 -8.45985,19.32896 -19.32895,19.32896 -10.86911,0 -19.32896,-8.45986 -19.32896,-19.32896 0,-10.86912 8.45985,-19.32896 19.32896,-19.32896 z M 68.347457,-82.92436 c 10.86912,0 19.32896,8.45985 19.32896,19.32896 0,10.86911 -8.45984,19.32896 -19.32896,19.32896 -10.869113,0 -19.328963,-8.45985 -19.328963,-19.32896 0,-10.86911 8.45985,-19.32896 19.328963,-19.32896 z M 448.45634,1.551915 c 13.25406,0 23.62466,10.370601 23.62466,23.62466 0,13.254055 -10.3706,23.624656 -23.62466,23.624656 -13.25407,0 -23.62467,-10.370601 -23.62467,-23.624656 0,-13.254059 10.3706,-23.62466 23.62467,-23.62466 z M 272.00321,42.533153 c 20.4089,0 36.51041,16.102187 36.51041,36.511078 0,20.408897 -16.10151,36.510409 -36.51041,36.510409 -20.40889,0 -36.51108,-16.101512 -36.51108,-36.510409 0,-20.408891 16.10219,-36.511078 36.51108,-36.511078 z M 57.986892,187.77901 c 15.639005,0 27.921015,12.28003 27.921015,27.91903 0,15.639 -12.28202,27.92101 -27.921015,27.92101 -15.638998,0 -27.919022,-12.28201 -27.919022,-27.92101 0,-15.639 12.280021,-27.91903 27.919022,-27.91903 z m 366.726268,55.53043 c 8.48415,0 15.0326,6.54845 15.0326,15.03261 0,8.48419 -6.54845,15.03529 -15.0326,15.03529 -8.48416,0 -15.03527,-6.5511 -15.03527,-15.03529 0,-8.48416 6.55111,-15.03261 15.03527,-15.03261 z"
       style="color:#000000;font-style:normal;font-variant:normal;font-weight:normal;font-stretch:normal;font-size:medium;line-height:normal;font-family:sans-serif;font-variant-ligatures:normal;font-variant-position:normal;font-variant-caps:normal;font-variant-numeric:normal;font-variant-alternates:normal;font-feature-settings:normal;text-indent:0;text-align:start;text-decoration:none;text-decoration-line:none;text-decoration-style:solid;text-decoration-color:#000000;letter-spacing:normal;word-spacing:normal;text-transform:none;writing-mode:lr-tb;direction:ltr;text-orientation:mixed;dominant-baseline:auto;baseline-shift:baseline;text-anchor:start;white-space:normal;shape-padding:0;clip-rule:nonzero;display:inline;overflow:visible;visibility:visible;opacity:1;isolation:auto;mix-blend-mode:normal;color-interpolation:sRGB;color-interpolation-filters:linearRGB;solid-color:#000000;solid-opacity:1;vector-effect:none;fill:#000000;fill-opacity:1;fill-rule:nonzero;stroke:none;stroke-width:12.88587475;stroke-linecap:square;stroke-linejoin:miter;stroke-miterlimit:4;stroke-dasharray:none;stroke-dashoffset:0;stroke-opacity:1;color-rendering:auto;image-rendering:auto;shape-rendering:auto;text-rendering:auto;enable-background:accumulate" />
  </g>
</svg>
