<?xml version="1.0" encoding="UTF-8" standalone="no"?>
<!-- Generator: Adobe Illustrator 19.0.0, SVG Export Plug-In . SVG Version: 6.00 Build 0)  -->

<svg
   xmlns:dc="http://purl.org/dc/elements/1.1/"
   xmlns:cc="http://creativecommons.org/ns#"
   xmlns:rdf="http://www.w3.org/1999/02/22-rdf-syntax-ns#"
   xmlns:svg="http://www.w3.org/2000/svg"
   xmlns="http://www.w3.org/2000/svg"
   xmlns:sodipodi="http://sodipodi.sourceforge.net/DTD/sodipodi-0.dtd"
   xmlns:inkscape="http://www.inkscape.org/namespaces/inkscape"
   version="1.1"
   id="Layer_1"
   sodipodi:docname="sphygmomanometer.svg"
   inkscape:version="0.92.2 (5c3e80d, 2017-08-06)"
   x="0px"
   y="0px"
   viewBox="-18 129.5 500.00002 400"
   xml:space="preserve"
   width="500"
   height="400"
   inkscape:export-filename="C:\Users\mpoladian\Pictures\ehope\patient_card_vectors\hypertension\hypertensionMachine.png"
   inkscape:export-xdpi="64.949997"
   inkscape:export-ydpi="64.949997"><metadata
     id="metadata13"><rdf:RDF><cc:Work
         rdf:about=""><dc:format>image/svg+xml</dc:format><dc:type
           rdf:resource="http://purl.org/dc/dcmitype/StillImage" /><dc:title></dc:title></cc:Work></rdf:RDF></metadata><defs
     id="defs11" /><sodipodi:namedview
     inkscape:cy="231.52148"
     inkscape:zoom="0.62325752"
     guidetolerance="10"
     showgrid="false"
     objecttolerance="10"
     borderopacity="1"
     pagecolor="#ffffff"
     bordercolor="#666666"
     gridtolerance="10"
     inkscape:cx="302.79086"
     id="namedview104"
     inkscape:pageshadow="2"
     inkscape:pageopacity="0"
     inkscape:window-width="1920"
     inkscape:window-height="1058"
     inkscape:window-y="-8"
     inkscape:window-x="-8"
     inkscape:current-layer="g823"
     inkscape:window-maximized="1" /><g
     id="g823"
     transform="translate(922.6597,-39.346108)"><path
       style="fill:#8c8c8c;fill-opacity:1;stroke-width:0.84208536"
       d="m -843.69714,168.84611 c -53.40286,0 -96.96256,43.40317 -96.96256,96.61209 0,37.08543 21.16369,69.40002 52.06869,85.58237 v 13.69731 l 4.3176,10.32699 10.87785,4.40021 c 8.35751,0.0578 15.66989,0.15264 16.25029,0.21041 0.62085,0.0618 7.56294,32.62481 10.42091,50.18862 0.67758,-0.64178 1.37664,-1.26934 2.09729,-1.88135 5.03375,-4.26833 10.6901,-7.25979 16.62622,-9.05238 l -6.98437,-39.1503 16.04006,-0.41959 11.84788,-5.2212 4.4222,-9.61919 0.18549,-11.6474 c 32.89599,-15.48223 55.75378,-48.87251 55.75378,-87.4145 0,-53.20892 -43.55859,-96.61209 -96.96133,-96.61209 z m 0,25.68554 c 39.47171,0 71.18667,31.59811 71.18667,70.92655 0,39.32843 -31.71496,70.92161 -71.18667,70.92161 -39.47191,0 -71.18049,-31.59314 -71.18049,-70.92161 0,-39.3285 31.70877,-70.92655 71.18049,-70.92655 z m 2.58823,58.52489 c -7.78223,0 -14.15671,6.35184 -14.15671,14.10583 0,7.75399 6.37448,14.10458 14.15671,14.10458 7.78222,0 14.15671,-6.35059 14.15671,-14.10458 0,-7.75399 -6.37449,-14.10583 -14.15671,-14.10583 z m -31.05127,1.93795 -0.10388,0.0172 c -11.16587,2.23528 -22.32948,4.48567 -33.50593,6.66655 11.54943,3.83656 20.80557,7.44194 31.41359,10.524 l 0.0198,0.01 0.073,0.0185 c 1.48997,0.38724 3.69654,1.21164 6.28939,0.57462 1.44654,-0.35538 2.80688,-1.23655 3.73703,-2.61962 0.87703,-1.30422 1.28684,-2.83374 1.46539,-4.52312 v -0.0603 c 0.2304,-2.38505 0.34625,-5.03753 -1.25269,-7.37405 -1.68315,-2.45978 -4.73229,-3.31497 -8.02312,-3.2287 z m 61.66848,166.93448 c -9.67674,0.10155 -19.26906,3.34269 -27.17078,10.04289 -20.69773,17.57754 -21.78466,49.12576 -3.26218,68.17896 l 63.7732,65.52243 c 4.11977,4.23048 10.81105,4.23048 14.93082,0 l 63.7732,-65.52243 c 18.55545,-19.0532 17.46894,-50.60142 -3.22879,-68.17896 -18.06107,-15.31473 -44.92235,-12.55963 -61.50031,4.46036 l -6.49344,6.65671 -6.49219,-6.65671 c -9.30656,-9.57374 -21.888,-14.63381 -34.32953,-14.50325 z m 184.72105,12.67236 v 29.40025 l 7.3875,0.24239 7.38627,0.2424 v 4.5871 4.5871 h -5.57093 c -8.47146,0 -13.00171,2.94072 -13.00171,8.43962 0,1.58152 -0.71996,1.63992 -20.04915,1.63034 -14.45682,-0.007 -22.66347,-0.43018 -28.7623,-2.40306 -1.82862,6.54803 -4.96364,12.79275 -9.40319,18.30533 7.71369,3.54278 12.37424,3.77567 34.12301,4.21305 l 23.60317,0.47495 0.60099,2.926 c 0.33012,1.60966 1.60013,3.78394 2.82318,4.83072 2.16756,1.85519 2.70222,1.90227 21.13119,1.90227 h 18.90652 l 2.47569,3.57075 c 2.99141,4.31315 10.9742,11.94679 16.17733,15.47039 9.05082,6.12929 22.92303,11.34177 35.27553,13.25559 v 9.9e-4 c 24.23894,3.75541 50.69566,-1.34207 68.56011,-13.2076 4.95961,-3.29416 12.99687,-11.01573 16.1526,-15.51959 2.79896,-2.93687 0.87937,-3.15308 3.18303,-4.73107 6.0725,-9.66262 5.24656,-28.46046 -1.33678,-39.20321 -2.07678,-1.70276 -0.13485,-0.52821 -3.38089,-4.97592 -10.62193,-14.82625 -33.79515,-25.87629 -57.97102,-27.64194 -31.03998,-2.26696 -61.11258,8.73786 -74.83344,27.38354 l -3.79886,5.16172 -7.3875,0.059 -7.38627,0.0578 v -4.5871 -4.5871 l 7.38627,-0.2424 7.3875,-0.2424 v -29.40025 h -19.83893 z"
       id="path827"
       inkscape:connector-curvature="0"
       sodipodi:nodetypes="sscccccccccccccsssssssssssscccccccccccccscccccccccsccccccsscccccccsccsccsccccsccccccccccc" /></g></svg>