<?xml version="1.0" encoding="utf-8"?>
<!-- Generator: Adobe Illustrator 22.0.1, SVG Export Plug-In . SVG Version: 6.00 Build 0)  -->
<svg version="1.1" id="Layer_1" xmlns="http://www.w3.org/2000/svg" xmlns:xlink="http://www.w3.org/1999/xlink" x="0px" y="0px"
	 viewBox="0 0 58.3 106.3" style="enable-background:new 0 0 58.3 106.3;" xml:space="preserve">
<style type="text/css">
	.st0{fill:#FFFFFF;}
	.st1{fill:#B5B5B5;}
	.st2{fill:#E5E5E5;}
	.st3{fill:#5D5D5D;}
	.st4{opacity:7.000000e-02;fill:#F1F1F2;enable-background:new    ;}
	.st5{fill:none;stroke:#000000;stroke-width:1.0392;stroke-miterlimit:10;}
	.st6{opacity:0.31;}
	.st7{opacity:0.7;}
	.st8{opacity:0.53;fill:#FFFFFF;enable-background:new    ;}
</style>
<g>
	<rect x="18.9" y="17.8" class="st0" width="19.5" height="76.8"/>
	<g>
		<path class="st1" d="M29.6,96.4c-3.5,0-7-0.5-10.6-1.6l-0.6-0.2l-0.3-46c0-1.1,0-2.2,0-3.3c0-2.4-0.5-4.6-1-7
			c-0.2-1-0.4-1.9-0.6-2.9c-0.4-2.5-0.7-5.1-0.9-7.9l0-11.4l1,0.2c0.9,0.2,2.1,0.3,3.4,0.4l0.8,0.1v75.9c1.3,0.4,4.8,1.2,8.9,1.2
			c2.8,0,5.5-0.4,7.9-1.2V16.6l0.8-0.1c1.3-0.1,2.5-0.3,3.4-0.4l1-0.2v11.4c-0.2,2.9-0.5,5.5-0.9,8c-0.2,1-0.4,2-0.6,2.9
			c-0.5,2.3-1,4.5-1,7c0,1.1,0,2.2,0,3.3l-0.3,46l-0.5,0.2C39.2,94.8,35.5,96.4,29.6,96.4z"/>
		<g>
			<path class="st2" d="M21.3,18.3V92c8.7,2.4,15.6,0.1,15.6,0.1c0,0,0-73.7,0-73.7C34.3,18.6,24,18.6,21.3,18.3z"/>
		</g>
		<path class="st3" d="M21.3,40.4V92c8.7,2.4,15.6,0.1,15.6,0.1c0,0,0-31.6,0-51.6H21.3z"/>
		<path class="st4" d="M36.7,92c0,0-6.2,2.4-15.3-0.1V40.4c0,0,13.6,25.7,15.6,51.6"/>
	</g>
	<path class="st0" d="M29.1,17.2c-0.5,0-0.9,0-1.4,0c-6,0-10.8,0.5-10.8,1.1c0,0.6,4.8,1.1,10.8,1.1c0.5,0,1,0,1.4,0V17.2z"/>
	<g class="st6">
		<g class="st7">
			<rect x="13.7" y="11.4" class="st8" width="1.8" height="8.2"/>
			<rect x="16.3" y="11.4" class="st8" width="1.8" height="8.2"/>
			<rect x="18.9" y="11.4" class="st8" width="1.8" height="8.2"/>
			<rect x="21.5" y="11.4" class="st8" width="1.8" height="8.2"/>
			<rect x="24.1" y="11.4" class="st8" width="1.8" height="8.2"/>
			<rect x="26.7" y="11.4" class="st8" width="1.8" height="8.2"/>
		</g>
	</g>
	<path class="st0" d="M29.1,17.2c0.5,0,0.9,0,1.4,0c6,0,10.8,0.5,10.8,1.1c0,0.6-4.8,1.1-10.8,1.1c-0.5,0-1,0-1.4,0V17.2z"/>
	<g>
		<polygon class="cap" points="29.1,9.8 26.7,9.8 12.9,9.8 12.9,21.3 26.7,21.3 29.1,21.3 45.4,21.3 45.4,9.8 		"/>
		<g class="st6">
			<g class="st7">
				<rect x="42.7" y="11.4" class="st8" width="1.8" height="8.2"/>
				<rect x="40.1" y="11.4" class="st8" width="1.8" height="8.2"/>
				<rect x="37.5" y="11.4" class="st8" width="1.8" height="8.2"/>
				<rect x="34.9" y="11.4" class="st8" width="1.8" height="8.2"/>
				<rect x="32.3" y="11.4" class="st8" width="1.8" height="8.2"/>
				<rect x="29.7" y="11.4" class="st8" width="1.8" height="8.2"/>
			</g>
		</g>
		<g class="st6">
			<g class="st7">
				<rect x="27" y="11.4" class="st8" width="1.8" height="8.2"/>
				<rect x="24.4" y="11.4" class="st8" width="1.8" height="8.2"/>
				<rect x="21.8" y="11.4" class="st8" width="1.8" height="8.2"/>
				<rect x="19.2" y="11.4" class="st8" width="1.8" height="8.2"/>
				<rect x="16.6" y="11.4" class="st8" width="1.8" height="8.2"/>
				<rect x="14" y="11.4" class="st8" width="1.8" height="8.2"/>
			</g>
		</g>
	</g>
</g>
</svg>
