<?xml version="1.0" encoding="UTF-8" standalone="no"?>
<!-- Created with Inkscape (http://www.inkscape.org/) -->

<svg
   xmlns:dc="http://purl.org/dc/elements/1.1/"
   xmlns:cc="http://creativecommons.org/ns#"
   xmlns:rdf="http://www.w3.org/1999/02/22-rdf-syntax-ns#"
   xmlns:svg="http://www.w3.org/2000/svg"
   xmlns="http://www.w3.org/2000/svg"
   xmlns:sodipodi="http://sodipodi.sourceforge.net/DTD/sodipodi-0.dtd"
   xmlns:inkscape="http://www.inkscape.org/namespaces/inkscape"
   width="400"
   height="350"
   viewBox="0 0 105.83333 92.604164"
   version="1.1"
   id="svg8"
   inkscape:version="0.92.2 (5c3e80d, 2017-08-06)"
   sodipodi:docname="stool-cup.svg">
  <defs
     id="defs2" />
  <sodipodi:namedview
     id="base"
     pagecolor="#ffffff"
     bordercolor="#666666"
     borderopacity="1.0"
     inkscape:pageopacity="0.0"
     inkscape:pageshadow="2"
     inkscape:zoom="1.4"
     inkscape:cx="100.90903"
     inkscape:cy="244.00107"
     inkscape:document-units="mm"
     inkscape:current-layer="layer1"
     showgrid="false"
     units="px"
     inkscape:window-width="1920"
     inkscape:window-height="1058"
     inkscape:window-x="-8"
     inkscape:window-y="203"
     inkscape:window-maximized="1" />
  <metadata
     id="metadata5">
    <rdf:RDF>
      <cc:Work
         rdf:about="">
        <dc:format>image/svg+xml</dc:format>
        <dc:type
           rdf:resource="http://purl.org/dc/dcmitype/StillImage" />
        <dc:title />
      </cc:Work>
    </rdf:RDF>
  </metadata>
  <g
     inkscape:label="Layer 1"
     inkscape:groupmode="layer"
     id="layer1"
     transform="translate(0,-204.39583)">
    <path
       style="opacity:1;fill:#030000;fill-opacity:1;stroke:none;stroke-width:7;stroke-linecap:square;stroke-linejoin:miter;stroke-miterlimit:4;stroke-dasharray:none;stroke-dashoffset:0;stroke-opacity:1;paint-order:normal"
       d="M 5.2916666,208.93144 C 2.3600834,208.93144 0,211.29152 0,214.2231 v 8.46667 c 0,2.93158 2.3600834,5.29167 5.2916666,5.29167 H 100.54167 c 2.93158,0 5.29166,-2.36009 5.29166,-5.29167 v -8.46667 c 0,-2.93158 -2.36008,-5.29166 -5.29166,-5.29166 z m 6.0476924,2.68459 c 1.395993,0 2.519743,0.56199 2.519743,1.25987 v 11.14506 c 0,0.6979 -1.12375,1.25987 -2.519743,1.25987 -1.3959912,0 -2.5197425,-0.56199 -2.5197425,-1.25987 V 212.8759 c 0,-0.6979 1.1237513,-1.25988 2.5197425,-1.25987 z m 13.859103,0 c 1.395991,0 2.519743,0.56199 2.519743,1.25987 v 11.14506 c 0,0.6979 -1.123752,1.25987 -2.519743,1.25987 -1.395992,0 -2.519743,-0.56199 -2.519743,-1.25987 V 212.8759 c 0,-0.6979 1.123751,-1.25988 2.519743,-1.25987 z m 13.859102,0 c 1.395992,0 2.519743,0.56199 2.519743,1.25987 v 11.14506 c 0,0.6979 -1.123751,1.25987 -2.519743,1.25987 -1.39599,0 -2.519744,-0.56199 -2.519744,-1.25987 V 212.8759 c 0,-0.6979 1.123754,-1.25988 2.519744,-1.25987 z m 13.859102,0 c 1.395995,0 2.519743,0.56199 2.519743,1.25987 v 11.14506 c 0,0.6979 -1.123748,1.25987 -2.519743,1.25987 -1.395992,0 -2.519743,-0.56199 -2.519743,-1.25987 V 212.8759 c 0,-0.6979 1.123751,-1.25988 2.519743,-1.25987 z m 13.859102,0 c 1.395995,0 2.519744,0.56199 2.519744,1.25987 v 11.14506 c 0,0.6979 -1.123749,1.25987 -2.519744,1.25987 -1.395992,0 -2.519743,-0.56199 -2.519743,-1.25987 V 212.8759 c 0,-0.6979 1.123751,-1.25988 2.519743,-1.25987 z m 13.859103,0 c 1.395992,0 2.519743,0.56199 2.519743,1.25987 v 11.14506 c 0,0.6979 -1.123751,1.25987 -2.519743,1.25987 -0.348999,0 -0.681215,-0.0356 -0.982885,-0.0992 -0.150675,-0.0318 -0.293994,-0.0706 -0.427882,-0.11576 -0.06701,-0.0226 -0.131609,-0.0466 -0.193786,-0.0723 -0.559599,-0.23067 -0.915191,-0.58 -0.915191,-0.97255 V 212.8759 c 0,-0.17448 0.07023,-0.34063 0.197406,-0.49144 0.0318,-0.0377 0.06723,-0.0744 0.105936,-0.11007 0.154808,-0.14282 0.363138,-0.26905 0.611849,-0.37156 0.06218,-0.0256 0.126778,-0.0496 0.193786,-0.0724 h 5.3e-4 c 0.133892,-0.0451 0.27669,-0.084 0.427365,-0.11575 0.150831,-0.0318 0.309542,-0.0561 0.473872,-0.0729 0.164332,-0.0167 0.334512,-0.0258 0.509013,-0.0258 z m 13.859102,0 c 1.395981,0 2.519744,0.56199 2.519744,1.25987 v 11.14506 c 0,0.6979 -1.123763,1.25987 -2.519744,1.25987 -1.395989,0 -2.519743,-0.56199 -2.519743,-1.25987 V 212.8759 c 0,-0.6979 1.123754,-1.25988 2.519743,-1.25987 z"
       id="cap"
       inkscape:connector-curvature="0" />
    <path
       style="color:#000000;font-style:normal;font-variant:normal;font-weight:normal;font-stretch:normal;font-size:medium;line-height:normal;font-family:sans-serif;font-variant-ligatures:normal;font-variant-position:normal;font-variant-caps:normal;font-variant-numeric:normal;font-variant-alternates:normal;font-feature-settings:normal;text-indent:0;text-align:start;text-decoration:none;text-decoration-line:none;text-decoration-style:solid;text-decoration-color:#000000;letter-spacing:normal;word-spacing:normal;text-transform:none;writing-mode:lr-tb;direction:ltr;text-orientation:mixed;dominant-baseline:auto;baseline-shift:baseline;text-anchor:start;white-space:normal;shape-padding:0;clip-rule:nonzero;display:inline;overflow:visible;visibility:visible;opacity:1;isolation:auto;mix-blend-mode:normal;color-interpolation:sRGB;color-interpolation-filters:linearRGB;solid-color:#000000;solid-opacity:1;vector-effect:none;fill:#000000;fill-opacity:1;fill-rule:nonzero;stroke:none;stroke-width:7.09404707;stroke-linecap:square;stroke-linejoin:miter;stroke-miterlimit:4;stroke-dasharray:none;stroke-dashoffset:0;stroke-opacity:1;paint-order:normal;color-rendering:auto;image-rendering:auto;shape-rendering:auto;text-rendering:auto;enable-background:accumulate"
       d="m 5.9763794,229.30435 9.2371626,67.69564 h 75.406249 l 9.497089,-67.69564 h -7.087934 l -9.023739,60.24804 H 21.828125 l -9.283671,-60.24804 z"
       id="body"
       inkscape:connector-curvature="0"
       sodipodi:nodetypes="ccccccccc" />
    <path
       style="opacity:1;fill:#030000;fill-opacity:1;stroke:none;stroke-width:14.20818996;stroke-linecap:square;stroke-linejoin:miter;stroke-miterlimit:4;stroke-dasharray:none;stroke-dashoffset:0;stroke-opacity:1;paint-order:normal"
       d="m 40.057676,245.9353 h 25.547985 c 7.319376,0 13.211871,5.8925 13.211871,13.21187 v 8.35007 c 0,7.31938 -5.892495,13.21187 -13.211871,13.21187 H 40.057676 c -7.319376,0 -13.21187,-5.89249 -13.21187,-13.21187 v -8.35007 c 0,-7.31937 5.892494,-13.21187 13.21187,-13.21187 z"
       id="content" />
  </g>
</svg>
