<?xml version="1.0" encoding="utf-8"?>
<!-- Generator: Adobe Illustrator 22.0.1, SVG Export Plug-In . SVG Version: 6.00 Build 0)  -->
<svg version="1.1" id="Layer_1" xmlns="http://www.w3.org/2000/svg" xmlns:xlink="http://www.w3.org/1999/xlink" x="0px" y="0px"
	 viewBox="0 0 58.3 251.5" style="enable-background:new 0 0 58.3 251.5;" xml:space="preserve">
<style type="text/css">
	.st0{fill:#B5B5B5;}
	.st1{fill:#E5E5E5;}
	.st2{fill:#FFFFFF;}
	.st3{opacity:0.31;}
	.st4{opacity:0.7;}
	.st5{opacity:0.53;fill:#FFFFFF;enable-background:new    ;}
	.st6{fill:#606060;}
</style>
<g>
	<path class="st0" d="M15.5,52.4c0-0.6,0.1-1.3,0.2-2l0.2-1.5h26.5l0.2,1.5c0.1,0.7,0.2,1.4,0.2,2v172.5c0,6.9-5.7,12.6-12.6,12.6
		h-2.1c-6.9,0-12.6-5.7-12.6-12.6V52.4z"/>
	<g>
		<path class="st1" d="M28.3,232.5c-4.5,0-8.2-3.7-8.2-8.2V41.5c0-0.2,0-0.5,0-0.7h18.1c0,0.2,0,0.5,0,0.7v182.8
			c0,4.5-3.7,8.2-8.2,8.2H28.3z"/>
		<path class="st2" d="M37.5,41.4C37.5,41.4,37.5,41.5,37.5,41.4l0,182.8c0,4.1-3.4,7.5-7.5,7.5h-1.7c-4.1,0-7.5-3.4-7.5-7.5V41.5
			c0,0,0,0,0,0H37.5 M38.8,40.1H19.5c-0.1,0.5-0.1,0.9-0.1,1.4v182.8c0,4.9,4,8.9,8.9,8.9H30c4.9,0,8.9-4,8.9-8.9V41.5
			C38.9,41,38.8,40.5,38.8,40.1L38.8,40.1z"/>
	</g>
	<rect class="cap" x="14" y="14" transform="matrix(-1 -1.224647e-16 1.224647e-16 -1 58.25 67.3367)" width="30.2" height="39.3"/>
	<g class="st3">
		<g class="st4">
			<rect x="38.6" y="15.6" class="st5" width="4.1" height="36.2"/>
			<rect x="32.9" y="15.6" class="st5" width="4.1" height="36.2"/>
			<rect x="27.1" y="15.6" class="st5" width="4.1" height="36.2"/>
			<rect x="21.3" y="15.6" class="st5" width="4.1" height="36.2"/>
			<rect x="15.5" y="15.6" class="st5" width="4.1" height="36.2"/>
		</g>
	</g>
	<path class="st6" d="M31.4,163.1V53.2h-2.3h-2.3c0,0,0,109.9,0,109.9c-4.3,5.7-4.3,14.2-3.7,21c0.3,3.1,0.4,7,3.7,8.5
		c3.1,1.4,7-0.4,7.6-3.8C34.5,188.7,37.8,171.5,31.4,163.1z"/>
</g>
</svg>
