<?xml version="1.0" encoding="UTF-8" standalone="no"?>
<!-- Generator: Adobe Illustrator 22.0.1, SVG Export Plug-In . SVG Version: 6.00 Build 0)  -->

<svg
   xmlns:dc="http://purl.org/dc/elements/1.1/"
   xmlns:cc="http://creativecommons.org/ns#"
   xmlns:rdf="http://www.w3.org/1999/02/22-rdf-syntax-ns#"
   xmlns:svg="http://www.w3.org/2000/svg"
   xmlns="http://www.w3.org/2000/svg"
   xmlns:sodipodi="http://sodipodi.sourceforge.net/DTD/sodipodi-0.dtd"
   xmlns:inkscape="http://www.inkscape.org/namespaces/inkscape"
   version="1.1"
   id="Layer_1"
   x="0px"
   y="0px"
   viewBox="0 0 124.5 155.5"
   style="enable-background:new 0 0 124.5 155.5;"
   xml:space="preserve"
   sodipodi:docname="urine-stool.svg"
   inkscape:version="0.92.2 (5c3e80d, 2017-08-06)"><metadata
     id="metadata79"><rdf:RDF><cc:Work
         rdf:about=""><dc:format>image/svg+xml</dc:format><dc:type
           rdf:resource="http://purl.org/dc/dcmitype/StillImage" /></cc:Work></rdf:RDF></metadata><defs
     id="defs77" /><sodipodi:namedview
     pagecolor="#ffffff"
     bordercolor="#666666"
     borderopacity="1"
     objecttolerance="10"
     gridtolerance="10"
     guidetolerance="10"
     inkscape:pageopacity="0"
     inkscape:pageshadow="2"
     inkscape:window-width="1366"
     inkscape:window-height="706"
     id="namedview75"
     showgrid="false"
     inkscape:zoom="3.0353698"
     inkscape:cx="25.142701"
     inkscape:cy="100.2501"
     inkscape:window-x="1912"
     inkscape:window-y="304"
     inkscape:window-maximized="1"
     inkscape:current-layer="g72" /><style
     type="text/css"
     id="style2">
	.st0{fill:#B5B5B5;}
	.st1{fill:#E5E5E5;}
	.st2{fill:#F8B226;}
	.st3{opacity:0.33;fill:#FFFFFF;}
	.st4{fill:#FBDC23;}
	.st5{fill:#FFFFFF;}
	.st6{opacity:0.31;}
	.st7{opacity:0.7;}
	.st8{opacity:0.53;fill:#FFFFFF;enable-background:new    ;}
</style><g
     id="g72"><polyline
       class="st0"
       points="105.2,141.5 105.2,41.2 19.3,41.2 19.3,141.5  "
       id="polyline4" /><g
       id="g8"
       transform="translate(0,1.0000008)"><rect
         x="23"
         y="37.799999"
         class="st1"
         width="78.599998"
         height="98.5"
         id="rect6"
         style="fill:#e5e5e5" /></g><path
       class="st3"
       d="M31.3,125.5L31.3,125.5c-2.4,0-4.3-1.9-4.3-4.3V52.6c0-2.4,1.9-4.3,4.3-4.3h0c2.4,0,4.3,1.9,4.3,4.3v68.6   C35.6,123.6,33.7,125.5,31.3,125.5z"
       id="path12" /><g
       id="g18"><path
         class="st5"
         d="M100.8,38.5v98.8H23.7V38.5H100.8 M101.5,37.8H23V138h78.6V37.8L101.5,37.8z"
         id="path16" /></g><rect class="cap"
       x="11"
       y="15.4"
       width="102.5"
       height="26.6"
       id="rect20" /><g
       class="st6"
       id="g70"><g
         class="st7"
         id="g44"><rect
           x="13.8"
           y="18.1"
           class="st8"
           width="3.2"
           height="21.2"
           id="rect22" /><rect
           x="18.2"
           y="18.1"
           class="st8"
           width="3.2"
           height="21.2"
           id="rect24" /><rect
           x="22.7"
           y="18.1"
           class="st8"
           width="3.2"
           height="21.2"
           id="rect26" /><rect
           x="27.2"
           y="18.1"
           class="st8"
           width="3.2"
           height="21.2"
           id="rect28" /><rect
           x="31.6"
           y="18.1"
           class="st8"
           width="3.2"
           height="21.2"
           id="rect30" /><rect
           x="36.1"
           y="18.1"
           class="st8"
           width="3.2"
           height="21.2"
           id="rect32" /><rect
           x="40.6"
           y="18.1"
           class="st8"
           width="3.2"
           height="21.2"
           id="rect34" /><rect
           x="45.1"
           y="18.1"
           class="st8"
           width="3.2"
           height="21.2"
           id="rect36" /><rect
           x="49.5"
           y="18.1"
           class="st8"
           width="3.2"
           height="21.2"
           id="rect38" /><rect
           x="54"
           y="18.1"
           class="st8"
           width="3.2"
           height="21.2"
           id="rect40" /><rect
           x="58.5"
           y="18.1"
           class="st8"
           width="3.2"
           height="21.2"
           id="rect42" /></g><g
         class="st7"
         id="g68"><rect
           x="62.9"
           y="18.1"
           class="st8"
           width="3.2"
           height="21.2"
           id="rect46" /><rect
           x="67.3"
           y="18.1"
           class="st8"
           width="3.2"
           height="21.2"
           id="rect48" /><rect
           x="71.8"
           y="18.1"
           class="st8"
           width="3.2"
           height="21.2"
           id="rect50" /><rect
           x="76.3"
           y="18.1"
           class="st8"
           width="3.2"
           height="21.2"
           id="rect52" /><rect
           x="80.7"
           y="18.1"
           class="st8"
           width="3.2"
           height="21.2"
           id="rect54" /><rect
           x="85.2"
           y="18.1"
           class="st8"
           width="3.2"
           height="21.2"
           id="rect56" /><rect
           x="89.7"
           y="18.1"
           class="st8"
           width="3.2"
           height="21.2"
           id="rect58" /><rect
           x="94.2"
           y="18.1"
           class="st8"
           width="3.2"
           height="21.2"
           id="rect60" /><rect
           x="98.6"
           y="18.1"
           class="st8"
           width="3.2"
           height="21.2"
           id="rect62" /><rect
           x="103.1"
           y="18.1"
           class="st8"
           width="3.2"
           height="21.2"
           id="rect64" /><rect
           x="107.6"
           y="18.1"
           class="st8"
           width="3.2"
           height="21.2"
           id="rect66" /></g></g></g></svg>