<?xml version="1.0" encoding="UTF-8" standalone="no"?>
<svg
   xmlns:dc="http://purl.org/dc/elements/1.1/"
   xmlns:cc="http://creativecommons.org/ns#"
   xmlns:rdf="http://www.w3.org/1999/02/22-rdf-syntax-ns#"
   xmlns:svg="http://www.w3.org/2000/svg"
   xmlns="http://www.w3.org/2000/svg"
   id="svg866"
   version="1.1"
   viewBox="0 0 512 512"
   height="512mm"
   width="512mm">
  <defs
     id="defs860" />
  <metadata
     id="metadata863">
    <rdf:RDF>
      <cc:Work
         rdf:about="">
        <dc:format>image/svg+xml</dc:format>
        <dc:type
           rdf:resource="http://purl.org/dc/dcmitype/StillImage" />
        <dc:title></dc:title>
      </cc:Work>
    </rdf:RDF>
  </metadata>
  <g
     transform="translate(0,215)"
     id="layer1">
    <g
       transform="matrix(0.26458333,0,0,0.26458333,29.78452,69.00631)"
       id="g1498">
      <path
         id="path2"
         transform="translate(-112.57142,-1073.4097)"
         d="M 966.61523 0 A 181.41733 181.42144 0 0 0 897.77734 13.953125 L 251.50781 283.24219 L 172.10938 316.32031 A 181.41733 181.42144 0 0 0 157.68359 323.20117 A 181.41733 181.42144 0 0 0 149.83789 327.69727 A 181.41733 181.42144 0 0 0 142.11523 332.37695 A 181.41733 181.42144 0 0 0 134.62305 337.73633 A 181.41733 181.42144 0 0 0 127.51562 343.08203 A 181.41733 181.42144 0 0 0 120.70117 349.06836 A 181.41733 181.42144 0 0 0 113.96094 355.2832 A 181.41733 181.42144 0 0 0 107.90039 361.79492 A 181.41733 181.42144 0 0 0 101.81055 368.66016 A 181.41733 181.42144 0 0 0 96.400391 375.77734 A 181.41733 181.42144 0 0 0 90.988281 383.24805 A 181.41733 181.42144 0 0 0 86.332031 390.85742 A 181.41733 181.42144 0 0 0 81.732422 398.77148 A 181.41733 181.42144 0 0 0 77.767578 406.98047 A 181.41733 181.42144 0 0 0 74.054688 415.17383 A 181.41733 181.42144 0 0 0 70.955078 423.64258 A 181.41733 181.42144 0 0 0 68.023438 432.31641 A 181.41733 181.42144 0 0 0 65.802734 441.02734 A 181.41733 181.42144 0 0 0 63.765625 449.90625 A 181.41733 181.42144 0 0 0 62.40625 458.86133 A 181.41733 181.42144 0 0 0 61.269531 467.83789 A 181.41733 181.42144 0 0 0 60.472656 483.79102 C 60.472656 495.10673 60.601435 506.35461 60.796875 517.56445 C 60.884175 522.79339 61.024824 527.98425 61.152344 533.18359 C 61.279754 538.16578 61.414498 543.14272 61.580078 548.10352 C 87.094178 1344.0709 582.63574 1789.9169 897.78516 1921.2109 A 181.41733 181.42144 0 0 0 967.55273 1935.1172 L 967.55273 1686.8965 L 967.30859 1687.0215 C 613.03469 1510.5551 315.35274 1096.2328 302.80469 523.91992 L 967.55273 246.92969 L 967.55273 0.044921875 A 181.41733 181.42144 0 0 0 966.61523 0 z M 968.50195 0 A 181.41733 181.42144 0 0 0 967.56641 0.044921875 L 967.56641 246.92969 L 1632.3125 523.91992 C 1619.7645 1096.2329 1322.0848 1510.5551 967.81055 1687.0215 L 967.56641 1686.8965 L 967.56641 1935.1172 A 181.41733 181.42144 0 0 0 1037.332 1921.2109 C 1352.4813 1789.9171 1848.025 1344.0709 1873.5391 548.10352 C 1873.7045 543.14271 1873.8395 538.16578 1873.9668 533.18359 C 1874.0944 527.98425 1874.2333 522.79339 1874.3203 517.56445 C 1874.5161 506.35458 1874.6465 495.10673 1874.6465 483.79102 A 181.41733 181.42144 0 0 0 1873.8477 467.83789 A 181.41733 181.42144 0 0 0 1872.7129 458.86133 A 181.41733 181.42144 0 0 0 1871.3535 449.90625 A 181.41733 181.42144 0 0 0 1869.3164 441.02734 A 181.41733 181.42144 0 0 0 1867.0938 432.31641 A 181.41733 181.42144 0 0 0 1864.1641 423.64258 A 181.41733 181.42144 0 0 0 1861.0625 415.17383 A 181.41733 181.42144 0 0 0 1857.3496 406.98047 A 181.41733 181.42144 0 0 0 1853.3867 398.77148 A 181.41733 181.42144 0 0 0 1848.7871 390.85742 A 181.41733 181.42144 0 0 0 1844.1289 383.24805 A 181.41733 181.42144 0 0 0 1838.7188 375.77734 A 181.41733 181.42144 0 0 0 1833.3066 368.66016 A 181.41733 181.42144 0 0 0 1827.2168 361.79492 A 181.41733 181.42144 0 0 0 1821.1562 355.2832 A 181.41733 181.42144 0 0 0 1814.418 349.06836 A 181.41733 181.42144 0 0 0 1807.6035 343.08203 A 181.41733 181.42144 0 0 0 1800.4941 337.73633 A 181.41733 181.42144 0 0 0 1793.002 332.37695 A 181.41733 181.42144 0 0 0 1785.2812 327.69727 A 181.41733 181.42144 0 0 0 1777.4336 323.20117 A 181.41733 181.42144 0 0 0 1763.0098 316.32031 L 1763 316.32031 L 1683.6074 283.24219 L 1037.3379 13.953125 A 181.41733 181.42144 0 0 0 968.50391 0 L 968.50195 0 z M 967.55859 498.89844 C 758.82201 498.89844 589.60547 668.11152 589.60547 876.84961 C 589.60547 1085.5877 758.82201 1254.8027 967.55859 1254.8027 C 1176.2951 1254.8027 1345.5117 1085.5862 1345.5117 876.84961 C 1345.5117 668.11302 1176.2967 498.89844 967.55859 498.89844 z M 965.0293 596.43555 C 1037.0066 595.73083 1109.7693 622.49275 1165.8438 678.56641 C 1265.5868 778.30934 1272.5239 930.75979 1197.3555 1037.6777 L 806.73047 647.05469 C 853.53912 614.14655 909.04698 596.98366 965.0293 596.43555 z M 737.76172 716.02344 L 1128.3867 1106.6465 C 1021.3972 1181.8652 868.96152 1174.8229 769.27344 1075.1348 C 669.53047 975.39183 662.59334 822.94139 737.76172 716.02344 z "
         style="stroke-width:3.77957058" />
    </g>
  </g>
</svg>
