<?xml version="1.0" encoding="UTF-8" standalone="no"?>
<!-- Generator: Adobe Illustrator 19.0.0, SVG Export Plug-In . SVG Version: 6.00 Build 0)  -->

<svg
   xmlns:dc="http://purl.org/dc/elements/1.1/"
   xmlns:cc="http://creativecommons.org/ns#"
   xmlns:rdf="http://www.w3.org/1999/02/22-rdf-syntax-ns#"
   xmlns:svg="http://www.w3.org/2000/svg"
   xmlns="http://www.w3.org/2000/svg"
   xmlns:sodipodi="http://sodipodi.sourceforge.net/DTD/sodipodi-0.dtd"
   xmlns:inkscape="http://www.inkscape.org/namespaces/inkscape"
   version="1.1"
   id="Layer_1"
   x="0px"
   y="0px"
   viewBox="0 0 1500 1500"
   xml:space="preserve"
   sodipodi:docname="allergy-nose.svg"
   inkscape:version="0.92.2 (5c3e80d, 2017-08-06)"
   inkscape:export-filename="C:\Users\mpoladian\Pictures\ehope\patient_card_vectors\allergy\allergy-nose.png"
   inkscape:export-xdpi="64.949997"
   inkscape:export-ydpi="64.949997"
   width="1500"
   height="1500"><metadata
     id="metadata3867"><rdf:RDF><cc:Work
         rdf:about=""><dc:format>image/svg+xml</dc:format><dc:type
           rdf:resource="http://purl.org/dc/dcmitype/StillImage" /><dc:title></dc:title></cc:Work></rdf:RDF></metadata><defs
     id="defs3865" /><sodipodi:namedview
     pagecolor="#ffffff"
     bordercolor="#666666"
     borderopacity="1"
     objecttolerance="10"
     gridtolerance="10"
     guidetolerance="10"
     inkscape:pageopacity="0"
     inkscape:pageshadow="2"
     inkscape:window-width="1920"
     inkscape:window-height="1058"
     id="namedview3863"
     showgrid="false"
     inkscape:zoom="0.32720971"
     inkscape:cx="1015.7923"
     inkscape:cy="874.23414"
     inkscape:window-x="-8"
     inkscape:window-y="-8"
     inkscape:window-maximized="1"
     inkscape:current-layer="XMLID_1_" /><g
     id="XMLID_1_"
     transform="translate(0,57.5)"><path
       d="m 175.27547,112.39836 c -36.5,-1 -26.70078,31.7 -31.30078,53.5 -23.1,-6.8 -47.000784,-28.39961 -64.300785,1.90039 -17.499999,30.8 14.400391,39.39883 30.400395,54.79883 -19.200004,11.3 -45.698832,20.00156 -33.298832,48.10156 15.7,35.5 42.798442,13.99922 68.898442,5.19922 -0.7,25.8 -2.69844,55.29922 30.60156,54.69922 31.4,-0.6 30.1,-28.59883 30.5,-56.29883 22.1,12 45.9,28.49883 62.5,2.79883 16.7,-26.4 -5.90078,-42.59922 -30.30078,-55.69922 21,-14 48.90039,-23 32.90039,-52.5 -17.1,-31.6 -42.00039,-10.1 -64.40039,-3 -2.2,-25.2 7.8e-4,-52.7 -32.19922,-53.5 z m 1191.42373,99.30086 c -34.9,0.8 -24.7,31.60117 -29,53.20117 -21.2,-2.7 -44.5,-27.80039 -62,-0.40039 -18.7,29.4 10.2008,42.4 28.3008,57.5 -17.3,12.9 -44.5004,19.20078 -32.9004,46.80078 16.2,38.5 43.8012,14.19844 69.2012,6.89844 -1.4,24.9 -3.1008,52.90117 28.1992,54.20117 34.4,1.4 31.4996,-28.80078 32.5996,-54.30078 21.5,6.3 46.0008,29.29961 61.8008,2.09961 16.6,-28.6 -13.2008,-41.6 -33.3008,-57 21.1,-13 47.8008,-23.09883 33.3008,-52.29883 -16.2,-32.5 -40.5004,-9.09961 -62.9004,-3.09961 -4.4,-23 1.9992,-54.30156 -33.3008,-53.60156 z m -351.5109,735.15719 c -7.3698,-0.0747 -15.19294,3.29062 -21.60544,9.40625 -28.3,26.9 -54.29961,55.49964 -68.09961,93.09964 -14.1,38.2 -5.3,77.5996 25,105.5996 29.9,27.7 64.40035,34.6012 101.90035,17.7012 37,-16.7 55.8993,-46.0004 56.6993,-97.4004 -2.9,-48.3 -38.9,-87.79924 -80,-123.19926 -4.0219,-3.49375 -8.852,-5.15589 -13.8946,-5.20703 z m -534.1477,3.45204 c -6.41126,-0.15103 -12.86836,2.44882 -18.81836,7.81445 -30.5,27.39998 -57.60117,57.8004 -71.70117,96.9004 -22.6,62.6 24.20156,129.9996 89.10156,130.0996 62.7,0.2 109.09922,-57.0988 95.19922,-118.2988 -10.7,-47 -42.00078,-80.00122 -77.30078,-109.7012 -5.20313,-4.40625 -10.82347,-6.6812 -16.48047,-6.81445 z m 256.76604,257.53925 c -7.39907,0.1017 -14.58867,3.8281 -20.60742,9.4531 -30.6,28.7 -58,60.3988 -71,101.2988 -19.1,60.1 28.10156,123.7004 91.10156,123.9004 62.3,0.2 106.69883,-55.1996 93.79883,-116.5996 C 821.09961,1278.4004 788.7,1246.2 755,1215 c -5.55625,-5.1188 -11.43853,-7.2315 -17.19336,-7.1523 z"
       id="XMLID_40_"
       inkscape:connector-curvature="0"
       sodipodi:nodetypes="ccccccccccccccccccccccccccsccccccscccccccccccccc"
       style="fill:#000000;fill-opacity:1" /><path
       style="fill:#000000;fill-opacity:1;stroke-width:16.60833359"
       d="m 253.41638,713.13692 c -59.0267,-75.0405 -30.2882,-227.39008 51.1115,-270.95398 C 377.58596,403.0837 480.2656,185.80032 510.22479,6.9030233 c 7.89943,-47.1705893 18.30662,-62.2812893 42.89403,-62.2812893 46.26841,0 42.9485,87.473411 -9.21826,242.875436 -49.27663,146.79287 -73.68558,188.95445 -167.07665,288.59109 -38.52903,41.1056 -75.04793,91.42918 -81.15343,111.82971 -15.7363,52.58312 49.206,112.47621 137.21808,126.5499 46.72622,7.4719 92.03428,31.05251 136.02103,70.79167 112.55686,101.68848 253.64881,105.53187 355.02127,9.67139 65.59796,-62.03123 112.84114,-86.32589 167.86924,-86.32589 24.1911,0 61.85,-18.4823 85.1651,-41.79726 53.0906,-53.09105 43.0812,-90.9266 -50.4563,-190.71952 -93.391,-99.63664 -117.8002,-141.79822 -167.07693,-288.59109 -52.16663,-155.402025 -55.48665,-242.875436 -9.21811,-242.875436 24.58756,0 34.99456,15.1107 42.89399,62.2812893 C 1023.0669,185.80032 1125.747,403.0837 1198.8047,442.18294 c 46.3194,24.78949 84.3283,102.91138 84.3283,173.32533 0,83.91496 -56.601,142.27062 -156.005,160.84132 -55.3257,10.3359 -100.9305,33.49302 -145.81001,74.03871 -35.91758,32.44948 -84.08495,66.13928 -107.03874,74.86607 C 817.537,946.82801 685.43255,945.25301 619.34589,922.21518 328.43728,710.69519 527.80024,882.63383 253.41638,713.13692 Z"
       id="path827"
       inkscape:connector-curvature="0"
       sodipodi:nodetypes="ccsscscccsscscsscsccccc" /></g></svg>