<?xml version="1.0" encoding="UTF-8" standalone="no"?>
<svg
   xmlns:dc="http://purl.org/dc/elements/1.1/"
   xmlns:cc="http://creativecommons.org/ns#"
   xmlns:rdf="http://www.w3.org/1999/02/22-rdf-syntax-ns#"
   xmlns:svg="http://www.w3.org/2000/svg"
   xmlns="http://www.w3.org/2000/svg"
   height="960"
   width="850"
   id="svg4"
   version="1.1"
   viewBox="0 0 850 960">
  <metadata
     id="metadata10">
    <rdf:RDF>
      <cc:Work
         rdf:about="">
        <dc:format>image/svg+xml</dc:format>
        <dc:type
           rdf:resource="http://purl.org/dc/dcmitype/StillImage" />
        <dc:title></dc:title>
      </cc:Work>
    </rdf:RDF>
  </metadata>
  <defs
     id="defs8" />
  <path
     id="path2"
     d="M 379.87792,1.806566e-7 C 373.43258,1.806566e-7 367.98123,4.7322302 367.12982,11.06663 l -17.143,127.50605 c -1.02824,7.64452 4.9768,14.43576 12.74615,14.43576 h 63.60292 l -24.68018,103.31389 c -1.9268,8.06636 4.29449,15.69138 12.51017,15.69138 4.47409,0 8.77308,-2.32408 11.13175,-6.3639 l 94.29042,-161.50534 c 4.95309,-8.48288 -1.2268,-19.14044 -11.12977,-19.14044 H 446.62511 L 465.17408,16.03646 C 467.34949,7.9462002 461.19078,1.8065659e-7 452.74845,1.8065659e-7 Z M 531.92715,203.05199 c -8.44234,0 -14.60103,7.94621 -12.42563,16.03647 l 18.54897,68.96758 h -61.83513 c -9.90297,0 -16.0809,10.65561 -11.12781,19.13849 L 559.376,468.70181 c 2.35867,4.03982 6.65964,6.3639 11.13371,6.3639 8.21569,0 14.43502,-7.62502 12.50822,-15.69137 L 558.33972,356.05849 h 63.60095 c 7.76934,0 13.77635,-6.79123 12.74811,-14.43575 L 617.54382,214.11668 c -0.85142,-6.33441 -6.3008,-11.06469 -12.74615,-11.06469 z m -302.10256,35.76572 c -6.44533,0 -11.8967,4.73224 -12.74811,11.06664 l -17.143,127.50607 c -1.02823,7.64452 4.9768,14.43574 12.74615,14.43574 h 63.60292 l -24.68018,103.3139 c -1.92679,8.06636 4.2945,15.69138 12.51018,15.69138 4.47408,0 8.77307,-2.32408 11.13174,-6.3639 L 369.53471,342.9622 c 4.9531,-8.48288 -1.2268,-19.14043 -11.12977,-19.14043 h -61.83317 l 18.54896,-68.96757 c 2.17542,-8.09027 -3.98329,-16.03649 -12.42561,-16.03649 z M 93.943804,368.32827 c -30.380963,-0.2416 -58.463565,19.26732 -62.729845,46.69002 -3.02631,19.17089 -4.20317,38.67643 -6.05255,58.01402 -7.73388,81.18456 -13.61814,162.8682 -24.21019953,243.71934 -4.20315997,32.00705 5.37982003,51.34578 31.60776953,66.34908 43.774128,25.03199 95.672651,35.57922 128.712091,73.54552 2.20336,2.53194 2.08437,7.73577 2.08437,10.78588 v 36.98041 c 0,26.46382 21.63597,47.9164 48.32603,47.9164 h 44.92417 c 0.0236,8.44026 0.0906,11.87289 0.234,0 h 290.86268 c 14.1798,0.0161 28.36391,0.0275 42.53893,0.0487 10e-5,-0.024 -1e-4,-0.0247 0,-0.0487 h 0.78852 c 0.076,7.39644 0.0752,6.41581 0.0138,0 h 39.46348 c 26.69006,0 48.32603,-21.45258 48.32603,-47.9164 v -36.98041 c -0.39503,-2.0111 0.15968,-5.66166 1.37844,-6.63492 23.92939,-34.66122 89.74722,-51.12888 135.32113,-77.69648 19.83915,-11.66924 36.3173,-26.84153 34.29976,-52.84726 -1.51316,-21.17133 -3.86589,-42.34286 -6.21969,-63.51418 -9.07893,-81.01785 -18.83203,-162.03567 -27.23845,-243.2202 -3.53069,-35.50783 -25.89299,-55.67925 -63.89001,-54.17892 -36.48389,1.50032 -58.33894,23.17594 -54.97636,58.51705 6.22074,65.34771 12.4432,130.85782 22.5309,195.70545 12.9459,83.0183 13.27895,80.68683 -61.5382,122.69609 -17.95894,10.05445 -31.75896,14.50792 -56.16013,20.34731 -24.20361,3.45315 -45.67651,-6.62887 -68.51497,-9.94358 -75.4319,53.79614 -166.86514,41.79109 -225.46247,0 -22.7903,3.75449 -42.51535,11.97586 -68.37142,11.26355 -44.24872,-6.88164 -66.77379,-32.05898 -101.84922,-49.50738 -17.1491,-8.66857 -18.66206,-19.83824 -16.14014,-35.84177 4.20325,-26.50584 7.06323,-53.17838 10.08955,-79.85092 6.22067,-55.17881 11.09531,-110.68904 18.66105,-165.70115 5.04393,-35.84124 -9.24841,-60.51447 -43.71484,-67.34929 -4.37129,-0.87521 -8.753915,-1.31275 -13.094196,-1.34726 z m 327.150456,72.89236 c -88.96621,0 -161.08676,71.50924 -161.08676,159.72135 0,88.21209 72.12055,159.72134 161.08676,159.72134 88.9662,0 161.08675,-71.50925 161.08675,-159.72134 0,-88.21211 -72.12055,-159.72135 -161.08675,-159.72135 z"
     style="fill:#000000;fill-opacity:1;stroke-width:1.00251615" />
</svg>
