<?xml version="1.0" encoding="UTF-8" standalone="no"?>
<svg
   xmlns:dc="http://purl.org/dc/elements/1.1/"
   xmlns:cc="http://creativecommons.org/ns#"
   xmlns:rdf="http://www.w3.org/1999/02/22-rdf-syntax-ns#"
   xmlns:svg="http://www.w3.org/2000/svg"
   xmlns="http://www.w3.org/2000/svg"
   xml:space="preserve"
   width="180"
   viewBox="0 0 180 300"
   version="1.1"
   id="Layer_1"
   height="300"><metadata
     id="metadata49"><rdf:RDF><cc:Work
         rdf:about=""><dc:format>image/svg+xml</dc:format><dc:type
           rdf:resource="http://purl.org/dc/dcmitype/StillImage" /><dc:title></dc:title></cc:Work></rdf:RDF></metadata><defs
     id="defs47" /><style
     id="style2"
     type="text/css"><![CDATA[
	.st0{fill:#319997;}
	.st1{fill-rule:evenodd;clip-rule:evenodd;fill:#319997;}
]]></style><g
     transform="translate(0,-212)"
     id="g42"><path
       id="path6"
       d="M 49.992679,212 C 22.389672,212 0,231.13544 0,254.73937 v 92.42636 c 0,0.46737 0.063127,0.91406 0.087874,1.38239 C 0.049629,349.44631 0,350.35424 0,351.26781 v 24.05088 c 0,35.65352 28.378228,65.63348 66.874405,74.35957 v -1.17202 c 0,-7.49037 6.477116,-13.71685 14.897839,-14.79679 v -25.57789 c 0,-1.94062 0.918541,-3.70515 2.410109,-4.97358 1.490443,-1.27419 3.553295,-2.06418 5.817643,-2.06418 2.2756,0 4.333806,0.78999 5.82425,2.06418 1.48482,1.26843 2.4079,3.03296 2.4079,4.97358 v 25.57225 c 8.420724,1.08092 14.913224,7.30725 14.913224,14.80243 v 1.16638 C 151.62243,440.94653 180,410.96562 180,375.31306 v -24.04525 c 0,-0.92511 -0.0433,-1.83382 -0.0747,-2.7272 0.0124,-0.46158 0.0747,-0.90655 0.0747,-1.37488 v -92.42636 h -0.0154 C 179.98459,231.12966 157.59492,212 129.99192,212 Z M 30.608572,251.8882 H 149.3431 V 368.35982 H 30.608572 Z m 99.717308,138.38317 h 8.11352 c 5.53432,0 9.99854,3.84412 9.99854,8.55914 -0.001,4.71022 -4.4766,8.54413 -9.99854,8.54413 h -8.11352 c -5.53432,0 -10.00073,-3.83391 -10.00073,-8.54413 0,-4.71502 4.48441,-8.55914 10.00073,-8.55914 z m -40.328077,14.88318 c -2.453326,0 -4.453309,2.02558 -4.453309,4.5153 v 28.1586 h -1.192973 c -6.905533,0 -12.503103,4.76935 -12.503109,10.67779 l -5.1e-5,52.8141 C 71.848355,507.21337 77.445937,512 84.35147,512 h 11.244231 c 6.893159,0 12.489929,-4.781 12.489939,-10.67404 l 5e-5,-52.81972 c -0.001,-5.90363 -5.59678,-10.67779 -12.489938,-10.67779 h -1.144638 v -28.1586 c 0,-2.48972 -1.99436,-4.5153 -4.453311,-4.5153 z"
       style="fill:#000000;fill-opacity:1;stroke-width:1.04006481" /><path
       style="fill:#000000;fill-opacity:1;stroke-width:0.168457"
       d="m 90,352 c -16.58206,0 -30,-13.41794 -30,-30 0,-18.73175 17.04684,-25.95333 25.01957,-52.52909 1.53364,-5.07326 8.60798,-4.84787 9.96086,0 C 102.98989,296.16898 120,303.17391 120,322 c 0,16.58206 -13.41792,30 -30,30 z"
       id="path928" /></g></svg>