<?xml version="1.0" encoding="UTF-8" standalone="no"?>
<!-- Generator: Adobe Illustrator 19.0.0, SVG Export Plug-In . SVG Version: 6.00 Build 0)  -->

<svg
   xmlns:dc="http://purl.org/dc/elements/1.1/"
   xmlns:cc="http://creativecommons.org/ns#"
   xmlns:rdf="http://www.w3.org/1999/02/22-rdf-syntax-ns#"
   xmlns:svg="http://www.w3.org/2000/svg"
   xmlns="http://www.w3.org/2000/svg"
   xmlns:sodipodi="http://sodipodi.sourceforge.net/DTD/sodipodi-0.dtd"
   xmlns:inkscape="http://www.inkscape.org/namespaces/inkscape"
   version="1.1"
   id="Layer_1"
   x="0px"
   y="0px"
   viewBox="0 0 499.99999 500.00001"
   xml:space="preserve"
   sodipodi:docname="difficulty-finding-veins-2.svg"
   inkscape:version="0.92.2 (5c3e80d, 2017-08-06)"
   width="500"
   height="500"
   inkscape:export-filename="C:\Users\mpoladian\Pictures\ehope\patient_card_vectors\difficulty_finding_veins\DifficultyFindingVeins-veinInsideGlass.png"
   inkscape:export-xdpi="64.949997"
   inkscape:export-ydpi="64.949997"><metadata
     id="metadata250"><rdf:RDF><cc:Work
         rdf:about=""><dc:format>image/svg+xml</dc:format><dc:type
           rdf:resource="http://purl.org/dc/dcmitype/StillImage" /><dc:title /></cc:Work></rdf:RDF></metadata><defs
     id="defs248" /><sodipodi:namedview
     pagecolor="#ffffff"
     bordercolor="#666666"
     borderopacity="1"
     objecttolerance="10"
     gridtolerance="10"
     guidetolerance="10"
     inkscape:pageopacity="0"
     inkscape:pageshadow="2"
     inkscape:window-width="1920"
     inkscape:window-height="1058"
     id="namedview246"
     showgrid="false"
     inkscape:zoom="0.889"
     inkscape:cx="383.80957"
     inkscape:cy="192.62146"
     inkscape:window-x="-8"
     inkscape:window-y="-8"
     inkscape:window-maximized="1"
     inkscape:current-layer="Layer_1" /><style
     type="text/css"
     id="style241">
	.st0{fill:#010201;}
</style><path
     style="color:#000000;font-style:normal;font-variant:normal;font-weight:normal;font-stretch:normal;font-size:medium;line-height:normal;font-family:sans-serif;font-variant-ligatures:normal;font-variant-position:normal;font-variant-caps:normal;font-variant-numeric:normal;font-variant-alternates:normal;font-feature-settings:normal;text-indent:0;text-align:start;text-decoration:none;text-decoration-line:none;text-decoration-style:solid;text-decoration-color:#000000;letter-spacing:normal;word-spacing:normal;text-transform:none;writing-mode:lr-tb;direction:ltr;text-orientation:mixed;dominant-baseline:auto;baseline-shift:baseline;text-anchor:start;white-space:normal;shape-padding:0;clip-rule:nonzero;display:inline;overflow:visible;visibility:visible;opacity:1;isolation:auto;mix-blend-mode:normal;color-interpolation:sRGB;color-interpolation-filters:linearRGB;solid-color:#000000;solid-opacity:1;vector-effect:none;fill:#000000;fill-opacity:1;fill-rule:nonzero;stroke:none;stroke-width:9.44706345;stroke-linecap:butt;stroke-linejoin:miter;stroke-miterlimit:4;stroke-dasharray:none;stroke-dashoffset:0;stroke-opacity:1;color-rendering:auto;image-rendering:auto;shape-rendering:auto;text-rendering:auto;enable-background:accumulate"
     d="M 183.73443,-3.9052325e-6 C 82.605832,-3.9052325e-6 0,82.853044 0,184.28149 c 0,101.42847 82.605832,184.27922 183.73443,184.27922 37.54486,0 72.53189,-11.42723 101.69182,-30.97739 l 10.17077,15.46129 158.00132,146.14218 c 6.4131,2.10507 20.28827,0.81864 33.34767,-12.27949 13.05941,-13.09812 14.34203,-27.01489 12.2432,-33.33006 L 349.58458,299.01346 334.62447,289.1483 C 355.30989,259.33952 367.47113,223.18072 367.47113,184.28149 367.47113,82.853044 284.86302,-3.9052325e-6 183.73443,-3.9052325e-6 Z m 0,58.4737829052325 c 69.62043,0 125.43578,55.980851 125.43578,125.807711 0,69.82689 -55.81535,125.80543 -125.43578,125.80543 -69.62045,0 -125.433504,-55.97854 -125.433516,-125.80543 0,-32.9162 12.405305,-62.75328 32.810214,-85.102178 L 98.18695,99.2821 h 0.0021 c 0.0032,0.0023 6.14e-4,0.0011 0.0043,0.0047 5.94081,4.61812 11.97284,9.35489 18.24865,13.9332 0.004,0.003 0.01,0.008 0.0136,0.0117 l 0.13893,0.11192 0.12753,0.0913 c 0.045,0.0319 0.0513,0.0231 0.0774,0.0343 -0.007,0.0279 -0.0192,0.0364 -0.0116,0.10288 l 0.002,0.002 c 0.64078,4.56442 1.03065,9.26877 1.42792,14.17303 1.35946,18.01185 -2.91214,35.18168 -9.99314,52.44595 l -0.007,0.016 c -0.002,0.006 -0.004,0.0119 -0.007,0.0183 l -0.002,0.004 c -0.0163,0.0401 -0.027,0.0765 -0.0432,0.11649 l -0.0205,0.0571 -0.002,0.002 c -12.261127,30.18064 -13.781546,52.43317 -4.59576,80.00403 l 3.0608,3.50157 c 5.60963,3.84887 6.89765,4.85783 10.17988,-1.79762 l 1.48941,-4.58424 c -0.33402,-5.31473 -0.4429,-8.99178 -0.88362,-12.93048 v -0.0137 l -0.002,-0.0205 c -1.41057,-13.50789 -1.05159,-25.50539 4.4819,-37.07602 l 0.002,-0.002 0.10704,-0.22384 0.0182,-0.0548 c 7.8245,-16.332 14.7678,-33.35974 19.30078,-51.39753 l 0.002,-0.0117 c 1.06148,-4.17781 1.95557,-8.44861 2.6167,-12.80713 4.46302,6.26778 8.70505,12.61337 12.34569,19.23696 0.002,0.004 0.007,0.01 0.01,0.0136 l 0.0297,0.0548 0.0117,0.0229 c 2.71389,4.84778 4.57426,8.1055 4.54566,10.95241 -0.11415,11.30152 -0.1743,22.43462 -0.89501,33.46481 -1.52168,23.21828 -4.38063,47.68314 2.22499,72.59885 l -0.0117,-0.0411 c 0.62995,2.46168 0.91639,9.50553 6.20814,15.81991 l 0.2414,0.2878 c 2.62149,3.21875 2.53938,4.01585 5.78682,5.02509 4.34539,-0.26595 4.92693,-3.22831 6.79115,-5.27178 l 0.51013,-4.37411 c 0.7279,-6.2437 0.51181,-11.65177 -0.12298,-17.00537 v -0.0136 l -0.01,-0.0982 -0.0117,-0.0868 c -1.30443,-10.15838 -0.96258,-20.8226 -0.74697,-31.84993 19.76241,6.94955 36.02815,16.55793 46.31962,34.78961 l -0.0297,-0.0594 0.0751,0.13018 c -0.0176,-0.031 0.0267,0.0522 0.0117,0.0252 l 0.10489,0.18272 -0.0547,-0.0731 c -0.22206,-0.36292 -0.0223,0.0617 0.33023,0.72179 0.41848,0.78318 1.07477,1.78618 2.04735,2.76381 1.30485,1.31154 3.11392,2.48389 5.72989,2.69755 2.46228,0.20109 4.54724,-0.62993 6.06467,-1.58291 l 0.0934,-0.0595 0.007,-0.007 0.0205,-0.0137 c 2.81662,-1.83837 4.86783,-4.60282 4.70507,-8.64317 -0.11217,-2.78197 -1.37473,-4.87782 -1.8629,-5.70804 l -0.016,-0.0344 -0.0751,-0.12563 -0.0136,-0.0252 c -5.79298,-9.92929 -12.34393,-20.19335 -22.42078,-28.40776 l -0.14805,-0.19185 -0.45548,-0.36318 c -11.38401,-9.051 -24.17089,-14.07021 -36.6362,-18.25683 l -0.28466,-0.13476 -0.19358,-0.0411 c -0.53697,-0.20599 -0.51773,-0.17263 -0.75838,-0.3015 0.59829,-11.63133 1.28467,-23.32018 1.91983,-35.02717 9.23008,4.48417 18.10529,9.15803 25.92114,15.1438 16.08662,12.3374 27.92657,29.38385 40.85163,46.75846 l 0.0205,0.0298 0.16624,0.22156 -0.0798,-0.0822 c 0.8847,1.26677 3.22715,7.1551 9.57638,10.13242 l 0.47826,0.22383 c 3.28666,0.74673 5.89568,2.85314 9.92254,2.11509 1.2245,-0.32229 1.79839,-2.73213 1.64882,-7.46453 l -0.45776,-0.9639 c -0.21004,-0.44295 -0.65817,-2.16118 -1.52129,-4.01095 -3.48379,-7.46805 -7.2403,-14.90876 -11.52354,-22.08298 l -0.002,-0.004 -0.098,-0.1622 -0.11158,-0.15988 c -17.29278,-28.92052 -41.99162,-49.88584 -71.52338,-64.59561 l -0.0888,-0.064 -0.33022,-0.16216 c -3.46912,-1.70047 -4.8725,-3.11687 -6.37894,-6.51206 -4.57705,-10.32768 -10.28569,-19.95806 -16.60894,-29.22547 28.0959,7.67487 50.35242,9.41053 73.05379,24.66177 l 13.84646,4.16854 c 5.36834,-1.90276 4.86617,-4.78709 3.74174,-7.77519 l -1.91301,-3.25031 c -3.19821,-5.43275 -7.55502,-8.81159 -11.25024,-11.35212 -20.74977,-14.80846 -44.35819,-21.42715 -66.58313,-27.7334 l -0.016,-0.009 -0.42358,-0.12106 c -10e-4,-4e-4 -0.003,4.1e-4 -0.004,0 -20.60304,-5.874568 -39.93948,-11.726347 -56.9397,-22.750386 -0.002,-0.0012 -0.004,-0.0034 -0.007,-0.0046 -0.74256,-0.493753 -1.09207,-0.777281 -1.40515,-1.046131 l -0.3416,-0.294649 c 19.30665,-12.133633 42.1917,-19.13864 66.80694,-19.13864 z m -22.65765,58.450941 0.041,0.057 c -0.0106,-0.0145 -0.0147,-0.0174 -0.0251,-0.0319 -0.006,-0.009 -0.0106,-0.0171 -0.016,-0.0252 z m 22.26366,102.97553 v 0.28323 l -0.0205,0.11192 0.0136,-0.28324 0.002,-0.0298 c 0.001,-0.0273 0.003,-0.0549 0.004,-0.0822 z"
     id="XMLID_15_"
     inkscape:connector-curvature="0"
     sodipodi:nodetypes="ssscccscccsscssscccccccccccccccccccccccccccccccccccccccccccccccccccccccccccccccccccccccccccccccccccccccccccccccccccccccccccccccccccccccccccc" /></svg>