<?xml version="1.0" encoding="UTF-8" standalone="no"?>
<svg
   xmlns:dc="http://purl.org/dc/elements/1.1/"
   xmlns:cc="http://creativecommons.org/ns#"
   xmlns:rdf="http://www.w3.org/1999/02/22-rdf-syntax-ns#"
   xmlns:svg="http://www.w3.org/2000/svg"
   xmlns="http://www.w3.org/2000/svg"
   xmlns:sodipodi="http://sodipodi.sourceforge.net/DTD/sodipodi-0.dtd"
   xmlns:inkscape="http://www.inkscape.org/namespaces/inkscape"
   id="svg2558"
   version="1.1"
   viewBox="0 0 132.29167 132.29167"
   height="500"
   width="500"
   sodipodi:docname="female-head.svg"
   inkscape:version="0.92.2 (5c3e80d, 2017-08-06)">
  <sodipodi:namedview
     pagecolor="#ffffff"
     bordercolor="#666666"
     borderopacity="1"
     objecttolerance="10"
     gridtolerance="10"
     guidetolerance="10"
     inkscape:pageopacity="0"
     inkscape:pageshadow="2"
     inkscape:window-width="1920"
     inkscape:window-height="1058"
     id="namedview3177"
     showgrid="false"
     units="px"
     inkscape:zoom="0.56000615"
     inkscape:cx="-65.328353"
     inkscape:cy="313.14018"
     inkscape:window-x="-8"
     inkscape:window-y="-8"
     inkscape:window-maximized="1"
     inkscape:current-layer="layer1" />
  <defs
     id="defs2552" />
  <metadata
     id="metadata2555">
    <rdf:RDF>
      <cc:Work
         rdf:about="">
        <dc:format>image/svg+xml</dc:format>
        <dc:type
           rdf:resource="http://purl.org/dc/dcmitype/StillImage" />
        <dc:title></dc:title>
      </cc:Work>
    </rdf:RDF>
  </metadata>
  <g
     id="layer1"
     transform="translate(0,-164.70834)">
    <path
       id="path3103"
       d="M 66.145834,164.70833 C 29.614397,164.70833 0,194.32273 0,230.85416 0,267.3856 29.614397,297 66.145834,297 c 36.531436,0 66.145836,-29.6144 66.145836,-66.14584 0,-36.53143 -29.6144,-66.14583 -66.145836,-66.14583 z m 1.675606,6.64426 c 4.632161,-5.3e-4 6.298186,0.35824 8.88576,1.28539 5.51026,1.97449 11.03811,5.33324 15.26174,10.44726 0.89573,1.20118 1.29275,1.4695 2.56976,3.47566 1.34384,2.04027 2.46722,4.1662 3.29437,6.31109 3.53957,8.94417 1.907562,12.20504 0.16618,20.7237 -0.612403,2.99581 -1.84671,6.30999 -2.19156,8.00308 -0.0644,0.54451 -0.14318,1.08496 -0.2365,1.6201 -0.38368,4.37573 -0.223555,8.43609 3.128745,10.89146 0.89152,0.65297 1.621145,1.31698 1.621145,1.4758 -3.781235,5.76515 -14.82031,11.43714 -20.68989,11.72635 -0.0422,2.7e-4 -0.0812,0.006 -0.11981,0.0125 -0.51491,0.9578 -0.69358,4.59268 0.31048,6.63563 4.0938,-1.55755 8.21345,-2.97785 11.60055,-5.88588 l 8.33186,1.31679 c 7.16694,1.7918 12.37464,7.83488 13.21239,15.03357 -10.45584,14.55688 -27.52998,24.03996 -46.820826,24.03996 -19.290846,0 -36.364984,-9.48308 -46.820827,-24.03996 0.837759,-7.19869 6.045703,-13.24177 13.212393,-15.03357 l 8.230828,-0.94633 c 3.535777,3.03557 7.943269,4.15547 12.24179,5.7165 0.202345,-0.68319 0.447101,-1.58572 0.64804,-2.51975 0.227915,-2.13396 -0.123002,-4.33467 -0.608971,-4.33467 -1.214587,0 -7.786437,-2.11732 -10.583248,-3.4095 -0.545735,-0.25215 -1.175142,-0.57212 -1.813887,-0.90746 -1.129933,-0.54163 -2.074362,-1.06021 -2.667691,-1.49716 -0.256661,-0.15663 -0.499299,-0.30759 -0.703778,-0.44331 -2.406108,-1.59708 -4.942459,-4.93164 -4.942459,-5.40623 0,-0.15882 0.729618,-0.82283 1.621141,-1.4758 2.758476,-2.02042 3.036656,-5.01484 3.308814,-8.45004 -0.259531,-2.16189 -0.432972,-4.44834 -0.984559,-6.90599 -0.418412,-1.55945 -0.991177,-3.33649 -1.456526,-4.99105 -2.490401,-8.85471 -2.300215,-12.72299 0.166178,-20.72422 0.849315,-2.20236 2.010108,-4.38508 3.402206,-6.47519 0.912153,-1.62732 2.422436,-3.45445 3.290203,-4.28258 4.104455,-4.6722 10.623383,-6.28114 15.780582,-8.12912 2.428742,-0.87023 2.113242,-2.37707 6.056358,-2.39315 1.965708,-0.41735 2.416111,-0.48371 4.299019,-0.46388 z"
       style="stroke-width:0.26671705"
       inkscape:connector-curvature="0"
       sodipodi:nodetypes="ssssscccccsccccccccccscccccsccccscccscccccc" />
  </g>
</svg>
