<?xml version="1.0" encoding="UTF-8" standalone="no"?>
<!-- Generator: Adobe Illustrator 19.0.0, SVG Export Plug-In . SVG Version: 6.00 Build 0)  -->

<svg
   xmlns:dc="http://purl.org/dc/elements/1.1/"
   xmlns:cc="http://creativecommons.org/ns#"
   xmlns:rdf="http://www.w3.org/1999/02/22-rdf-syntax-ns#"
   xmlns:svg="http://www.w3.org/2000/svg"
   xmlns="http://www.w3.org/2000/svg"
   xmlns:sodipodi="http://sodipodi.sourceforge.net/DTD/sodipodi-0.dtd"
   xmlns:inkscape="http://www.inkscape.org/namespaces/inkscape"
   version="1.1"
   id="Layer_1"
   inkscape:version="0.92.2 (5c3e80d, 2017-08-06)"
   sodipodi:docname="BloodSamplePhobia-tube.svg"
   x="0px"
   y="0px"
   viewBox="-14 185.6 582.1 423.4"
   xml:space="preserve"
   inkscape:export-filename="C:\Users\mpoladian\Pictures\ehope\patient_card_vectors\Blood_samples_phobia\BloodSamplePhobia-tube.png"
   inkscape:export-xdpi="64.949997"
   inkscape:export-ydpi="64.949997"
   width="500"
   height="372"><metadata
     id="metadata22"><rdf:RDF><cc:Work
         rdf:about=""><dc:format>image/svg+xml</dc:format><dc:type
           rdf:resource="http://purl.org/dc/dcmitype/StillImage" /><dc:title></dc:title></cc:Work></rdf:RDF></metadata><defs
     id="defs20" /><sodipodi:namedview
     id="namedview4056"
     inkscape:window-x="-8"
     inkscape:pageopacity="0"
     inkscape:window-width="1920"
     inkscape:current-layer="Layer_1"
     inkscape:window-maximized="1"
     inkscape:window-y="-8"
     inkscape:pageshadow="2"
     inkscape:window-height="1058"
     showgrid="false"
     objecttolerance="10"
     gridtolerance="10"
     bordercolor="#666666"
     guidetolerance="10"
     borderopacity="1"
     inkscape:cy="204.54972"
     inkscape:cx="329.7551"
     pagecolor="#ffffff"
     inkscape:zoom="1.4142136"
     units="px" /><path
     d="m 388.02316,180.76109 c -3.56288,0.005 -7.12016,0.0184 -10.67186,0.0439 h -14.30899 c -9.81188,0.10234 -13.59314,4.80808 -11.34458,14.11578 2.65737,11.14877 5.82579,22.19447 8.17656,33.44554 0.91987,4.50042 2.55358,5.93317 7.05069,5.93317 35.46586,-0.20456 71.03511,-0.20456 106.50097,0 4.19049,0.10234 5.8254,-1.53544 6.74527,-5.31989 2.35077,-10.43279 5.00854,-20.96708 7.56372,-31.39988 3.06621,-12.58073 -0.20481,-16.77472 -13.18511,-16.77472 h -54.37337 c -10.73174,0 -21.46468,-0.0583 -32.1533,-0.0439 z M 169.97274,209.85363 C 68.537728,209.85363 -14,292.45215 -14,393.9619 c 0,101.50975 82.537728,184.10828 183.97274,184.10828 101.43502,0 183.97274,-82.59853 183.97274,-184.10828 0,-101.50975 -82.53772,-184.10827 -183.97274,-184.10827 z m 0,28.73895 c 85.91401,0 155.25295,69.392 155.25295,155.36932 0,85.97734 -69.33894,155.36733 -155.25295,155.36733 -85.914038,0 -155.25295,-69.38999 -155.25295,-155.36733 0,-85.97732 69.338912,-155.36932 155.25295,-155.36932 z m 205.1288,15.24247 c -4.4971,-0.10233 -6.23462,0.81746 -6.13242,5.8293 0.30663,23.2181 0.20441,46.4358 0,69.65389 0,4.60271 1.02287,6.24082 5.92881,6.24082 30.25329,-0.20456 60.40358,-0.20456 90.65688,0 4.19049,0.10234 5.11036,-1.1267 5.11036,-5.21799 -0.20442,-23.62723 -0.30663,-47.35674 0,-71.08625 0.10222,-4.705 -1.53272,-5.42017 -5.72321,-5.31788 -15.02443,0.30684 -29.94667,0.10187 -44.97111,0.10187 -15.02443,0 -30.04927,0.20538 -44.86931,-0.20376 z m 151.5739,54.24162 c -0.17886,-0.0105 -0.35812,-0.009 -0.53699,0.003 -1.83973,0.10233 -3.67905,1.22818 -5.21216,2.8647 -9.40304,10.12597 -18.09065,20.55916 -24.01867,33.1399 -9.60745,20.45646 5.92802,45.00303 28.618,45.30988 20.64582,0.30685 37.611,-21.07055 31.47858,-40.29964 -5.00816,-15.44465 -15.73989,-27.4109 -26.57385,-39.07108 -1.25203,-1.25296 -2.50287,-1.87924 -3.75491,-1.94776 z m -273.09651,42.07561 c -0.37531,-0.0206 -0.72765,-0.0105 -1.056,0.012 -3.66706,0.21443 -6.10111,2.38778 -8.07077,4.35899 -2.58221,2.58404 -4.69735,5.47228 -6.66741,7.62524 -1.96997,2.15293 -3.667,3.25767 -4.49353,3.40807 l -0.0339,0.008 -0.036,0.006 c -0.46196,0.091 -0.50135,0.0843 -1.01608,-0.19976 -0.51473,-0.28399 -1.35657,-0.99312 -2.30364,-2.06165 -1.89395,-2.13701 -3.99181,-5.54163 -7.35213,-8.32242 v -0.002 -0.003 c -1.79751,-1.48136 -3.77737,-3.10955 -6.80915,-3.69774 -3.03176,-0.58816 -6.60578,0.69614 -9.09483,3.05248 l -0.048,0.0459 -0.0478,0.048 c -2.27441,2.27602 -3.78894,5.33466 -3.64912,8.46228 0.13973,3.12761 1.71287,5.72743 3.63714,7.78104 2.5481,2.72302 5.5027,4.91177 7.66952,6.92004 2.16749,2.00905 3.08497,3.67617 3.12011,4.04935 v 0.014 0.012 c 0.0474,0.46742 -0.39723,1.42714 -2.61506,3.35613 -2.21803,1.92899 -5.52402,4.0495 -8.27839,7.18175 v 0.006 0.003 c -1.71908,1.96607 -3.21581,4.29458 -3.68504,7.23968 -0.46825,2.93878 0.55164,6.41333 2.82467,8.84984 2.47491,2.67838 6.18197,4.11862 9.45416,3.63581 3.27908,-0.48379 5.79346,-2.29174 7.86914,-4.36898 l 0.0179,-0.0179 0.0199,-0.0179 c 3.30173,-3.37602 6.73794,-6.89983 10.25065,-10.47396 3.24083,3.55034 6.48207,7.06812 9.9612,10.33611 2.00424,2.00067 4.50871,3.76557 7.77134,4.22315 3.27354,0.45911 7.0106,-0.9655 9.54198,-3.70974 l 0.012,-0.0105 0.0105,-0.012 c 2.20776,-2.42308 3.39188,-5.78863 2.94445,-8.83383 -0.44735,-3.0452 -2.08851,-5.42844 -4.00046,-7.40349 l -0.026,-0.0279 -0.026,-0.026 c -2.5943,-2.59622 -5.60498,-4.81748 -7.77732,-6.83213 -2.16603,-2.00887 -2.87642,-3.65573 -2.87856,-3.5699 -0.0105,-0.5717 0.68058,-1.86497 2.95642,-3.86955 2.20612,-1.94322 5.34258,-4.07408 8.05879,-6.99595 0.0339,-0.0281 0.0302,-0.0229 0.13374,-0.10594 0.20181,-0.16164 0.588,-0.55404 0.98016,-1.07078 1.66456,-1.93015 3.1886,-4.26111 3.39958,-7.33357 0.21594,-3.14374 -1.4164,-6.39519 -3.9226,-8.63207 l -0.0679,-0.0639 -0.0718,-0.0598 c -1.64539,-1.35605 -3.54945,-2.49452 -5.78308,-2.82277 l -0.13775,-0.0499 -0.66273,-0.038 z m -129.40575,3.91549 c -2.29609,0.061 -5.00808,1.53473 -6.44183,3.60386 v 0.002 0.002 c -4.47139,6.44718 -8.06433,8.50405 -10.56606,8.51021 -2.50239,0.006 -6.19586,-2.06621 -10.80959,-8.48623 l -0.01398,-0.016 -0.01197,-0.02 c -1.906571,-2.60178 -5.813314,-3.95982 -8.56384,-3.27822 -2.750529,0.68158 -4.478185,2.23885 -5.930805,3.75569 -1.454236,1.51861 -2.92327,3.31325 -3.47544,6.07302 -0.55218,2.75975 0.915413,6.52903 3.515365,8.35039 l 0.01001,0.0105 0.01397,0.008 c 6.654125,4.6 8.476743,8.10747 8.384174,10.5998 -0.09287,2.49238 -2.423276,6.27816 -8.729522,10.77961 l 0.06189,-0.0439 c -2.836967,1.95797 -4.075472,5.58468 -3.707003,8.46827 0.368372,2.88358 1.828974,5.32704 3.990468,7.16975 l 0.01796,0.0159 0.02196,0.0179 c 3.804517,3.17277 9.868391,3.11615 13.706124,-0.1099 l 0.09783,-0.0818 0.09381,-0.0879 c 2.788985,-2.61096 6.137959,-5.29478 8.909189,-8.96168 1.30783,-1.65788 2.09167,-2.14008 2.30365,-2.28537 0.21843,0.13637 1.02157,0.5967 2.41145,2.27737 v 0.002 0.002 c 3.10328,3.745 6.15166,8.94704 12.21495,11.12521 l 0.40523,0.14584 0.42519,0.072 c 2.75158,0.45895 5.4684,0.0958 7.50785,-1.05678 2.00563,-1.13357 3.07327,-2.61164 3.78485,-3.51797 1.43509,-1.75894 2.35442,-4.05128 2.24376,-6.35469 -0.11095,-2.30711 -1.19258,-4.34079 -2.56316,-5.79735 l 0.10186,0.11386 c -2.80692,-3.1834 -5.70793,-6.7229 -9.38628,-9.86266 l -0.034,-0.0299 -0.036,-0.0299 c -1.42164,-1.16659 -1.95209,-1.9941 -2.14196,-2.25541 0.16468,-0.20792 0.58508,-0.67496 1.70477,-1.52025 l 0.038,-0.0299 0.0399,-0.0319 c 3.48489,-2.74767 6.62204,-5.98944 9.18866,-9.50907 1.62542,-2.15266 2.58342,-4.94708 2.22979,-7.70913 -0.34349,-2.68244 -1.82877,-4.99118 -3.74692,-6.77421 -1.67413,-1.75853 -3.9177,-3.02461 -6.31209,-3.22429 -0.18239,-0.0152 -0.38542,-0.0123 -0.58291,-0.0159 -0.12407,-0.002 -0.2372,-0.0154 -0.3673,-0.012 z m 252.05424,0.71919 c -5.92801,0 -7.46192,1.33047 -7.46192,7.46741 0.20442,64.33562 0.10175,128.67043 0.10175,193.00604 0,5.21641 0.30742,10.53549 1.3295,15.75189 4.59931,22.70669 25.24555,46.53888 57.13415,42.34529 23.201,-3.06847 43.53902,-23.93526 43.2324,-50.83553 -0.40882,-32.62807 -0.10175,-65.25535 -0.10175,-97.88343 0,-34.57144 -0.10222,-69.14288 0,-103.81661 0.10222,-4.60271 -1.02128,-6.03506 -5.825,-6.03506 -29.43565,0.30684 -58.9735,0.30684 -88.40913,0 z m 148.66339,38.57764 c -2.04414,0.10233 -4.19128,1.33046 -5.92881,3.37611 -12.26485,13.80812 -24.22228,28.02617 -32.39884,44.80048 -14.00237,28.74136 6.33683,60.75414 38.32765,60.75414 28.41357,0 50.08027,-27.61504 41.18825,-53.49248 -7.15449,-20.86561 -21.8715,-37.1289 -36.48712,-53.08496 -1.4309,-1.7388 -3.06581,-2.35329 -4.70113,-2.35329 z m -334.78208,50.47795 c -3.92695,6e-5 -7.97863,0.0977 -11.98737,0.38356 -2.93003,-2.4e-4 -5.90892,-0.012 -8.51594,-0.26371 l -0.22755,-0.022 h -0.23157 c -20.71455,0 -41.13724,1.83448 -61.54583,4.13325 -2.65355,0.20826 -5.79969,0.45266 -8.893209,2.39324 -3.090476,1.93868 -5.239136,6.30807 -4.780982,10.81157 v 0.002 c 0.465063,4.64633 3.750162,8.50157 7.164481,9.62693 3.41471,1.12551 6.38393,0.7102 8.60975,0.61929 l -0.19563,0.003 c 2.21719,0 4.03352,-0.35115 5.67928,-0.62727 11.04701,-1.45695 21.79619,-3.3846 32.24513,-3.20431 h 0.0179 0.0199 c 30.96832,0.28962 61.69449,-1.66228 91.47135,3.75567 l 0.0199,0.003 0.0199,0.002 c 2.46833,0.42752 5.8778,1.27868 9.81946,0.2677 1.97074,-0.5055 4.14474,-1.69203 5.64335,-3.66181 1.49839,-1.96975 2.22936,-4.45518 2.38749,-7.17773 v -0.0439 -0.0399 c 0.0987,-2.43908 -0.34778,-4.78546 -1.50914,-6.73825 -1.16133,-1.95281 -2.94884,-3.28809 -4.62328,-4.05334 -3.33775,-1.52535 -6.40151,-1.51729 -8.60975,-1.81191 l -0.026,-0.004 c -17.11741,-2.40537 -34.37205,-4.35271 -51.94794,-4.35299 z"
     id="XMLID_39_"
     inkscape:connector-curvature="0"
     style="stroke-width:1.02244711" /></svg>