<?xml version="1.0" encoding="UTF-8" standalone="no"?>
<svg
   xmlns:dc="http://purl.org/dc/elements/1.1/"
   xmlns:cc="http://creativecommons.org/ns#"
   xmlns:rdf="http://www.w3.org/1999/02/22-rdf-syntax-ns#"
   xmlns:svg="http://www.w3.org/2000/svg"
   xmlns="http://www.w3.org/2000/svg"
   xmlns:sodipodi="http://sodipodi.sourceforge.net/DTD/sodipodi-0.dtd"
   xmlns:inkscape="http://www.inkscape.org/namespaces/inkscape"
   viewBox="0 0 500 500"
   version="1.1"
   id="svg4"
   sodipodi:docname="insurance-network.svg"
   width="500"
   height="500"
   inkscape:version="0.92.2 (5c3e80d, 2017-08-06)">
  <metadata
     id="metadata10">
    <rdf:RDF>
      <cc:Work
         rdf:about="">
        <dc:format>image/svg+xml</dc:format>
        <dc:type
           rdf:resource="http://purl.org/dc/dcmitype/StillImage" />
        <dc:title></dc:title>
      </cc:Work>
    </rdf:RDF>
  </metadata>
  <defs
     id="defs8" />
  <sodipodi:namedview
     pagecolor="#ffffff"
     bordercolor="#666666"
     borderopacity="1"
     objecttolerance="10"
     gridtolerance="10"
     guidetolerance="10"
     inkscape:pageopacity="0"
     inkscape:pageshadow="2"
     inkscape:window-width="1920"
     inkscape:window-height="1058"
     id="namedview6"
     showgrid="false"
     inkscape:zoom="1.2362699"
     inkscape:cx="374.2154"
     inkscape:cy="243.6226"
     inkscape:window-x="-8"
     inkscape:window-y="-8"
     inkscape:window-maximized="1"
     inkscape:current-layer="svg4" />
  <path
     style="stroke-width:0.37225825"
     d="M 237.21431,0 A 37.616081,37.49001 0 0 0 199.59823,37.49001 37.616081,37.49001 0 0 0 228.0202,73.795904 V 115.173 c -29.05995,4.64341 -55.02491,18.49736 -74.73257,38.43981 L 82.350246,94.287793 A 42.989806,42.845726 0 0 0 85.979616,77.111845 42.989806,42.845726 0 0 0 42.989806,34.26612 42.989806,42.845726 0 0 0 0,77.111845 a 42.989806,42.845726 0 0 0 42.989806,42.845725 42.989806,42.845726 0 0 0 26.070966,-8.8181 l 70.406308,58.8794 c -15.49623,21.71296 -24.60788,48.19855 -24.60788,76.77712 0,12.9553 1.87923,25.47847 5.36952,37.32473 l -42.966718,11.47295 a 37.616081,37.49001 0 0 0 -30.231406,-15.25334 37.616081,37.49001 0 0 0 -37.616081,37.49001 37.616081,37.49001 0 0 0 37.616081,37.49001 37.616081,37.49001 0 0 0 37.61608,-37.49001 37.616081,37.49001 0 0 0 -0.0714,-2.01048 l 43.415934,-11.59429 c 18.71611,38.69311 55.7404,67.08261 99.92191,74.17875 l -3.16126,36.01093 a 42.989806,42.845726 0 0 0 -39.9503,42.73902 42.989806,42.845726 0 0 0 42.98981,42.84573 42.989806,42.845726 0 0 0 42.9898,-42.84573 42.989806,42.845726 0 0 0 -24.7989,-38.76618 l 3.35858,-38.25361 c 0.0919,1.8e-4 0.18304,0.004 0.27498,0.004 50.57629,0 94.70264,-27.65685 117.74967,-68.51342 l 47.84085,27.52964 a 42.989806,42.845726 0 0 0 -1.18599,9.79719 42.989806,42.845726 0 0 0 42.98981,42.84573 42.989806,42.845726 0 0 0 42.9898,-42.84573 42.989806,42.845726 0 0 0 -42.9898,-42.84572 42.989806,42.845726 0 0 0 -31.78895,14.07339 L 376.38329,292.0767 c 5.16744,-14.13997 7.99131,-29.38601 7.99131,-45.2809 0,-28.17027 -8.86029,-54.30314 -23.95506,-75.83987 l 60.84695,-50.88766 a 42.989806,42.845726 0 0 0 23.90678,7.2595 42.989806,42.845726 0 0 0 42.9898,-42.845722 42.989806,42.845726 0 0 0 -42.9898,-42.845726 42.989806,42.845726 0 0 0 -42.98981,42.845726 42.989806,42.845726 0 0 0 4.76918,19.594382 l -60.20461,50.3482 c -24.53158,-25.24673 -58.99862,-40.96914 -97.1322,-40.96914 -0.0337,0 -0.0671,0.002 -0.10076,0.002 V 72.873299 A 37.616081,37.49001 0 0 0 274.83036,37.49001 37.616081,37.49001 0 0 0 237.21428,0 Z m 12.40155,124.16683 c 68.57395,0 124.01132,54.86046 124.01132,122.62916 0,67.76869 -55.43737,122.63123 -124.01132,122.63124 -68.57395,0 -124.00921,-54.86255 -124.00921,-122.63124 0,-67.7687 55.43526,-122.62916 124.00921,-122.62916 z m -1.04325,27.4334 c -6.59511,0 -11.94185,5.32023 -11.94185,11.88299 v 6.68 a 138.86034,138.17882 0 0 1 23.88369,0.002 v -6.68209 c 0,-6.56277 -5.34671,-11.883 -11.94184,-11.883 z m 0,23.99402 c -48.32058,0 -95.47901,25.97959 -107.36537,71.8691 -0.82696,3.10892 3.16735,6.58965 6.97745,3.52097 19.38795,-16.9612 40.17783,-16.17509 59.17395,11.41019 1.97708,2.91913 5.56163,2.66067 7.3637,0 7.52581,-10.92865 16.77154,-22.57979 33.85027,-22.57979 21.82701,0 32.92367,21.23398 33.85027,22.57979 1.80243,2.66067 5.38662,2.91913 7.36369,0 19.03007,-27.6388 39.98081,-28.20124 59.17395,-11.41019 3.83251,3.08653 7.80067,-0.43059 6.97745,-3.52097 -11.62814,-45.88951 -59.30303,-71.8691 -107.36536,-71.8691 z m -0.45551,70.15988 c -4.08575,0.0362 -8.02048,1.01139 -11.48634,2.76572 v 0.002 57.55721 c 0,6.55232 -5.35719,11.88299 -11.94185,11.88299 -6.58468,0 -11.94184,-5.33067 -11.94184,-11.88299 0,-6.56281 -5.3467,-11.883 -11.94185,-11.883 -6.59509,0 -11.93975,5.32019 -11.93975,11.883 0,19.65703 16.06941,35.64898 35.82344,35.64898 19.75401,0 35.82554,-15.99195 35.82554,-35.64898 v -57.45052 c -4.07432,-2.00633 -8.3116,-2.91072 -12.39735,-2.87451 z"
     id="path840"
     inkscape:connector-curvature="0" />
</svg>
