<?xml version="1.0" encoding="UTF-8" standalone="no"?>
<svg
   xmlns:dc="http://purl.org/dc/elements/1.1/"
   xmlns:cc="http://creativecommons.org/ns#"
   xmlns:rdf="http://www.w3.org/1999/02/22-rdf-syntax-ns#"
   xmlns:svg="http://www.w3.org/2000/svg"
   xmlns="http://www.w3.org/2000/svg"
   xmlns:sodipodi="http://sodipodi.sourceforge.net/DTD/sodipodi-0.dtd"
   xmlns:inkscape="http://www.inkscape.org/namespaces/inkscape"
   viewBox="0 0 1500 1775"
   version="1.1"
   id="svg4"
   sodipodi:docname="insurance-provider.svg"
   width="1500"
   height="1775"
   inkscape:version="0.92.2 (5c3e80d, 2017-08-06)">
  <metadata
     id="metadata10">
    <rdf:RDF>
      <cc:Work
         rdf:about="">
        <dc:format>image/svg+xml</dc:format>
        <dc:type
           rdf:resource="http://purl.org/dc/dcmitype/StillImage" />
        <dc:title></dc:title>
      </cc:Work>
    </rdf:RDF>
  </metadata>
  <defs
     id="defs8" />
  <sodipodi:namedview
     pagecolor="#ffffff"
     bordercolor="#666666"
     borderopacity="1"
     objecttolerance="10"
     gridtolerance="10"
     guidetolerance="10"
     inkscape:pageopacity="0"
     inkscape:pageshadow="2"
     inkscape:window-width="1920"
     inkscape:window-height="1058"
     id="namedview6"
     showgrid="false"
     inkscape:zoom="0.32"
     inkscape:cx="640.22733"
     inkscape:cy="986.88255"
     inkscape:window-x="-8"
     inkscape:window-y="-8"
     inkscape:window-maximized="1"
     inkscape:current-layer="svg4" />
  <path
     style="stroke-width:1.12285662"
     d="m 749.99901,1e-5 c -46.02344,0 -83.3333,37.31814 -83.3333,83.35184 v 46.85127 c 55.45302,-4.78149 111.21463,-4.77572 166.6666,0.0179 V 83.35184 C 833.33231,37.31814 796.02247,0 749.99901,0 Z m 0.004,168.29775 C 412.80242,168.29776 83.714017,350.52872 0.76611668,672.4155 -5.0046833,694.2224 22.864717,718.6366 49.453217,697.111 184.75012,578.1392 329.82542,583.6629 462.38792,777.1565 c 13.79688,20.4759 38.81544,18.663 51.39096,0 52.51823,-76.6577 117.03825,-158.3895 236.22054,-158.3895 152.31781,0 229.75257,148.9499 236.21875,158.3895 12.57804,18.663 37.59943,20.4759 51.39633,0 132.7995,-193.8687 278.9971,-197.8243 412.9347,-80.0455 26.7446,21.6506 54.4318,-3.0188 48.6871,-24.6955 C 1418.09,350.52872 1085.4011,168.29776 750.0026,168.29776 Z m -3.18744,492.13174 c -28.51205,0.2546 -55.96324,7.1044 -80.14945,19.4118 v 217.3575 c -28.73442,1.4834 -55.77641,14.4135 -74.99405,36.0384 l -111.44354,125.4012 c -10.22672,11.5082 -24.88611,18.0919 -40.27981,18.0918 h -7.485 c -14.8818,0 -255.6961,12.0654 -255.6961,26.9505 v 269.5157 c 0,14.8851 240.8143,26.9523 255.6961,26.9523 h 3.2787 c 14.3656,2e-4 28.5869,2.8729 41.82694,8.4486 l 130.53366,54.9738 c 13.23989,5.5759 27.46134,8.4486 41.82692,8.4486 h 16.73577 v 52.9248 c 0,45.9607 -37.38277,83.3519 -83.33329,83.3519 -45.95054,0 -83.33329,-37.3912 -83.33329,-83.3519 0,-46.0337 -37.30991,-83.3518 -83.33331,-83.3518 -46.0235,0 -83.3333,37.3181 -83.3333,83.3518 0,137.8823 112.1483,250.0555 249.9999,250.0555 137.85157,0 249.99989,-112.1732 249.99989,-250.0555 v -64.2552 c 12.65361,-9.6516 20.98597,-24.6287 21.26981,-41.6518 0.29864,-17.8838 -8.11313,-33.8147 -21.26981,-43.8333 V 1355.23 h 2.42818 c 29.55255,0 54.27712,-23.4264 54.77001,-52.9822 0.50408,-30.1913 -23.81353,-54.8251 -53.88363,-54.8251 h -3.31456 v -8.9841 h 20.39057 c 29.55255,0 54.27713,-23.4264 54.77002,-52.9822 0.50407,-30.1914 -23.81174,-54.8234 -53.88183,-54.8234 h -21.27876 v -8.9841 h 2.42818 c 29.55255,0 54.27712,-23.4264 54.77001,-52.9822 0.50408,-30.1913 -23.81353,-54.8234 -53.88363,-54.8234 h -3.31456 V 680.5882 c -28.43234,-14.0734 -58.00508,-20.4133 -86.51715,-20.1587 z"
     id="path2"
     inkscape:connector-curvature="0" />
</svg>
