<?xml version="1.0" encoding="UTF-8" standalone="no"?>
<svg
   xmlns:dc="http://purl.org/dc/elements/1.1/"
   xmlns:cc="http://creativecommons.org/ns#"
   xmlns:rdf="http://www.w3.org/1999/02/22-rdf-syntax-ns#"
   xmlns:svg="http://www.w3.org/2000/svg"
   xmlns="http://www.w3.org/2000/svg"
   id="svg4"
   version="1.1"
   viewBox="0 0 576 512">
  <metadata
     id="metadata10">
    <rdf:RDF>
      <cc:Work
         rdf:about="">
        <dc:format>image/svg+xml</dc:format>
        <dc:type
           rdf:resource="http://purl.org/dc/dcmitype/StillImage" />
        <dc:title></dc:title>
      </cc:Work>
    </rdf:RDF>
  </metadata>
  <defs
     id="defs8" />
  <path
     id="path2"
     d="M 468.19531 0.40820312 C 459.88846 0.43156545 451.68172 1.3653166 443.76758 3.1425781 A 5.4382068 5.4382068 0 0 0 439.52148 8.4492188 L 439.52148 30.71875 A 86.747324 86.747324 0 0 0 412.00781 46.626953 L 392.72656 35.490234 A 5.4409237 5.4409237 0 0 0 386.00977 36.509766 C 374.81685 48.619628 366.25865 63.200918 361.24609 79.339844 C 360.49127 81.770066 361.51494 84.399948 363.71875 85.671875 L 383.01562 96.810547 A 87.609014 87.609014 0 0 0 383.01562 128.59766 L 367.0332 137.82227 C 413.04047 155.83297 453.15503 185.12206 479.93945 224.41016 C 484.43704 223.95386 488.87989 223.24111 493.23242 222.26367 A 5.4382068 5.4382068 0 0 0 497.47852 216.95898 L 497.47852 194.6875 A 86.747324 86.747324 0 0 0 524.99219 178.78125 L 544.27344 189.91797 A 5.4409237 5.4409237 0 0 0 550.99023 188.89648 C 562.18316 176.78664 570.74134 162.20729 575.75391 146.06836 C 576.50874 143.63814 575.48507 141.00827 573.28125 139.73633 L 553.98438 128.59766 A 87.611278 87.611278 0 0 0 553.98438 96.810547 L 573.28125 85.671875 C 575.48507 84.39949 576.50875 81.769594 575.75391 79.339844 C 570.74135 63.200905 562.18269 48.619628 550.99023 36.509766 A 5.4409237 5.4409237 0 0 0 544.27344 35.488281 L 524.99219 46.625 A 86.737361 86.737361 0 0 0 497.48047 30.71875 L 497.48047 8.4472656 C 497.48047 5.8993171 495.70858 3.6989399 493.22266 3.140625 C 484.90913 1.2729742 476.50216 0.3848408 468.19531 0.40820312 z M 479.93945 224.41016 C 468.08125 225.61322 455.83222 224.97506 443.77734 222.26758 C 441.29143 221.70929 439.51953 219.50693 439.51953 216.95898 L 439.51953 194.68945 A 86.737361 86.737361 0 0 1 412.00781 178.78125 L 392.72656 189.91797 A 5.4409237 5.4409237 0 0 1 386.00977 188.89844 C 374.8173 176.7886 366.25864 162.2073 361.24609 146.06836 C 360.49124 143.63861 361.51497 141.00872 363.71875 139.73633 L 367.0332 137.82227 C 331.814 124.03482 293.14821 116.84961 254.37305 116.84961 C 140.00681 116.84961 28.392702 178.641 0.25976562 287.78906 C -1.6974926 295.18354 7.7555642 303.46315 16.773438 296.16406 C 62.661249 255.82211 111.86576 257.69521 156.82617 323.30664 C 161.50557 330.24978 169.99069 329.63505 174.25586 323.30664 C 192.06814 297.31291 213.95072 269.59766 254.37305 269.59766 C 306.03371 269.59766 332.29715 320.10578 334.49023 323.30664 C 338.75628 329.63505 347.24248 330.24978 351.92188 323.30664 C 396.96266 257.56802 446.54785 256.22663 491.97461 296.16406 C 501.04548 303.50555 510.43475 295.13938 508.48633 287.78906 C 502.60059 264.44689 492.8035 243.27948 479.93945 224.41016 z M 254.37305 59.78125 C 238.76356 59.78125 226.10937 72.435435 226.10938 88.044922 L 226.10938 103.93164 A 328.65775 328.65775 0 0 1 282.63672 103.9375 L 282.63672 88.044922 C 282.63672 72.435435 269.98253 59.78125 254.37305 59.78125 z M 468.5 76.478516 C 488.4742 76.478516 504.72461 92.728923 504.72461 112.70312 C 504.72461 132.67732 488.4742 148.92773 468.5 148.92773 C 448.52581 148.92773 432.27539 132.67732 432.27539 112.70312 C 432.27539 92.728923 448.52581 76.478516 468.5 76.478516 z M 253.29297 283.72461 C 243.62271 283.81095 234.31246 286.13529 226.10938 290.30859 L 226.10938 427.20898 C 226.10938 442.79374 213.43046 455.47266 197.8457 455.47266 C 182.26095 455.47266 169.58203 442.79374 169.58203 427.20898 C 169.58203 411.59949 156.92785 398.94531 141.31836 398.94531 C 125.70887 398.94531 113.05469 411.59949 113.05469 427.20898 C 113.05469 473.96325 151.09143 512 197.8457 512 C 244.59997 512 282.63672 473.96325 282.63672 427.20898 L 282.63672 290.56055 C 272.99351 285.7884 262.96322 283.63827 253.29297 283.72461 z "
     style="stroke-width:0.88323927" />
</svg>
