<?xml version="1.0" encoding="UTF-8" standalone="no"?>
<svg
   xmlns:dc="http://purl.org/dc/elements/1.1/"
   xmlns:cc="http://creativecommons.org/ns#"
   xmlns:rdf="http://www.w3.org/1999/02/22-rdf-syntax-ns#"
   xmlns:svg="http://www.w3.org/2000/svg"
   xmlns="http://www.w3.org/2000/svg"
   viewBox="0 0 500 500"
   version="1.1"
   id="svg4"
   width="500"
   height="500">
  <metadata
     id="metadata10">
    <rdf:RDF>
      <cc:Work
         rdf:about="">
        <dc:format>image/svg+xml</dc:format>
        <dc:type
           rdf:resource="http://purl.org/dc/dcmitype/StillImage" />
        <dc:title></dc:title>
      </cc:Work>
    </rdf:RDF>
  </metadata>
  <defs
     id="defs8" />
  <path
     style="stroke-width:0.78124994"
     d="m 75.000003,212.50002 c 0,20.71093 -16.789065,37.49999 -37.499999,37.49999 C 16.789061,250.00001 0,233.21095 0,212.50002 c 0,-20.71094 16.789061,-37.5 37.500004,-37.5 20.710934,0 37.499999,16.78906 37.499999,37.5 z M 37.500004,300.00001 C 16.789061,300.00001 0,316.78908 0,337.50001 c 0,20.71094 16.789061,37.5 37.500004,37.5 20.710934,0 37.499999,-16.78906 37.499999,-37.5 0,-20.71093 -16.789065,-37.5 -37.499999,-37.5 z m 0,124.99999 C 16.789061,425 0,441.78907 0,462.5 0,483.21093 16.789061,500 37.500004,500 c 20.710934,0 37.499999,-16.78907 37.499999,-37.5 0,-20.71093 -16.789065,-37.5 -37.499999,-37.5 z M 112.5,240.62502 h 275 c 6.90389,0 12.5,-5.59611 12.5,-12.50001 v -31.25 c 0,-6.9039 -5.59611,-12.5 -12.5,-12.5 h -275 c -6.90391,0 -12.500002,5.5961 -12.500002,12.5 v 31.25 c 0,6.9039 5.596092,12.50001 12.500002,12.50001 z m 0,124.99999 h 275 c 6.90389,0 12.5,-5.5961 12.5,-12.5 v -31.25 c 0,-6.9039 -5.59611,-12.5 -12.5,-12.5 h -275 c -6.90391,0 -12.500002,5.5961 -12.500002,12.5 v 31.25 c 0,6.9039 5.596092,12.5 12.500002,12.5 z m 0,124.99999 h 275 c 6.90389,0 12.5,-5.5961 12.5,-12.5 v -31.25 c 0,-6.90391 -5.59611,-12.5 -12.5,-12.5 h -275 c -6.90391,0 -12.500002,5.59609 -12.500002,12.5 v 31.25 c 0,6.9039 5.596092,12.5 12.500002,12.5 z"
     id="path976" />
  <path
     style="stroke-width:0.37090996"
     d="m 481.56838,102.73801 16.15546,8.92705 c 1.84505,1.01939 2.70143,3.12749 2.06948,5.07519 -4.19656,12.93457 -11.36145,24.62004 -20.73226,34.32551 a 4.5551922,4.3606389 0 0 1 -5.62272,0.81798 l -16.14335,-8.9256 a 72.625671,69.523813 0 0 1 -23.03335,12.74877 v 17.84827 a 4.5529177,4.3584616 0 0 1 -3.55476,4.2525 c -13.25162,2.84877 -27.48393,2.99613 -41.40426,0.001 -2.08122,-0.44748 -3.5646,-2.21226 -3.5646,-4.25432 v -17.84763 a 72.617331,69.515829 0 0 1 -23.03339,-12.74876 l -16.14335,8.92559 a 4.5551922,4.3606389 0 0 1 -5.62271,-0.81797 c -9.37045,-9.70548 -16.5357,-21.39094 -20.73228,-34.32551 -0.63193,-1.94734 0.22445,-4.05544 2.0695,-5.07519 l 16.15584,-8.92705 a 73.347087,70.214417 0 0 1 0,-25.475405 l -16.15547,-8.92704 c -1.84505,-1.01939 -2.70143,-3.1275 -2.06946,-5.07519 4.19656,-12.934583 11.36142,-24.620052 20.73226,-34.325521 A 4.5551922,4.3606389 0 0 1 346.56168,28.1167 L 362.705,37.042454 A 72.625671,69.523813 0 0 1 385.73838,24.293683 V 6.4450535 a 4.5529177,4.3584616 0 0 1 3.55476,-4.252496 c 13.25161,-2.84878499 27.48392,-2.99612299 41.40426,-0.0026 2.08123,0.447457 3.56461,2.212254 3.56461,4.254308 V 24.293273 a 72.617331,69.515829 0 0 1 23.03339,12.748771 l 16.14332,-8.92559 a 4.5551922,4.3606389 0 0 1 5.62272,0.817981 c 9.37043,9.705471 16.53569,21.39094 20.73226,34.32552 0.63194,1.94733 -0.22442,4.05543 -2.06948,5.07519 l -16.15584,8.92704 a 73.348983,70.216233 0 0 1 0,25.475765 z M 440.32752,90.000135 c 0,-16.00836 -13.60492,-29.03222 -30.32752,-29.03222 -16.72259,0 -30.3275,13.02386 -30.3275,29.03222 0,16.008365 13.60491,29.032205 30.3275,29.032205 16.7226,0 30.32752,-13.02384 30.32752,-29.032205 z"
     id="path1017" />
</svg>
