<?xml version="1.0" encoding="UTF-8" standalone="no"?>
<svg
   xmlns:dc="http://purl.org/dc/elements/1.1/"
   xmlns:cc="http://creativecommons.org/ns#"
   xmlns:rdf="http://www.w3.org/1999/02/22-rdf-syntax-ns#"
   xmlns:svg="http://www.w3.org/2000/svg"
   xmlns="http://www.w3.org/2000/svg"
   height="455"
   width="500"
   id="svg4"
   version="1.1"
   viewBox="0 0 500 455">
  <metadata
     id="metadata10">
    <rdf:RDF>
      <cc:Work
         rdf:about="">
        <dc:format>image/svg+xml</dc:format>
        <dc:type
           rdf:resource="http://purl.org/dc/dcmitype/StillImage" />
        <dc:title></dc:title>
      </cc:Work>
    </rdf:RDF>
  </metadata>
  <defs
     id="defs8" />
  <path
     id="path2"
     d="m 399.71637,0 c -7.72729,0.02182 -15.36263,0.896804 -22.72459,2.558594 a 5.0587904,5.0848533 0 0 0 -3.94921,4.960937 V 28.341797 A 80.695077,81.110818 0 0 0 347.44884,43.2168 L 329.51331,32.802734 a 5.0613176,5.0873935 0 0 0 -6.24804,0.955078 C 312.85332,45.08083 304.89291,58.71246 300.23014,73.80273 c -0.70219,2.2723 0.24874,4.73259 2.29883,5.92188 l 17.95115,10.41601 A 81.496648,81.916519 0 0 0 319.18715,105 h 43.31246 c 1.28514,0 2.55476,0.0652 3.80663,0.19141 -3.6e-4,-0.0641 -0.004,-0.12722 -0.004,-0.19141 0,-18.67636 15.11666,-33.87109 33.69724,-33.87109 18.58058,0 33.69723,15.19473 33.69723,33.87109 0,18.67635 -15.11665,33.87109 -33.69723,33.87109 -0.0596,0 -0.11818,-0.004 -0.17773,-0.004 0.115,1.19589 0.17773,2.40676 0.17773,3.63281 v 67.49609 c 7.82388,-0.001 15.55596,-0.87262 23.00778,-2.55468 a 5.0587904,5.0848533 0 0 0 3.94922,-4.96094 V 181.6582 a 80.695077,81.110818 0 0 0 25.59372,-14.87304 l 17.93553,10.41211 a 5.0613176,5.0873935 0 0 0 6.24804,-0.95313 c 10.41197,-11.323 18.37237,-24.95658 23.03513,-40.04687 0.7022,-2.27231 -0.24873,-4.73259 -2.29883,-5.92188 l -17.95115,-10.41406 a 81.498755,81.918637 0 0 0 0,-29.72266 l 17.95115,-10.41406 c 2.04998,-1.18971 3.00298,-3.65 2.30078,-5.92188 -4.66288,-15.09029 -12.62547,-28.7219 -23.03708,-40.044918 a 5.0613176,5.0873935 0 0 0 -6.24609,-0.955078 L 452.55029,43.21484 A 80.685811,81.101504 0 0 0 426.95657,28.341797 V 7.517578 c 0,-2.382396 -1.64842,-4.440855 -3.96094,-4.96289 C 415.26215,0.808301 407.44365,-0.021824 399.71637,0 Z m 0.2832,209.99609 c -7.63519,10e-4 -15.35893,-0.82586 -22.99803,-2.55078 -2.31251,-0.52204 -3.95897,-2.58049 -3.95897,-4.96289 V 181.6582 a 80.685811,81.101504 0 0 1 -10.54296,-4.73437 V 412.8125 a 4.6874948,4.6874999 0 0 1 -4.6875,4.6875 H 42.187454 a 4.6874948,4.6874999 0 0 1 -4.687495,-4.6875 V 147.1875 A 4.6874948,4.6874999 0 0 1 42.187454,142.5 H 302.40787 c -0.78819,-2.07169 -1.52081,-4.17045 -2.17968,-6.30273 -0.70218,-2.27189 0.25069,-4.73216 2.30078,-5.92188 l 17.95115,-10.41406 A 81.496648,81.916519 0 0 1 319.18715,105 H 37.499959 C 16.789044,105 0,121.78906 0,142.5 v 275 C 0,438.21093 16.789044,455 37.499959,455 H 362.49961 c 20.71091,0 37.49996,-16.78907 37.49996,-37.5 z M 302.40787,142.5 c 4.78993,12.58974 11.91698,24.02109 20.8574,33.74414 a 5.0613176,5.0873935 0 0 0 6.24609,0.95313 l 17.93748,-10.41211 a 80.685811,81.101504 0 0 0 15.05077,10.13867 V 147.1875 a 4.6874948,4.6874999 0 0 0 -4.6875,-4.6875 z m 97.41397,-3.63281 c -1.70713,-17.75209 -15.78712,-31.88838 -33.5156,-33.67578 0.10308,18.52831 15.08071,33.57902 33.5156,33.67578 z M 99.999892,176.875 c -15.532791,0 -28.12497,12.59219 -28.12497,28.125 0,15.53282 12.592179,28.125 28.12497,28.125 15.532788,0 28.124968,-12.59218 28.124968,-28.125 0,-15.53281 -12.59218,-28.125 -28.124968,-28.125 z m 59.374938,9.375 c -5.17734,0 -9.37499,4.19766 -9.37499,9.375 v 18.75 c 0,5.17734 4.19765,9.375 9.37499,9.375 h 156.24983 c 5.17733,0 9.37499,-4.19766 9.37499,-9.375 v -18.75 c 0,-5.17734 -4.19766,-9.375 -9.37499,-9.375 z m -59.374938,65.625 c -15.532791,0 -28.12497,12.59219 -28.12497,28.125 0,15.53281 12.592179,28.125 28.12497,28.125 15.532788,0 28.124968,-12.59219 28.124968,-28.125 0,-15.53281 -12.59218,-28.125 -28.124968,-28.125 z m 59.374938,9.375 c -5.17734,0 -9.37499,4.19766 -9.37499,9.375 v 18.75 c 0,5.17734 4.19765,9.375 9.37499,9.375 h 156.24983 c 5.17733,0 9.37499,-4.19766 9.37499,-9.375 v -18.75 c 0,-5.17734 -4.19766,-9.375 -9.37499,-9.375 z m -59.374938,65.625 c -15.532791,0 -28.12497,12.59219 -28.12497,28.125 0,15.53281 12.592179,28.125 28.12497,28.125 15.532788,0 28.124968,-12.59219 28.124968,-28.125 0,-15.53281 -12.59218,-28.125 -28.124968,-28.125 z m 59.374938,9.375 c -5.17734,0 -9.37499,4.19765 -9.37499,9.375 v 18.75 c 0,5.17735 4.19765,9.375 9.37499,9.375 h 156.24983 c 5.17733,0 9.37499,-4.19765 9.37499,-9.375 v -18.75 c 0,-5.17735 -4.19766,-9.375 -9.37499,-9.375 z"
     style="stroke-width:0.78125" />
</svg>
