<?xml version="1.0" encoding="UTF-8" standalone="no"?>
<svg
   xmlns:dc="http://purl.org/dc/elements/1.1/"
   xmlns:cc="http://creativecommons.org/ns#"
   xmlns:rdf="http://www.w3.org/1999/02/22-rdf-syntax-ns#"
   xmlns:svg="http://www.w3.org/2000/svg"
   xmlns="http://www.w3.org/2000/svg"
   id="svg8"
   version="1.1"
   viewBox="0 0 500 560"
   height="560mm"
   width="500mm">
  <defs
     id="defs2" />
  <metadata
     id="metadata5">
    <rdf:RDF>
      <cc:Work
         rdf:about="">
        <dc:format>image/svg+xml</dc:format>
        <dc:type
           rdf:resource="http://purl.org/dc/dcmitype/StillImage" />
        <dc:title></dc:title>
      </cc:Work>
    </rdf:RDF>
  </metadata>
  <g
     style="display:inline"
     transform="translate(0,263)"
     id="layer1">
    <g
       transform="matrix(0.85433395,0.49022654,-0.49324994,0.84909728,199.09052,-122.78643)"
       id="g843" />
    <path
       d="M -473.53534,204.58464 H -26.464657 C -11.803237,204.58464 0,216.53607 0,231.38156 v 38.82152 C 0,285.04857 -11.803237,297 -26.464657,297 H -473.53534 C -488.19676,297 -500,285.04857 -500,270.20308 v -38.82152 c 0,-14.84549 11.80324,-26.79692 26.46466,-26.79692 z m 135.17065,-93.10065 h 308.965159 c 3.395986,0 6.129939,2.60783 6.129939,5.84714 v 9.18025 c 0,3.23931 -2.733953,5.84713 -6.129939,5.84713 H -338.36469 c -3.39599,0 -6.12994,-2.60782 -6.12994,-5.84713 v -9.18025 c 0,-3.23931 2.73395,-5.84714 6.12994,-5.84714 z m 189.07681,-81.979528 c 5.4e-4,9.7e-5 3.13537,1.1197 3.13574,1.119899 1.8e-4,1.09e-4 2.3849,1.745834 2.38505,1.745954 1.2e-4,1.33e-4 2.37696,3.00289 2.38074,3.007696 -1e-5,4e-6 0.003,0.0017 0.003,0.0017 l 6.3175,10.87609 c 9e-5,1.53e-4 1.42461,3.551553 1.42469,3.551726 3e-5,1.85e-4 0.3258,2.92105 0.32582,2.921256 -1e-5,4.12e-4 -0.59154,3.251236 -0.59171,3.25175 -2e-4,5.26e-4 -0.4888,1.099976 -0.68479,1.424122 -0.19599,0.324155 -0.35832,0.547079 -0.49685,0.726798 -0.55405,0.718851 -0.78323,0.872523 -0.96962,1.037194 -0.37281,0.329355 -0.50136,0.408289 -0.62541,0.496804 -0.24811,0.177013 -0.37224,0.252653 -0.51154,0.34051 -0.27858,0.175704 -0.5468,0.334707 -0.85284,0.510318 l -25.81565,14.814445 c -0.30612,0.175657 -0.57947,0.326845 -0.8719,0.478569 -0.14617,0.07595 -0.27405,0.143782 -0.55216,0.26872 -0.13904,0.06246 -0.27152,0.135533 -0.74456,0.291662 -0.23656,0.078 -0.48573,0.196416 -1.38895,0.314043 -0.22578,0.02947 -0.49954,0.05836 -0.88005,0.065 -0.38051,0.0067 -1.584,-0.121844 -1.58455,-0.121933 -5.4e-4,-9.8e-5 -3.13356,-1.119527 -3.13392,-1.11973 -1.9e-4,-9.6e-5 -2.38655,-1.743986 -2.38669,-1.744106 -1.2e-4,-1.37e-4 -2.38264,-3.009733 -2.38273,-3.009894 L -184.11079,59.8726 c -9e-5,-1.57e-4 -1.42463,-3.551548 -1.42469,-3.551726 -5e-5,-1.78e-4 -0.32386,-2.918865 -0.32387,-2.919071 1e-5,-4.16e-4 0.59134,-3.25324 0.59154,-3.253762 1.8e-4,-5.1e-4 0.4888,-1.099972 0.68479,-1.424127 0.19598,-0.324142 0.35831,-0.547066 0.49682,-0.726782 0.55408,-0.718871 0.78141,-0.872708 0.96781,-1.037383 0.37283,-0.32935 0.50136,-0.408276 0.62542,-0.496799 0.24811,-0.177009 0.37407,-0.252455 0.51335,-0.340303 0.27858,-0.175701 0.54683,-0.334724 0.85286,-0.510327 l 25.81396,-14.812716 c 0.30608,-0.175632 0.5792,-0.328952 0.87174,-0.480518 0.14617,-0.07595 0.2758,-0.143538 0.55399,-0.268521 0.13909,-0.06249 0.27134,-0.135436 0.74456,-0.291675 0.23664,-0.07805 0.48528,-0.196495 1.38896,-0.314034 0.22593,-0.02933 0.50116,-0.0582 0.88186,-0.06482 0.38069,-0.0066 1.58419,0.123839 1.58473,0.123937 z M -286.76572,-262.98595 c 0.42899,-0.0274 0.98561,-0.0205 1.75743,0.0729 0.38592,0.0467 0.83204,0.12187 1.35545,0.26217 0.52342,0.1403 1.80312,0.67938 1.80324,0.67945 1.5e-4,5e-5 2.16593,1.45395 2.16603,1.45402 9e-5,8e-5 2.00149,2.44111 2.00153,2.44121 l 2e-5,5.1e-4 5e-4,-10e-6 157.86903,271.761409 c 8e-5,1e-4 1.12711,2.939646 1.12715,2.939757 2e-5,1.18e-4 0.1868,2.589142 0.1868,2.589278 -3e-5,1.41e-4 -0.16861,1.37054 -0.30738,1.891176 -0.13874,0.520648 -0.29556,0.94197 -0.44735,1.297633 -0.60719,1.422633 -1.08704,1.931494 -1.4238,2.339085 -0.67353,0.81517 -0.95424,1.004268 -1.18058,1.196805 -0.45267,0.385076 -0.60266,0.475333 -0.7446,0.574632 -0.28393,0.198582 -0.40604,0.272388 -0.53834,0.355098 -0.26447,0.165337 -0.48577,0.295607 -0.73942,0.441156 l -76.00324,43.611297 c -0.25458,0.146077 -0.4791,0.271512 -0.75614,0.416444 -0.13843,0.07264 -0.26366,0.141103 -0.57893,0.286009 -0.15758,0.07253 -0.31203,0.157083 -0.87383,0.354028 -0.28089,0.09846 -0.5856,0.244888 -1.63209,0.416675 -0.52324,0.08591 -1.2061,0.244079 -2.74796,0.05557 -0.38546,-0.04713 -0.83088,-0.122493 -1.35344,-0.263184 -0.52261,-0.140667 -1.80015,-0.680366 -1.80026,-0.680425 -1.4e-4,-5.7e-5 -2.16141,-1.452906 -2.1615,-1.452988 -8e-5,-7.9e-5 -1.99897,-2.438582 -1.99903,-2.438684 l -1e-5,-5.04e-4 -157.87107,-271.764437 -5.1e-4,-5e-4 c -4.8e-4,-8.4e-4 -1.12608,-2.94114 -1.1261,-2.94125 -3e-5,-1.3e-4 -0.1848,-2.58662 -0.18478,-2.58677 2e-5,-1.3e-4 0.16835,-1.36847 0.30687,-1.88818 0.13852,-0.51968 0.29497,-0.94062 0.44638,-1.29561 0.60562,-1.41994 1.08398,-1.92796 1.41982,-2.33509 0.67164,-0.81428 0.95161,-1.00373 1.17755,-1.19633 0.45186,-0.38522 0.60258,-0.47554 0.74461,-0.57513 0.28408,-0.19913 0.4068,-0.27373 0.53984,-0.35709 0.26615,-0.16665 0.48898,-0.29824 0.7459,-0.44567 l 76.00273,-43.6108 c 0.2515,-0.14426 0.4738,-0.26847 0.7486,-0.41302 0.13749,-0.0721 0.2622,-0.14027 0.57642,-0.28502 0.15703,-0.0726 0.31027,-0.15709 0.87132,-0.35457 0.28058,-0.0986 0.58473,-0.2454 1.63107,-0.41868 0.26147,-0.0437 0.56305,-0.10499 0.99203,-0.13251 z m -57.72891,395.34443 -23.17525,-8.38334 c -48.36799,-17.49659 -83.17526,-60.279383 -91.45831,-111.441406 -8.28295,-51.162052 10.80375,-103.281033 50.2381,-137.181884 39.43435,-33.90077 93.7681,-44.43777 142.13599,-26.9412 l 23.17525,8.3834 -15.18322,41.45974 c -16.4201,-3.10962 -33.25018,-9.75938 -49.21569,-8.94269 -24.26149,-1.76518 -48.93207,6.17202 -68.64323,23.11724 -26.40179,22.697042 -39.35316,58.062634 -33.80765,92.3163219 4.14034,25.5732251 17.90567,47.4142211 37.63271,61.5614141 11.3184,14.018832 27.20214,20.22707 42.9964,25.925179 z m -25.99428,-92.659131 c 2.59332,-1.288374 6.57414,-2.348509 13.22009,-2.257131 13.2918,0.182747 15.79564,4.678595 17.95538,6.378397 2.15975,1.699801 2.99778,2.675823 3.70017,3.446351 1.40467,1.541066 1.88707,2.251728 2.36414,2.904798 0.95415,1.30616 1.47886,2.133603 2.08803,3.086143 1.21842,1.905089 2.51725,4.05336 4.11055,6.737321 3.18679,5.367931 7.41897,12.699132 12.42427,21.483158 10.01061,17.568053 23.05381,40.846484 36.00606,64.198074 12.95225,23.35159 25.7953,46.74344 35.40035,64.54027 4.80248,8.89843 8.78183,16.36956 11.64968,21.91737 1.43388,2.77388 2.56954,5.01577 3.54153,7.05985 0.48605,1.02203 0.90916,1.90558 1.51339,3.40911 0.30207,0.75177 0.65011,1.53816 1.21705,3.55174 0.28342,1.00679 0.67023,2.23809 0.97604,4.98353 0.30582,2.74543 2.79367,7.25063 -4.00913,18.76684 -6.80291,11.51621 -11.91495,11.45436 -14.45469,12.49057 -2.53975,1.0362 -3.79852,1.28055 -4.81146,1.50864 -2.02578,0.45618 -2.87841,0.52077 -3.67787,0.61088 -1.59882,0.18023 -2.57042,0.22603 -3.69316,0.28179 -2.24527,0.11149 -4.73974,0.17198 -7.84149,0.22146 -6.2035,0.099 -14.61519,0.1278 -24.6618,0.10684 -20.09313,-0.0419 -46.60581,-0.2898 -73.13693,-0.65458 -26.53103,-0.36478 -53.04391,-0.84555 -73.13072,-1.35609 -10.04346,-0.25527 -18.44932,-0.51606 -24.6479,-0.78553 -3.09918,-0.13474 -5.59246,-0.26198 -7.83399,-0.43518 -1.12076,-0.0866 -2.0901,-0.15957 -3.68349,-0.38367 -0.7967,-0.11205 -1.64637,-0.20023 -3.65923,-0.71192 -1.00632,-0.25586 -2.2578,-0.53505 -4.76864,-1.64068 -2.51074,-1.10565 -7.62288,-1.18496 -14.11188,-12.88391 -6.489,-11.69897 -3.88128,-16.13463 -3.50138,-18.87065 0.38,-2.736 0.80064,-3.95637 1.11119,-4.95499 0.6212,-1.99725 0.99074,-2.77417 1.31313,-3.51736 0.64468,-1.48637 1.09058,-2.35724 1.60405,-3.36554 1.02695,-2.01659 2.22258,-4.22534 3.73104,-6.95878 3.01672,-5.46689 7.1978,-12.82764 12.23911,-21.59072 10.08262,-17.52615 23.55278,-40.555 37.13166,-63.54182 13.57878,-22.98681 27.24614,-45.898838 37.72809,-63.185147 5.24088,-8.643145 9.66908,-15.854211 12.99971,-21.132529 1.6654,-2.639164 3.02214,-4.751423 4.29157,-6.622294 0.63481,-0.93544 1.18261,-1.746726 2.17178,-3.026149 0.49463,-0.639726 0.99458,-1.33722 2.4405,-2.839098 0.7229,-0.750939 1.58856,-1.705449 3.79348,-3.345237 1.10252,-0.819904 2.30851,-2.335753 4.90172,-3.624127 z"
       style="opacity:1;fill:#000000;fill-opacity:1;stroke:none;stroke-width:10.1513195;stroke-linecap:square;stroke-linejoin:miter;stroke-miterlimit:4;stroke-dasharray:none;stroke-dashoffset:0;stroke-opacity:1;paint-order:normal"
       transform="scale(-1,1)"
       id="rect855" />
  </g>
</svg>
