<?xml version="1.0" encoding="UTF-8" standalone="no"?>
<!-- Generator: Adobe Illustrator 16.0.0, SVG Export Plug-In . SVG Version: 6.00 Build 0)  -->

<svg
   xmlns:dc="http://purl.org/dc/elements/1.1/"
   xmlns:cc="http://creativecommons.org/ns#"
   xmlns:rdf="http://www.w3.org/1999/02/22-rdf-syntax-ns#"
   xmlns:svg="http://www.w3.org/2000/svg"
   xmlns="http://www.w3.org/2000/svg"
   xmlns:sodipodi="http://sodipodi.sourceforge.net/DTD/sodipodi-0.dtd"
   xmlns:inkscape="http://www.inkscape.org/namespaces/inkscape"
   version="1.1"
   id="Capa_1"
   x="0px"
   y="0px"
   width="500"
   height="530"
   viewBox="0 0 43.640625 46.259063"
   xml:space="preserve"
   sodipodi:docname="patient-registration.svg"
   inkscape:version="0.92.2 (5c3e80d, 2017-08-06)"><metadata
     id="metadata49"><rdf:RDF><cc:Work
         rdf:about=""><dc:format>image/svg+xml</dc:format><dc:type
           rdf:resource="http://purl.org/dc/dcmitype/StillImage" /><dc:title></dc:title></cc:Work></rdf:RDF></metadata><defs
     id="defs47" /><sodipodi:namedview
     pagecolor="#ffffff"
     bordercolor="#666666"
     borderopacity="1"
     objecttolerance="10"
     gridtolerance="10"
     guidetolerance="10"
     inkscape:pageopacity="0"
     inkscape:pageshadow="2"
     inkscape:window-width="1920"
     inkscape:window-height="1058"
     id="namedview45"
     showgrid="false"
     inkscape:zoom="0.4609375"
     inkscape:cx="-96.542373"
     inkscape:cy="256"
     inkscape:window-x="-8"
     inkscape:window-y="-8"
     inkscape:window-maximized="1"
     inkscape:current-layer="Capa_1" /><g
     id="g12"
     style="fill:#000000;fill-opacity:1"
     transform="matrix(1.035905,0,0,1.0351794,-1.3259584,9.0219999e-7)"><g
       id="g10"
       style="fill:#000000;fill-opacity:1"><path
         d="m 25.013,39.119 c -0.336,0.475 -0.828,0.82 -1.389,0.975 l -2.79,0.762 c -0.219,0.062 -0.445,0.094 -0.673,0.094 -0.514,0 -1.011,-0.157 -1.43,-0.452 -0.615,-0.428 -1.001,-1.103 -1.062,-1.834 l -0.245,-2.881 c -0.058,-0.591 0.101,-1.183 0.437,-1.659 l 0.103,-0.148 H 8.012 c -0.803,0 -1.454,-0.662 -1.454,-1.463 0,-0.804 0.651,-1.466 1.454,-1.466 H 20.058 L 22.75,27.202 H 8.012 c -0.803,0 -1.454,-0.662 -1.454,-1.465 0,-0.803 0.651,-1.465 1.454,-1.465 L 24.823,24.229 31.127,15.19 V 8.497 c 0,-1.1 -0.851,-1.988 -1.948,-1.988 h -4.826 v 3.819 c 0,1.803 -1.474,3.229 -3.274,3.229 h -9.706 c -1.804,0 -3.227,-1.427 -3.227,-3.229 V 6.509 H 3.268 C 2.169,6.509 1.28,7.398 1.28,8.497 V 42.65 c 0,1.1 0.89,2.037 1.988,2.037 h 25.909 c 1.1,0 1.949,-0.938 1.949,-2.037 V 30.438 Z M 8.012,17.496 h 16.424 c 0.801,0 1.453,0.661 1.453,1.464 0,0.803 -0.652,1.465 -1.453,1.465 H 8.012 c -0.803,0 -1.454,-0.662 -1.454,-1.465 0,-0.803 0.651,-1.464 1.454,-1.464 z"
         id="path2"
         style="fill:#000000;fill-opacity:1"
         inkscape:connector-curvature="0" /><path
         d="m 11.4,11.636 h 9.697 c 0.734,0 1.331,-0.596 1.331,-1.332 V 4.727 c 0,-0.736 -0.597,-1.332 -1.331,-1.332 H 19.636 C 19.626,1.52 18.102,0 16.223,0 14.343,0 12.821,1.519 12.81,3.395 H 11.4 c -0.736,0 -1.331,0.596 -1.331,1.332 v 5.576 c 0,0.736 0.595,1.333 1.331,1.333 z m 4.824,-9.745 c 0.835,0 1.512,0.672 1.521,1.505 H 14.7 c 0.01,-0.833 0.688,-1.505 1.524,-1.505 z"
         id="path4"
         style="fill:#000000;fill-opacity:1"
         inkscape:connector-curvature="0" /><path
         d="M 43.394,8.978 C 43.349,8.73 43.208,8.513 43.002,8.369 L 40.574,6.677 c -0.164,-0.115 -0.353,-0.17 -0.539,-0.17 -0.296,0 -0.591,0.14 -0.772,0.403 L 22.064,31.573 26.037,34.344 43.238,9.682 C 43.38,9.477 43.437,9.224 43.394,8.978 Z"
         id="path6"
         style="fill:#000000;fill-opacity:1"
         inkscape:connector-curvature="0" /><path
         d="m 19.355,35.6 0.249,2.896 c 0.012,0.167 0.101,0.316 0.236,0.412 0.096,0.066 0.209,0.104 0.321,0.104 0.049,0 0.099,-0.007 0.147,-0.021 l 2.805,-0.768 c 0.127,-0.035 0.237,-0.113 0.313,-0.22 l 1.053,-1.51 -3.976,-2.772 -1.053,1.51 c -0.074,0.107 -0.109,0.238 -0.095,0.369 z"
         id="path8"
         style="fill:#000000;fill-opacity:1"
         inkscape:connector-curvature="0" /></g></g><g
     id="g14"
     style="fill:#ffffff;fill-opacity:1"
     transform="translate(0,1.5710625)" /><g
     id="g16"
     style="fill:#ffffff;fill-opacity:1"
     transform="translate(0,1.5710625)" /><g
     id="g18"
     style="fill:#ffffff;fill-opacity:1"
     transform="translate(0,1.5710625)" /><g
     id="g20"
     style="fill:#ffffff;fill-opacity:1"
     transform="translate(0,1.5710625)" /><g
     id="g22"
     style="fill:#ffffff;fill-opacity:1"
     transform="translate(0,1.5710625)" /><g
     id="g24"
     style="fill:#ffffff;fill-opacity:1"
     transform="translate(0,1.5710625)" /><g
     id="g26"
     style="fill:#ffffff;fill-opacity:1"
     transform="translate(0,1.5710625)" /><g
     id="g28"
     style="fill:#ffffff;fill-opacity:1"
     transform="translate(0,1.5710625)" /><g
     id="g30"
     style="fill:#ffffff;fill-opacity:1"
     transform="translate(0,1.5710625)" /><g
     id="g32"
     style="fill:#ffffff;fill-opacity:1"
     transform="translate(0,1.5710625)" /><g
     id="g34"
     style="fill:#ffffff;fill-opacity:1"
     transform="translate(0,1.5710625)" /><g
     id="g36"
     style="fill:#ffffff;fill-opacity:1"
     transform="translate(0,1.5710625)" /><g
     id="g38"
     style="fill:#ffffff;fill-opacity:1"
     transform="translate(0,1.5710625)" /><g
     id="g40"
     style="fill:#ffffff;fill-opacity:1"
     transform="translate(0,1.5710625)" /><g
     id="g42"
     style="fill:#ffffff;fill-opacity:1"
     transform="translate(0,1.5710625)" /></svg>