<?xml version="1.0" encoding="UTF-8" standalone="no"?>
<!-- Generator: Adobe Illustrator 19.0.0, SVG Export Plug-In . SVG Version: 6.00 Build 0)  -->

<svg
   xmlns:dc="http://purl.org/dc/elements/1.1/"
   xmlns:cc="http://creativecommons.org/ns#"
   xmlns:rdf="http://www.w3.org/1999/02/22-rdf-syntax-ns#"
   xmlns:svg="http://www.w3.org/2000/svg"
   xmlns="http://www.w3.org/2000/svg"
   xmlns:sodipodi="http://sodipodi.sourceforge.net/DTD/sodipodi-0.dtd"
   xmlns:inkscape="http://www.inkscape.org/namespaces/inkscape"
   version="1.1"
   id="Layer_1"
   x="0px"
   y="0px"
   viewBox="0 0 200 612.00003"
   xml:space="preserve"
   sodipodi:docname="pregnant.svg"
   inkscape:version="0.92.2 (5c3e80d, 2017-08-06)"
   width="200"
   height="612"
   inkscape:export-filename="C:\Users\mpoladian\Pictures\ehope\patient_card_vectors\pregnant\pregnant.png"
   inkscape:export-xdpi="64.949997"
   inkscape:export-ydpi="64.949997"><metadata
     id="metadata4551"><rdf:RDF><cc:Work
         rdf:about=""><dc:format>image/svg+xml</dc:format><dc:type
           rdf:resource="http://purl.org/dc/dcmitype/StillImage" /><dc:title></dc:title></cc:Work></rdf:RDF></metadata><defs
     id="defs4549" /><sodipodi:namedview
     pagecolor="#ffffff"
     bordercolor="#666666"
     borderopacity="1"
     objecttolerance="10"
     gridtolerance="10"
     guidetolerance="10"
     inkscape:pageopacity="0"
     inkscape:pageshadow="2"
     inkscape:window-width="1920"
     inkscape:window-height="1058"
     id="namedview4547"
     showgrid="false"
     inkscape:zoom="0.56703095"
     inkscape:cx="228.97863"
     inkscape:cy="232.68887"
     inkscape:window-x="-8"
     inkscape:window-y="-8"
     inkscape:window-maximized="1"
     inkscape:current-layer="Layer_1" /><path
     style="color:#000000;font-style:normal;font-variant:normal;font-weight:normal;font-stretch:normal;font-size:medium;line-height:normal;font-family:sans-serif;font-variant-ligatures:normal;font-variant-position:normal;font-variant-caps:normal;font-variant-numeric:normal;font-variant-alternates:normal;font-feature-settings:normal;text-indent:0;text-align:start;text-decoration:none;text-decoration-line:none;text-decoration-style:solid;text-decoration-color:#000000;letter-spacing:normal;word-spacing:normal;text-transform:none;writing-mode:lr-tb;direction:ltr;text-orientation:mixed;dominant-baseline:auto;baseline-shift:baseline;text-anchor:start;white-space:normal;shape-padding:0;clip-rule:nonzero;display:inline;overflow:visible;visibility:visible;opacity:1;isolation:auto;mix-blend-mode:normal;color-interpolation:sRGB;color-interpolation-filters:linearRGB;solid-color:#000000;solid-opacity:1;vector-effect:none;fill:#000000;fill-opacity:1;fill-rule:nonzero;stroke:none;stroke-width:15.20188046;stroke-linecap:butt;stroke-linejoin:miter;stroke-miterlimit:4;stroke-dasharray:none;stroke-dashoffset:0;stroke-opacity:1;color-rendering:auto;image-rendering:auto;shape-rendering:auto;text-rendering:auto;enable-background:accumulate"
     d="M 62.015471,0.02450835 C 30.550267,-0.85949965 3.6351417,22.381583 1.2527576,57.227069 -0.60688942,83.597196 0.21924188,109.71217 0.01819338,135.4709 v 0.004 0.004 c -0.025381,3.78548 -0.068532,6.7424 0.2255454,9.6166 0.2940772,2.87421 1.03756582,6.07007 3.17741992,8.80268 2.139854,2.73262 5.0397089,4.20866 7.7377893,5.19051 0.833081,0.30317 1.959083,0.53438 2.84108,0.79611 -0.146106,1.43785 -0.24511,2.93885 -0.435263,4.30925 -4.1568786,29.32957 -8.1058454,58.60672 -12.4505002,87.83469 l -0.00594,0.0357 -0.00396,0.0376 c -0.62700032,4.51871 -0.52193822,9.26218 1.8043629,13.64068 2.3263012,4.37851 6.6842646,7.40423 11.5225983,9.01854 l 0.02374,0.008 0.02374,0.008 c 1.625521,0.53056 2.081264,1.01805 1.984404,0.8971 -0.09609,-0.11998 0.10146,-0.43102 -0.08705,1.23575 -0.0015,0.0133 0.0016,-0.004 0,0.0101 -2.547267,21.21979 -4.47513,42.34447 -6.5962131,63.37334 v 0.008 0.008 c -3.03953,30.72854 -5.9764013,61.44814 -8.91299912,92.1598 -0.480709,4.81167 0.33684742,10.02801 3.87581912,13.84862 3.5375261,3.81906 8.6205831,5.0223 13.4100571,4.95485 5.124224,-0.0694 10.429873,-0.0231 15.724865,0 2.903182,28.35607 5.809129,55.96221 8.521262,83.48386 v 0.002 c 2.00897,20.30996 3.430208,40.95013 6.097638,61.61083 0.550863,4.62847 2.662744,7.28775 5.007503,9.85623 2.349233,2.57339 4.686101,5.20601 10.005113,5.72124 l 0.0099,0.002 h 0.0079 c 5.03603,0.47554 10.546438,-2.42835 12.881807,-6.39655 2.33537,-3.96821 2.557521,-8.10751 2.05365,-12.07027 l 0.01187,0.097 C 77.690098,586.71056 77.185,579.55338 76.462231,572.3141 l -0.002,-0.0237 C 72.576019,532.17749 68.690839,492.1047 64.807089,451.67819 h 30.40312 c -1.47228,16.35835 -2.939224,32.55294 -4.495079,48.64544 -3.038614,31.02343 -6.075491,62.04003 -9.213726,93.047 l -0.004,0.0257 -0.002,0.0257 c -0.336449,3.56976 -0.292417,7.39561 1.752922,11.38506 2.04534,3.98944 7.507387,7.34585 12.612735,7.06195 l 0.03363,-0.002 0.03363,-0.002 c 5.372659,-0.34696 7.749949,-2.89048 10.202959,-5.38261 2.45302,-2.49212 4.76627,-5.00943 5.35967,-9.90969 l 0.004,-0.0257 0.002,-0.0257 c 3.76375,-32.98967 6.60526,-65.88287 9.8409,-98.77616 1.49719,-15.25073 3.17671,-30.75957 4.85318,-46.55617 10.67234,0.0243 21.1085,0.0832 31.54668,0.0832 h 0.0415 0.0396 c 5.76394,-0.0621 11.75214,-1.25542 15.4083,-6.40843 3.65617,-5.153 2.8485,-11.162 1.06244,-16.71023 -3.43922,-10.93505 -6.91323,-21.98375 -10.94093,-32.94123 v 0.004 c -0.56472,-1.53876 -0.30756,-1.02714 -0.39767,-0.77234 -0.0897,0.25349 0.3242,-0.57037 1.94483,-2.24176 l 0.0101,-0.0118 c 8.5028,-8.71052 18.48684,-18.1443 24.6616,-30.62223 l 0.004,-0.006 0.002,-0.006 c 27.28008,-55.38033 -1.23039,-124.84117 -59.23161,-145.87297 l -0.0198,-0.008 -0.0198,-0.006 c -5.91321,-2.10809 -6.62616,-2.96951 -8.20866,-8.51356 l -0.004,-0.0139 -0.004,-0.0158 c -3.06229,-10.56971 -6.94468,-20.57602 -10.09612,-30.33507 l 0.006,0.0218 c -0.86707,-2.71221 -1.81176,-6.13738 -4.71864,-9.53541 -2.90266,-3.3931 -9.191821,-5.65251 -14.460627,-4.1944 -5.561209,1.52302 -10.135821,6.45553 -11.134818,11.28605 -1.000639,4.83845 0.127814,8.86567 1.284026,12.33761 4.299546,13.11359 8.923628,25.90753 12.68198,38.67832 l 0.004,0.0139 0.004,0.0119 c 2.584752,8.66716 9.679529,14.92845 18.075289,17.06075 l 0.0237,0.006 0.0257,0.006 c 26.37904,6.50808 41.95668,23.24291 50.86642,48.76426 5.05767,14.49836 5.90253,31.52571 1.72523,46.5839 -4.17749,15.05881 -13.07251,28.04793 -27.82321,35.96722 l -0.0614,0.0336 -0.0594,0.0336 c -4.92293,2.75947 -5.63502,6.13896 -6.62194,9.3948 -0.98312,3.24333 -1.64677,6.45799 -0.56386,10.59688 2.23052,9.06328 5.16592,17.76882 8.12755,26.48923 H 32.528382 c 4.320055,-43.25524 8.651654,-86.12643 13.047997,-129.82219 12.586436,6.28593 24.836316,12.39041 36.64123,18.2985 7.134894,3.57083 14.638378,8.09248 23.326141,11.26425 4.3457,1.63671 7.72527,0.48665 10.07832,-0.2713 2.35945,-0.76003 4.18695,-1.4975 4.91254,-1.6635 l 3.94568,-4.04674 1.50697,-5.94812 c -0.99963,-2.77085 -1.64578,-7.39303 -4.73844,-12.36335 -2.01417,-3.27591 -4.59211,-4.30175 -6.27371,-5.02813 -1.68772,-0.72901 -2.94076,-1.16284 -3.27239,-1.32882 l -0.0101,-0.004 -0.0101,-0.006 C 85.755297,276.55287 59.761221,263.6974 34.1072,250.55529 c 0.0013,6.9e-4 -1.120769,-0.85197 -1.711375,-1.53874 3.984967,-30.60102 8.348495,-61.10922 13.113286,-91.51419 l 0.002,-0.008 c 0.619169,-3.92538 1.099404,-7.12352 1.139598,-10.28202 0.04022,-3.16096 -0.428559,-6.72376 -2.603664,-9.84631 -2.175106,-3.12257 -5.441273,-4.83435 -8.501477,-5.84008 -1.242647,-0.40839 -2.560959,-0.71057 -3.907475,-1.00602 -0.0239,-25.59272 -0.183918,-51.203813 0.187954,-76.750644 0.05416,-2.280757 1.449535,-6.124034 3.38318,-9.81068 l 0.01781,-0.03565 0.01978,-0.03565 c 4.8492,-9.490207 17.821646,-14.634641 35.270104,-11.303667 h 0.002 l 0.004,0.002 c 16.483462,3.130614 25.217805,15.174298 26.984327,32.149086 v 0.006 0.0079 c 2.138897,20.199278 -2.577477,33.063591 -18.605514,44.393625 l -0.02769,0.0198 -0.02968,0.0218 c -2.73247,1.96926 -6.722845,4.41858 -9.03962,9.8998 l -0.02176,0.0516 -0.02176,0.0534 c -0.850131,2.09898 -1.854225,4.77747 -2.475063,7.77882 -0.620839,3.00136 -1.764884,6.79017 1.683676,11.46032 l 0.01583,0.0218 0.01583,0.0218 c 3.170595,4.2315 9.24173,6.46276 13.829493,5.52322 4.587763,-0.93955 7.730477,-3.47415 10.383001,-6.12921 l 0.02968,-0.0277 0.02769,-0.0297 c 9.307389,-9.51662 19.062019,-18.86895 28.448399,-28.78049 v -0.002 h 0.002 c 3.58208,-3.78468 5.22934,-7.93396 5.41903,-13.060444 l 0.004,-0.0653 v -0.0654 c 0.30635,-15.444837 0.20481,-30.839865 0.002,-46.183956 l -0.002,-0.09506 -0.004,-0.09703 C 126.98832,45.492476 126.02191,41.531827 123.63486,37.772059 115.31152,24.575408 104.33033,13.007664 88.974078,6.286391 l -0.01187,-0.006 C 79.947636,2.3208354 70.823144,0.27195335 62.015471,0.02450435 Z M 65.32347,227.61683 c -3.72643,-0.19707 -5.825986,0.9236 -7.96927,2.08136 -2.143284,1.15775 -4.04397,2.36411 -5.880007,4.93703 l -0.01187,0.0178 -0.01187,0.0178 c -3.210719,4.55286 -2.173865,7.05569 -1.782601,9.77702 0.195632,1.36065 0.500825,2.6783 1.090136,4.11319 0.589311,1.43489 1.158775,3.25574 4.103343,5.02416 l 0.04353,0.0257 0.04155,0.0237 c 11.902119,6.94089 24.140038,13.16443 37.236749,20.12239 l 4.651379,2.47148 3.943091,-3.49334 c 0.74092,-0.65606 2.08223,-1.5518 3.73139,-2.81805 1.62286,-1.24605 3.89141,-2.91883 5.26469,-6.44407 1.65997,-4.00442 0.96358,-6.48393 0.29875,-9.10369 -0.67475,-2.65889 -0.66857,-5.61793 -5.79888,-8.34127 -11.408425,-6.31762 -23.164524,-12.25174 -35.272131,-17.50039 -1.370515,-0.64726 -2.623669,-0.85523 -3.677972,-0.91097 z"
     id="XMLID_24_"
     inkscape:connector-curvature="0"
     sodipodi:nodetypes="sccccssccccccsccccccccccccccccscccsccccccccccccccscccccsccccccccccccccccccccccsccccccccscccccccccccccccccccccccscccccccccccccccccccscccccccccccccccccccscccccssccccccccscccc" /></svg>