<?xml version="1.0" encoding="UTF-8" standalone="no"?>
<svg
   xmlns:dc="http://purl.org/dc/elements/1.1/"
   xmlns:cc="http://creativecommons.org/ns#"
   xmlns:rdf="http://www.w3.org/1999/02/22-rdf-syntax-ns#"
   xmlns:svg="http://www.w3.org/2000/svg"
   xmlns="http://www.w3.org/2000/svg"
   xmlns:sodipodi="http://sodipodi.sourceforge.net/DTD/sodipodi-0.dtd"
   xmlns:inkscape="http://www.inkscape.org/namespaces/inkscape"
   viewBox="0 0 600 600"
   version="1.1"
   id="svg4"
   sodipodi:docname="price-list.svg"
   inkscape:version="0.92.2 (5c3e80d, 2017-08-06)"
   width="600"
   height="600">
  <metadata
     id="metadata10">
    <rdf:RDF>
      <cc:Work
         rdf:about="">
        <dc:format>image/svg+xml</dc:format>
        <dc:type
           rdf:resource="http://purl.org/dc/dcmitype/StillImage" />
        <dc:title></dc:title>
      </cc:Work>
    </rdf:RDF>
  </metadata>
  <defs
     id="defs8" />
  <sodipodi:namedview
     pagecolor="#ffffff"
     bordercolor="#666666"
     borderopacity="1"
     objecttolerance="10"
     gridtolerance="10"
     guidetolerance="10"
     inkscape:pageopacity="0"
     inkscape:pageshadow="2"
     inkscape:window-width="1920"
     inkscape:window-height="1058"
     id="namedview6"
     showgrid="false"
     inkscape:zoom="0.90509668"
     inkscape:cx="266.06415"
     inkscape:cy="262.39286"
     inkscape:window-x="-8"
     inkscape:window-y="-8"
     inkscape:window-maximized="1"
     inkscape:current-layer="svg4" />
  <path
     sodipodi:nodetypes="sssssssss"
     inkscape:connector-curvature="0"
     id="path814"
     d="m 173.27186,49.99976 c -10.0299,0 -18.1718,10.12714 -18.1718,22.60274 v 54.79452 c 0,12.4756 8.1419,22.60274 18.1718,22.60274 h 408.5563 c 10.03,0 18.1718,-10.12714 18.1718,-22.60274 V 72.6025 c 0,-12.4756 -8.1418,-22.60274 -18.1718,-22.60274 z"
     style="color:#000000;font-style:normal;font-variant:normal;font-weight:normal;font-stretch:normal;font-size:medium;line-height:normal;font-family:sans-serif;font-variant-ligatures:normal;font-variant-position:normal;font-variant-caps:normal;font-variant-numeric:normal;font-variant-alternates:normal;font-feature-settings:normal;text-indent:0;text-align:start;text-decoration:none;text-decoration-line:none;text-decoration-style:solid;text-decoration-color:#000000;letter-spacing:normal;word-spacing:normal;text-transform:none;writing-mode:lr-tb;direction:ltr;text-orientation:mixed;dominant-baseline:auto;baseline-shift:baseline;text-anchor:start;white-space:normal;shape-padding:0;clip-rule:nonzero;display:inline;overflow:visible;visibility:visible;opacity:1;isolation:auto;mix-blend-mode:normal;color-interpolation:sRGB;color-interpolation-filters:linearRGB;solid-color:#000000;solid-opacity:1;vector-effect:none;fill-opacity:1;fill-rule:nonzero;stroke:none;stroke-width:1.22827506;stroke-linecap:butt;stroke-linejoin:miter;stroke-miterlimit:4;stroke-dasharray:none;stroke-dashoffset:0;stroke-opacity:1;color-rendering:auto;image-rendering:auto;shape-rendering:auto;text-rendering:auto;enable-background:accumulate" />
  <path
     style="color:#000000;font-style:normal;font-variant:normal;font-weight:normal;font-stretch:normal;font-size:medium;line-height:normal;font-family:sans-serif;font-variant-ligatures:normal;font-variant-position:normal;font-variant-caps:normal;font-variant-numeric:normal;font-variant-alternates:normal;font-feature-settings:normal;text-indent:0;text-align:start;text-decoration:none;text-decoration-line:none;text-decoration-style:solid;text-decoration-color:#000000;letter-spacing:normal;word-spacing:normal;text-transform:none;writing-mode:lr-tb;direction:ltr;text-orientation:mixed;dominant-baseline:auto;baseline-shift:baseline;text-anchor:start;white-space:normal;shape-padding:0;clip-rule:nonzero;display:inline;overflow:visible;visibility:visible;opacity:1;isolation:auto;mix-blend-mode:normal;color-interpolation:sRGB;color-interpolation-filters:linearRGB;solid-color:#000000;solid-opacity:1;vector-effect:none;fill-opacity:1;fill-rule:nonzero;stroke:none;stroke-width:1.22827506;stroke-linecap:butt;stroke-linejoin:miter;stroke-miterlimit:4;stroke-dasharray:none;stroke-dashoffset:0;stroke-opacity:1;color-rendering:auto;image-rendering:auto;shape-rendering:auto;text-rendering:auto;enable-background:accumulate"
     d="m 173.27186,249.99976 c -10.0299,0 -18.1718,10.12714 -18.1718,22.60274 v 54.79452 c 0,12.4756 8.1419,22.60274 18.1718,22.60274 h 408.5563 c 10.03,0 18.1718,-10.12714 18.1718,-22.60274 V 272.6025 c 0,-12.4756 -8.1418,-22.60274 -18.1718,-22.60274 z"
     id="path816"
     inkscape:connector-curvature="0"
     sodipodi:nodetypes="sssssssss" />
  <path
     sodipodi:nodetypes="sssssssss"
     inkscape:connector-curvature="0"
     id="path818"
     d="m 173.27186,449.99976 c -10.0299,0 -18.1718,10.12714 -18.1718,22.60274 v 54.7945 c 0,12.4756 8.1419,22.6028 18.1718,22.6028 h 408.5563 c 10.03,0 18.1718,-10.1272 18.1718,-22.6028 v -54.7945 c 0,-12.4756 -8.1418,-22.60274 -18.1718,-22.60274 z"
     style="color:#000000;font-style:normal;font-variant:normal;font-weight:normal;font-stretch:normal;font-size:medium;line-height:normal;font-family:sans-serif;font-variant-ligatures:normal;font-variant-position:normal;font-variant-caps:normal;font-variant-numeric:normal;font-variant-alternates:normal;font-feature-settings:normal;text-indent:0;text-align:start;text-decoration:none;text-decoration-line:none;text-decoration-style:solid;text-decoration-color:#000000;letter-spacing:normal;word-spacing:normal;text-transform:none;writing-mode:lr-tb;direction:ltr;text-orientation:mixed;dominant-baseline:auto;baseline-shift:baseline;text-anchor:start;white-space:normal;shape-padding:0;clip-rule:nonzero;display:inline;overflow:visible;visibility:visible;opacity:1;isolation:auto;mix-blend-mode:normal;color-interpolation:sRGB;color-interpolation-filters:linearRGB;solid-color:#000000;solid-opacity:1;vector-effect:none;fill-opacity:1;fill-rule:nonzero;stroke:none;stroke-width:1.22827506;stroke-linecap:butt;stroke-linejoin:miter;stroke-miterlimit:4;stroke-dasharray:none;stroke-dashoffset:0;stroke-opacity:1;color-rendering:auto;image-rendering:auto;shape-rendering:auto;text-rendering:auto;enable-background:accumulate" />
  <path
     style="color:#000000;font-style:normal;font-variant:normal;font-weight:normal;font-stretch:normal;font-size:medium;line-height:normal;font-family:sans-serif;font-variant-ligatures:normal;font-variant-position:normal;font-variant-caps:normal;font-variant-numeric:normal;font-variant-alternates:normal;font-feature-settings:normal;text-indent:0;text-align:start;text-decoration:none;text-decoration-line:none;text-decoration-style:solid;text-decoration-color:#000000;letter-spacing:normal;word-spacing:normal;text-transform:none;writing-mode:lr-tb;direction:ltr;text-orientation:mixed;dominant-baseline:auto;baseline-shift:baseline;text-anchor:start;white-space:normal;shape-padding:0;clip-rule:nonzero;display:inline;overflow:visible;visibility:visible;opacity:1;isolation:auto;mix-blend-mode:normal;color-interpolation:sRGB;color-interpolation-filters:linearRGB;solid-color:#000000;solid-opacity:1;vector-effect:none;fill:#000000;fill-opacity:1;fill-rule:nonzero;stroke:none;stroke-width:10.62603378;stroke-linecap:butt;stroke-linejoin:miter;stroke-miterlimit:4;stroke-dasharray:none;stroke-dashoffset:0;stroke-opacity:1;color-rendering:auto;image-rendering:auto;shape-rendering:auto;text-rendering:auto;enable-background:accumulate"
     d="m 48.117261,14.99976 c -7.021,0 -13.0059,5.61579 -13.0059,12.70507 v 7.53711 c -20.9649,3.56185 -36.9891005,21.96471 -34.93360049,43.6836 -0.054,1.60389 0.4322,3.91939 0.88279999,4.8125 3.478,15.19397 15.9942005,26.86822 31.1641005,31.13477 l 32.123,9.03125 c 0.5784,0.16627 0.8692,0.67063 0.8692,0.94922 0,0.59797 -0.2932,1.0039 -1.2618,1.0039 h -20.7929 c -2.2418,0 -4.5138,-0.68407 -6.3008,-1.84765 l -0.049,-0.0312 c -5.1259,-3.30944 -11.7183,-2.54335 -16.0059,1.49609 L 9.9119605,135.69903 c -5.7557,5.38159 -4.9113,14.80129 1.2402005,19.38476 7.0015,5.26434 15.2928,8.46393 23.959,9.75977 v 7.45313 c 0,7.08929 5.9849,12.70312 13.0059,12.70312 h 10.0351 c 7.021,0 13.0079,-5.61383 13.0079,-12.70312 v -7.59376 c 14.5268,-2.69104 27.5071,-11.93575 32.679599,-26.16406 8.2901,-22.81572 -5.706099,-46.65468 -28.068299,-52.92774 l -1.627,-0.45703 -0.9277,-0.26172 -31.125,-8.74804 -0.018,-0.006 -0.2051,-0.0566 c -0.4748,-0.13136 -0.8144,-0.66918 -0.8144,-0.93555 0,-0.59795 0.2931,-1.00195 1.2617,-1.00195 h 20.791 c 2.2433,0 4.5172,0.68265 6.3047,1.84765 l 0.047,0.0293 c 1.6625,1.0734 3.4837,1.56923 5.3262,1.8125 l 2.2201,-0.55273 3.7002,-1.86441 15.6578,-11.11996 c 5.751599,-5.38264 4.907999,-14.80343 -1.2481,-19.38477 -7.0005,-5.26154 -15.2913,-8.4605 -23.955,-9.75586 v -7.45117 c 0,-7.08931 -5.9849,-12.70313 -13.0059,-12.70313 z"
     id="path820"
     inkscape:connector-curvature="0"
     sodipodi:nodetypes="cscccccsssccccccsssscccccccccssccccccccscc" />
  <path
     style="color:#000000;font-style:normal;font-variant:normal;font-weight:normal;font-stretch:normal;font-size:medium;line-height:normal;font-family:sans-serif;font-variant-ligatures:normal;font-variant-position:normal;font-variant-caps:normal;font-variant-numeric:normal;font-variant-alternates:normal;font-feature-settings:normal;text-indent:0;text-align:start;text-decoration:none;text-decoration-line:none;text-decoration-style:solid;text-decoration-color:#000000;letter-spacing:normal;word-spacing:normal;text-transform:none;writing-mode:lr-tb;direction:ltr;text-orientation:mixed;dominant-baseline:auto;baseline-shift:baseline;text-anchor:start;white-space:normal;shape-padding:0;clip-rule:nonzero;display:inline;overflow:visible;visibility:visible;opacity:1;isolation:auto;mix-blend-mode:normal;color-interpolation:sRGB;color-interpolation-filters:linearRGB;solid-color:#000000;solid-opacity:1;vector-effect:none;fill:#000000;fill-opacity:1;fill-rule:nonzero;stroke:none;stroke-width:10.62603378;stroke-linecap:butt;stroke-linejoin:miter;stroke-miterlimit:4;stroke-dasharray:none;stroke-dashoffset:0;stroke-opacity:1;color-rendering:auto;image-rendering:auto;shape-rendering:auto;text-rendering:auto;enable-background:accumulate"
     d="m 48.117261,214.99971 c -7.021,0 -13.0059,5.61579 -13.0059,12.70507 v 7.53711 c -20.9649,3.56185 -36.9890005,21.96471 -34.93360049,43.6836 -0.054,1.60389 0.4322,3.91939 0.88279999,4.8125 3.478,15.19397 15.9942005,26.86822 31.1641005,31.13477 l 32.123,9.03125 c 0.5785,0.16627 0.8692,0.67063 0.8692,0.94922 0,0.59797 -0.2932,1.0039 -1.2617,1.0039 h -20.793 c -2.2418,0 -4.5138,-0.68407 -6.3008,-1.84765 l -0.049,-0.0312 c -5.1258,-3.30944 -11.7182,-2.54335 -16.0058,1.49609 L 9.9119605,335.69898 c -5.7557,5.38159 -4.9113,14.80129 1.2403005,19.38476 7.0014,5.26434 15.2928,8.46393 23.9589,9.75977 v 7.45313 c 0,7.08929 5.985,12.70312 13.0059,12.70312 h 10.0352 c 7.0209,0 13.0078,-5.61383 13.0078,-12.70312 v -7.59376 c 14.5269,-2.69104 27.5071,-11.93575 32.679699,-26.16406 8.2901,-22.81572 -5.706199,-46.65468 -28.068399,-52.92774 l -1.627,-0.45703 -0.9277,-0.26172 -31.125,-8.74804 -0.018,-0.006 -0.2051,-0.0566 c -0.4748,-0.13136 -0.8144,-0.66918 -0.8144,-0.93555 0,-0.59795 0.2931,-1.00195 1.2617,-1.00195 h 20.791 c 2.2433,0 4.5172,0.68265 6.3047,1.84765 l 0.047,0.0293 c 1.6626,1.0734 3.4837,1.56923 5.3262,1.8125 l 2.2201,-0.55273 3.7002,-1.86441 15.6578,-11.11996 c 5.751599,-5.38264 4.907999,-14.80343 -1.248,-19.38477 -7.0006,-5.26154 -15.2914,-8.4605 -23.9551,-9.75586 v -7.45117 c 0,-7.08931 -5.9849,-12.70313 -13.0059,-12.70313 z"
     id="path856"
     inkscape:connector-curvature="0"
     sodipodi:nodetypes="cscccccsssccccccsssscccccccccssccccccccscc" />
  <path
     sodipodi:nodetypes="cscccccsssccccccsssscccccccccssccccccccscc"
     inkscape:connector-curvature="0"
     id="path860"
     d="m 48.117261,414.99971 c -7.021,0 -13.0059,5.61579 -13.0059,12.70508 v 7.53711 c -20.9649,3.56185 -36.9890005,21.96471 -34.93360049,43.68359 -0.054,1.60389 0.4322,3.9194 0.88279999,4.8125 3.478,15.19401 15.9942005,26.86821 31.1641005,31.13481 l 32.123,9.0312 c 0.5785,0.1663 0.8692,0.6706 0.8692,0.9492 0,0.598 -0.2932,1.0039 -1.2617,1.0039 h -20.793 c -2.2418,0 -4.5138,-0.684 -6.3008,-1.8476 l -0.049,-0.031 c -5.1258,-3.3095 -11.7182,-2.5434 -16.0058,1.4961 L 9.9119605,535.6992 c -5.7557,5.3816 -4.9113,14.8013 1.2403005,19.3847 7.0014,5.2644 15.2928,8.464 23.9589,9.7598 v 7.4531 c 0,7.0893 5.985,12.7032 13.0059,12.7032 h 10.0352 c 7.0209,0 13.0078,-5.6139 13.0078,-12.7032 v -7.5937 c 14.5269,-2.6911 27.5071,-11.9358 32.679699,-26.1641 8.2901,-22.8157 -5.706199,-46.65466 -28.068399,-52.92771 l -1.627,-0.45703 -0.9277,-0.26172 -31.125,-8.74805 -0.018,-0.006 -0.2051,-0.0566 c -0.4748,-0.13135 -0.8144,-0.66917 -0.8144,-0.93555 0,-0.59795 0.2931,-1.00195 1.2617,-1.00195 h 20.791 c 2.2433,0 4.5172,0.68266 6.3047,1.84766 l 0.047,0.0293 c 1.6626,1.07339 3.4837,1.56923 5.3262,1.8125 l 2.2201,-0.55274 3.7002,-1.8644 15.6578,-11.11997 c 5.751599,-5.38264 4.907999,-14.80342 -1.248,-19.38477 -7.0006,-5.26154 -15.2914,-8.4605 -23.9551,-9.75586 v -7.45117 c 0,-7.08931 -5.9849,-12.70312 -13.0059,-12.70312 z"
     style="color:#000000;font-style:normal;font-variant:normal;font-weight:normal;font-stretch:normal;font-size:medium;line-height:normal;font-family:sans-serif;font-variant-ligatures:normal;font-variant-position:normal;font-variant-caps:normal;font-variant-numeric:normal;font-variant-alternates:normal;font-feature-settings:normal;text-indent:0;text-align:start;text-decoration:none;text-decoration-line:none;text-decoration-style:solid;text-decoration-color:#000000;letter-spacing:normal;word-spacing:normal;text-transform:none;writing-mode:lr-tb;direction:ltr;text-orientation:mixed;dominant-baseline:auto;baseline-shift:baseline;text-anchor:start;white-space:normal;shape-padding:0;clip-rule:nonzero;display:inline;overflow:visible;visibility:visible;opacity:1;isolation:auto;mix-blend-mode:normal;color-interpolation:sRGB;color-interpolation-filters:linearRGB;solid-color:#000000;solid-opacity:1;vector-effect:none;fill:#000000;fill-opacity:1;fill-rule:nonzero;stroke:none;stroke-width:10.62603378;stroke-linecap:butt;stroke-linejoin:miter;stroke-miterlimit:4;stroke-dasharray:none;stroke-dashoffset:0;stroke-opacity:1;color-rendering:auto;image-rendering:auto;shape-rendering:auto;text-rendering:auto;enable-background:accumulate" />
</svg>
