<?xml version="1.0" encoding="UTF-8" standalone="no"?>
<!-- Generator: Adobe Illustrator 16.0.0, SVG Export Plug-In . SVG Version: 6.00 Build 0)  -->

<svg
   xmlns:dc="http://purl.org/dc/elements/1.1/"
   xmlns:cc="http://creativecommons.org/ns#"
   xmlns:rdf="http://www.w3.org/1999/02/22-rdf-syntax-ns#"
   xmlns:svg="http://www.w3.org/2000/svg"
   xmlns="http://www.w3.org/2000/svg"
   xmlns:sodipodi="http://sodipodi.sourceforge.net/DTD/sodipodi-0.dtd"
   xmlns:inkscape="http://www.inkscape.org/namespaces/inkscape"
   version="1.1"
   id="Capa_1"
   x="0px"
   y="0px"
   width="512px"
   height="512px"
   viewBox="0 0 585.225 585.225"
   style="enable-background:new 0 0 585.225 585.225;"
   xml:space="preserve"
   sodipodi:docname="role.svg"
   inkscape:version="0.92.2 (5c3e80d, 2017-08-06)"><metadata
     id="metadata46"><rdf:RDF><cc:Work
         rdf:about=""><dc:format>image/svg+xml</dc:format><dc:type
           rdf:resource="http://purl.org/dc/dcmitype/StillImage" /><dc:title></dc:title></cc:Work></rdf:RDF></metadata><defs
     id="defs44" /><sodipodi:namedview
     pagecolor="#ffffff"
     bordercolor="#666666"
     borderopacity="1"
     objecttolerance="10"
     gridtolerance="10"
     guidetolerance="10"
     inkscape:pageopacity="0"
     inkscape:pageshadow="2"
     inkscape:window-width="1366"
     inkscape:window-height="706"
     id="namedview42"
     showgrid="false"
     inkscape:zoom="0.4609375"
     inkscape:cx="146.44068"
     inkscape:cy="342.77966"
     inkscape:window-x="1912"
     inkscape:window-y="334"
     inkscape:window-maximized="1"
     inkscape:current-layer="Capa_1" /><g
     id="g9"
     style="fill:#000000;fill-opacity:1"><g
       id="Layer_1_111_"
       style="fill:#000000;fill-opacity:1"><g
         id="g6"
         style="fill:#000000;fill-opacity:1"><path
           d="M477.443,76.5h-114.75V15.3c0-8.925-7.649-15.3-16.574-15.3H237.743c-8.925,0-15.3,7.65-15.3,15.3v61.2h-114.75     c-15.3,0-26.775,12.75-26.775,26.775V558.45c0,15.3,11.475,26.774,26.775,26.774h369.75c15.301,0,26.775-11.475,26.775-26.774     V103.275C505.494,89.25,492.744,76.5,477.443,76.5z M189.293,121.125c0-8.925,7.65-15.3,16.575-15.3h17.85v12.75     c0,8.925,6.375,15.3,15.3,15.3h108.375c8.925,0,16.575-6.375,16.575-15.3V104.55h17.85c8.926,0,16.575,6.375,16.575,15.3v24.225     c0,8.925-7.649,15.3-16.575,15.3H204.593c-8.925,0-16.575-7.65-16.575-15.3L189.293,121.125L189.293,121.125z M441.744,540.6     H144.668c-10.2,0-19.125-8.925-19.125-19.125s8.925-19.125,19.125-19.125h297.075c10.199,0,19.125,8.925,19.125,19.125     C460.869,532.95,451.943,540.6,441.744,540.6z M462.143,402.899c0,15.301-12.75,28.051-26.774,28.051h-58.65v-42.075     c0-31.875-26.775-57.375-58.65-57.375h-51c-31.875,0-57.375,25.5-57.375,57.375v42.075h-59.925     c-15.3,0-26.775-12.75-26.775-28.051V230.775c0-15.3,11.475-26.775,26.775-26.775h284.325c15.3,0,26.775,12.75,26.775,26.775     L462.143,402.899L462.143,402.899z"
           fill="#006DF0"
           id="path2"
           style="fill:#000000;fill-opacity:1" /><circle
           cx="292.568"
           cy="270.3"
           r="51"
           fill="#006DF0"
           id="circle4"
           style="fill:#000000;fill-opacity:1" /></g></g></g><g
     id="g11"
     style="fill:#ffffff;fill-opacity:1" /><g
     id="g13"
     style="fill:#ffffff;fill-opacity:1" /><g
     id="g15"
     style="fill:#ffffff;fill-opacity:1" /><g
     id="g17"
     style="fill:#ffffff;fill-opacity:1" /><g
     id="g19"
     style="fill:#ffffff;fill-opacity:1" /><g
     id="g21"
     style="fill:#ffffff;fill-opacity:1" /><g
     id="g23"
     style="fill:#ffffff;fill-opacity:1" /><g
     id="g25"
     style="fill:#ffffff;fill-opacity:1" /><g
     id="g27"
     style="fill:#ffffff;fill-opacity:1" /><g
     id="g29"
     style="fill:#ffffff;fill-opacity:1" /><g
     id="g31"
     style="fill:#ffffff;fill-opacity:1" /><g
     id="g33"
     style="fill:#ffffff;fill-opacity:1" /><g
     id="g35"
     style="fill:#ffffff;fill-opacity:1" /><g
     id="g37"
     style="fill:#ffffff;fill-opacity:1" /><g
     id="g39"
     style="fill:#ffffff;fill-opacity:1" /></svg>