<?xml version="1.0" encoding="UTF-8" standalone="no"?>
<svg
   xmlns:dc="http://purl.org/dc/elements/1.1/"
   xmlns:cc="http://creativecommons.org/ns#"
   xmlns:rdf="http://www.w3.org/1999/02/22-rdf-syntax-ns#"
   xmlns:svg="http://www.w3.org/2000/svg"
   xmlns="http://www.w3.org/2000/svg"
   xmlns:sodipodi="http://sodipodi.sourceforge.net/DTD/sodipodi-0.dtd"
   xmlns:inkscape="http://www.inkscape.org/namespaces/inkscape"
   height="480"
   width="640"
   id="svg4"
   version="1.1"
   viewBox="0 0 640 480"
   sodipodi:docname="separation-factors.svg"
   inkscape:version="0.92.2 (5c3e80d, 2017-08-06)">
  <sodipodi:namedview
     pagecolor="#ffffff"
     bordercolor="#666666"
     borderopacity="1"
     objecttolerance="10"
     gridtolerance="10"
     guidetolerance="10"
     inkscape:pageopacity="0"
     inkscape:pageshadow="2"
     inkscape:window-width="1920"
     inkscape:window-height="1058"
     id="namedview6"
     showgrid="false"
     inkscape:zoom="0.8875"
     inkscape:cx="325.76901"
     inkscape:cy="268.78368"
     inkscape:window-x="-8"
     inkscape:window-y="-8"
     inkscape:window-maximized="1"
     inkscape:current-layer="svg4" />
  <metadata
     id="metadata10">
    <rdf:RDF>
      <cc:Work
         rdf:about="">
        <dc:format>image/svg+xml</dc:format>
        <dc:type
           rdf:resource="http://purl.org/dc/dcmitype/StillImage" />
        <dc:title></dc:title>
      </cc:Work>
    </rdf:RDF>
  </metadata>
  <defs
     id="defs8" />
  <path
     style="fill:#000000;fill-opacity:1;stroke-width:1.13330102"
     d="m 284.53314,0 v 150.60035 l 31.14656,19.77044 -58.52414,40.00241 c -11.11852,7.54267 -14.04452,19.08679 -14.18883,29.21755 -0.1443,10.13074 2.46524,21.6347 13.09136,29.6286 l 44.8136,33.99339 -16.33855,12.39303 V 480 h 56.38834 V 353.83413 l 28.53245,-21.64362 c 10.33086,-7.83661 13.03744,-19.02048 13.03744,-28.97957 0,-9.95676 -2.70564,-21.1378 -13.03048,-28.97417 l -0.005,-0.003 -42.86042,-32.54386 62.54181,-42.70674 0.0226,-0.0162 c 11.35806,-7.80802 14.19106,-19.79379 14.08969,-30.19291 -0.10136,-10.39912 -3.15663,-22.43142 -14.88975,-29.88281 l -0.0174,-0.0108 -47.42074,-29.96214 V 0 Z M 8.904977,18.501202 C 4.00724,18.501202 0,22.655048 0,27.73197 v 55.384626 c 0,5.076914 4.00724,9.230758 8.904977,9.230758 H 35.619908 V 369.27043 c 0,50.88462 39.96108,92.30769 89.049772,92.30769 49.08868,0 89.03341,-41.42307 89.04977,-92.30769 V 92.347354 h 26.71493 c 4.89774,0 8.90498,-4.153844 8.90498,-9.230758 V 27.73197 c 0,-5.076922 -4.00724,-9.230768 -8.90498,-9.230768 z m 390.660643,0 c -4.89774,0 -8.90498,4.153846 -8.90498,9.230768 v 55.384626 c 0,5.076914 4.00724,9.230758 8.90498,9.230758 h 26.71493 V 369.27043 c 0,50.88462 39.96107,92.30769 89.04977,92.30769 49.08868,0 89.06613,-41.42307 89.04977,-92.30769 V 92.347354 h 26.71493 c 4.89774,0 8.90498,-4.153844 8.90498,-9.230758 V 27.73197 c 0,-5.076922 -4.00724,-9.230768 -8.90498,-9.230768 z M 89.04977,92.347354 h 71.23982 V 203.1166 H 89.04977 Z m 390.66064,0 h 71.23982 V 203.1166 h -71.23982 z"
     id="path2"
     inkscape:connector-curvature="0" />
</svg>
