<?xml version="1.0" encoding="UTF-8" standalone="no"?>
<!-- Generator: Adobe Illustrator 19.0.0, SVG Export Plug-In . SVG Version: 6.00 Build 0)  -->

<svg
   xmlns:dc="http://purl.org/dc/elements/1.1/"
   xmlns:cc="http://creativecommons.org/ns#"
   xmlns:rdf="http://www.w3.org/1999/02/22-rdf-syntax-ns#"
   xmlns:svg="http://www.w3.org/2000/svg"
   xmlns="http://www.w3.org/2000/svg"
   xmlns:sodipodi="http://sodipodi.sourceforge.net/DTD/sodipodi-0.dtd"
   xmlns:inkscape="http://www.inkscape.org/namespaces/inkscape"
   version="1.1"
   id="Layer_1"
   sodipodi:docname="sphygmomanometer.svg"
   inkscape:version="0.92.2 (5c3e80d, 2017-08-06)"
   x="0px"
   y="0px"
   viewBox="-18 129.5 500.00002 465"
   xml:space="preserve"
   width="500"
   height="465"
   inkscape:export-filename="C:\Users\mpoladian\Pictures\ehope\patient_card_vectors\hypertension\hypertensionMachine.png"
   inkscape:export-xdpi="64.949997"
   inkscape:export-ydpi="64.949997"><metadata
     id="metadata13"><rdf:RDF><cc:Work
         rdf:about=""><dc:format>image/svg+xml</dc:format><dc:type
           rdf:resource="http://purl.org/dc/dcmitype/StillImage" /><dc:title /></cc:Work></rdf:RDF></metadata><defs
     id="defs11" /><sodipodi:namedview
     inkscape:cy="484.10604"
     inkscape:zoom="0.62325752"
     guidetolerance="10"
     showgrid="false"
     objecttolerance="10"
     borderopacity="1"
     pagecolor="#ffffff"
     bordercolor="#666666"
     gridtolerance="10"
     inkscape:cx="-363.4379"
     id="namedview104"
     inkscape:pageshadow="2"
     inkscape:pageopacity="0"
     inkscape:window-width="1920"
     inkscape:window-height="1058"
     inkscape:window-y="-8"
     inkscape:window-x="-8"
     inkscape:current-layer="Layer_1"
     inkscape:window-maximized="1" /><path
     style="color:#000000;font-style:normal;font-variant:normal;font-weight:normal;font-stretch:normal;font-size:medium;line-height:normal;font-family:sans-serif;font-variant-ligatures:normal;font-variant-position:normal;font-variant-caps:normal;font-variant-numeric:normal;font-variant-alternates:normal;font-feature-settings:normal;text-indent:0;text-align:start;text-decoration:none;text-decoration-line:none;text-decoration-style:solid;text-decoration-color:#000000;letter-spacing:normal;word-spacing:normal;text-transform:none;writing-mode:lr-tb;direction:ltr;text-orientation:mixed;dominant-baseline:auto;baseline-shift:baseline;text-anchor:start;white-space:normal;shape-padding:0;clip-rule:nonzero;display:inline;overflow:visible;visibility:visible;opacity:1;isolation:auto;mix-blend-mode:normal;color-interpolation:sRGB;color-interpolation-filters:linearRGB;solid-color:#000000;solid-opacity:1;vector-effect:none;fill:#000000;fill-opacity:1;fill-rule:nonzero;stroke:none;stroke-width:2.60369039;stroke-linecap:square;stroke-linejoin:miter;stroke-miterlimit:4;stroke-dasharray:none;stroke-dashoffset:0;stroke-opacity:1;color-rendering:auto;image-rendering:auto;shape-rendering:auto;text-rendering:auto;enable-background:accumulate"
     d="m 314.25,0 c -32.72068,0 -59.41016,26.726967 -59.41016,59.492188 0,32.765209 26.68948,59.490232 59.41016,59.490232 32.72068,0 59.41016,-26.725022 59.41016,-59.490232 C 373.66016,26.726968 346.97068,0 314.25,0 Z m 0,15.816406 c 24.18492,0 43.61719,19.457952 43.61719,43.675782 0,24.217829 -19.43224,43.671872 -43.61719,43.671872 -24.18495,0 -43.61328,-19.454012 -43.61328,-43.671872 0,-24.217871 19.42837,-43.675782 43.61328,-43.675782 z m 1.58594,36.039063 c -4.7683,0 -8.67383,3.910767 -8.67383,8.685547 0,4.77479 3.90553,8.685546 8.67383,8.685546 4.76829,0 8.67383,-3.910756 8.67383,-8.685546 0,-4.77478 -3.90554,-8.685547 -8.67383,-8.685547 z m -19.02539,1.193359 -0.0645,0.0098 c -6.84144,1.37645 -13.68121,2.762518 -20.52929,4.105468 7.07649,2.362501 12.74838,4.582579 19.24804,6.480469 l 0.0117,0.0059 0.0449,0.01172 c 0.91285,0.23846 2.26483,0.745786 3.85352,0.353516 0.88633,-0.21884 1.71915,-0.761601 2.28906,-1.613281 0.53741,-0.80312 0.78909,-1.744867 0.89844,-2.785156 l 0.002,-0.03711 c 0.14116,-1.46868 0.21209,-3.102226 -0.76757,-4.541016 -1.03135,-1.51469 -2.8997,-2.041411 -4.91602,-1.988281 z m 149.51757,68.839842 c -17.34383,-0.17632 -33.65344,7.40646 -43.88867,20.74805 -11.0417,14.41797 -10.67457,30.94052 -10.58789,47.3457 0.0876,16.1377 4.59668,31.43819 18.17383,40.32422 5.51472,3.61068 8.43251,7.48951 9.95313,11.85938 1.5206,4.36987 1.62178,9.28787 1.27734,14.89257 -0.26603,4.43975 0.29226,7.56203 2.28125,9.60352 1.98784,2.04029 5.14414,2.77569 9.64453,2.95312 1.76483,0.0841 2.80608,0.36057 3.25781,0.79297 0.45173,0.43238 0.67945,1.24352 0.4336,3.08985 -0.87673,6.40987 -0.96401,12.83022 -1.90625,19.09179 -3.37372,22.52208 -8.989,44.27828 -21.29688,63.58399 -22.30534,35.04988 -64.79212,41.37191 -96.36328,14.48437 l -0.002,-0.002 c -10.63271,-9.10221 -18.41231,-20.85695 -27.20313,-31.92578 l -0.004,-0.008 -0.004,-0.004 c -0.9211,-1.12285 -1.08059,-1.7332 -0.97852,-2.27148 0.10207,-0.53829 0.61144,-1.24952 1.54102,-2.22266 l 0.004,-0.004 0.002,-0.002 c 3.99767,-4.26419 8.01519,-8.7218 11.4375,-13.55469 l 0.002,-0.002 v -0.002 c 17.73563,-25.2836 23.48154,-54.38851 25.22071,-84.25586 1.65157,-28.46305 0.1731,-56.99998 -3.12696,-85.34961 v -0.002 -0.004 c -0.16653,-1.37566 -0.14204,-2.39554 0.0117,-3.10156 0.15381,-0.70602 0.40033,-1.08282 0.75781,-1.36329 0.71494,-0.56093 2.23573,-0.72604 4.4961,-0.64062 4.53182,0.17125 9.38019,0.91798 14.07812,-1.11133 6.16163,-2.65786 9.52015,-11.06491 6.69532,-17.47656 v -0.004 l -0.002,-0.002 c -1.4795,-3.28707 -3.7957,-4.68402 -6.22656,-4.83008 -2.43086,-0.14605 -4.91388,0.76274 -7.25586,1.58789 h -0.002 l -0.002,0.002 c -15.0856,5.40729 -29.9334,5.15183 -44.94531,-0.34571 h -0.002 c -4.47011,-1.62771 -8.20963,-1.29552 -10.57227,0.8711 -2.36264,2.16663 -3.14037,5.92183 -2.28515,10.60937 0.63557,3.58496 2.15506,6.26977 4.42578,8.06055 2.27032,1.79045 5.23119,2.67307 8.68164,2.89843 2.59131,0.18534 5.28713,-0.33029 7.71679,-0.48828 2.42967,-0.15798 4.48908,0.0276 6.00586,1.32422 1.59258,1.37358 1.92715,3.3511 1.90625,5.7793 -0.0209,2.42916 -0.44939,5.17252 -0.12304,7.74023 3.89714,33.39121 5.27708,66.7396 -0.25391,99.97071 -3.71465,21.7972 -10.6027,42.10036 -25.89062,58.78515 l -0.002,0.004 -0.002,0.002 c -1.90742,2.12223 -3.30379,3.14192 -4.55859,3.26758 -1.25479,0.12565 -2.7446,-0.57269 -4.97657,-2.55469 l -0.002,-0.002 -0.002,-0.002 c -17.79699,-15.62649 -39.01623,-20.20733 -62.00977,-16.79492 -2.47826,0.34228 -3.9506,0.29525 -4.59961,-0.15626 -0.3245,-0.22575 -0.5648,-0.55985 -0.75,-1.24023 -0.18521,-0.68037 -0.27687,-1.68089 -0.25586,-3.02734 0.34728,-23.12569 -0.25866,-46.22556 0.34766,-69.29688 v -0.002 c 0.13331,-5.25093 -0.91935,-9.50983 -3.15039,-12.98633 -2.23105,-3.47651 -5.60794,-6.13468 -9.99414,-8.30859 h -0.002 c -14.00309,-6.92342 -28.93062,-10.06374 -44.05859,-12.24024 -26.00241,-3.74457 -52.183977,-4.26734 -78.275389,-1.48047 -19.28181,2.00049 -38.472859,4.96002 -56.316407,13.71875 l -0.002,0.002 c -4.2992168,2.13035 -7.5497541,4.7057 -9.6933591,8.0625 -2.14335502,3.35639 -3.14961877,7.4556 -3.10546877,12.52343 0.34689099,56.7069 0.17382812,113.50282 0.17382812,170.2168 0,8.76431 0.51813425,14.16959 3.26953125,18.26758 2.751398,4.09799 7.5595965,6.62537 15.7480465,9.89648 h 0.002 v 0.002 c 25.21325,10.04739 51.69797,12.56836 78.378907,12.56836 h 0.0039 0.002 c 12.065532,-0.0857 22.446382,3.21304 31.212892,11.90625 l 0.002,0.002 c 6.86074,6.78199 14.94165,11.58965 25.02735,13.0957 1.49196,0.22298 2.70706,0.30527 3.74414,0.19141 1.03708,-0.11384 1.92566,-0.44927 2.58398,-1.07227 1.31665,-1.24599 1.51758,-3.22432 1.51758,-5.97265 v -0.002 c -0.17346,-59.22913 -0.17346,-118.54534 0,-177.86132 v -0.002 c 0,-2.46729 -0.31387,-4.41055 -1.41797,-5.83203 -1.10409,-1.42148 -2.91426,-2.1067 -5.38477,-2.24414 h -0.002 -0.004 c -10.55351,-0.50725 -18.58151,-6.15599 -25.97852,-13.30469 -7.8651,-7.61033 -17.23396,-11.27492 -28.17578,-11.36328 h -0.004 c -25.020403,-0.086 -49.819028,-2.08206 -73.718748,-9.77148 h -0.002 l -0.0039,-0.002 C 19.603324,235.19866 12.286497,232.66277 6.6582031,227.00781 25.038489,213.87318 63.836128,207.08625 102.54102,207.12891 c 38.7187,0.0427 77.23438,6.92827 95.00781,20.05859 -3.68768,3.64622 -7.81305,5.80323 -12.11133,6.66406 l -0.043,0.01 -0.041,0.0117 c -2.94182,0.9064 -4.89761,2.25805 -6.03321,4.17773 -1.13559,1.91969 -1.43164,4.27718 -1.43164,7.16211 v 0.002 0.002 c 0.26017,58.27204 0.17383,116.54592 0.17383,174.82226 0,1.59069 0.0837,3.04474 0.002,4.54102 -0.0958,1.34342 0.15324,2.4744 1.01367,3.10742 0.86044,0.63302 1.93602,0.60557 3.1875,0.41992 h 0.008 l 0.008,-0.002 c 12.97846,-2.15108 22.14844,-13.13975 22.14844,-26.47656 0,-13.69587 0.0314,-27.36895 0.0449,-41.04102 0.21525,0.0106 0.36217,0.0347 0.60547,0.0469 h 0.0215 0.0215 c 0.83274,0 1.55875,-0.0909 2.10742,-0.18165 0.98441,-0.0933 1.72379,-0.27265 2.07031,-0.35937 l 0.0117,-0.004 c 2.30857,-0.51376 3.48322,-0.7834 4.73633,-1.22851 l 0.0137,-0.004 c 1.56692,-0.47446 5.45601,-1.14967 10.39258,-1.9082 4.94732,-0.76018 10.99679,-1.62642 17.0957,-2.56641 6.09893,-0.93998 12.24604,-1.95385 17.40039,-3.01367 5.15434,-1.05982 9.26872,-2.11924 11.54297,-3.3418 1.69278,-0.90957 2.71917,-1.10341 3.5293,-0.875 0.81014,0.2284 1.6471,0.98095 2.73633,2.44922 5.65718,7.66922 11.73701,14.97326 17.62695,22.34571 v 0.002 h 0.002 c 34.85815,43.41274 102.59623,44.24673 133.76563,-6.86524 v -0.002 c 16.56387,-27.14989 23.97212,-56.75023 25.53906,-88.12305 v -0.002 c 0.13012,-2.38788 0.28752,-4.3517 1,-5.51758 0.35642,-0.58324 0.82099,-1.00484 1.59961,-1.31445 0.7786,-0.30961 1.89028,-0.4819 3.4375,-0.41992 h 0.002 c 3.65427,0.13721 6.46991,-0.97688 8.27149,-3.0957 1.80158,-2.11884 2.56068,-5.12128 2.51562,-8.64063 v -0.002 -0.002 c -0.0855,-4.62573 0.35399,-9.25211 -0.0898,-13.96289 V 244 v -0.002 c -0.20442,-2.08791 0.0932,-3.55299 0.83398,-4.79883 0.74079,-1.24583 1.97934,-2.3133 3.78125,-3.4043 11.10035,-6.61846 18.62227,-16.45858 22.49414,-28.79492 v -0.004 l 0.002,-0.002 c 3.44919,-11.15868 2.29334,-22.72135 2.20703,-33.87109 -0.17647,-22.17783 -14.82255,-41.79212 -35.90821,-48.41797 -5.89344,-1.84971 -11.7886,-2.72833 -17.50586,-2.81641 h -0.002 z m -223.625,196.87305 c 12.59122,0.006 24.49453,3.20251 35.5,11.39258 h 0.002 l 0.002,0.002 c 0.88852,0.6567 1.5813,1.24044 2.01367,1.72461 0.43236,0.48416 0.56055,0.82745 0.56055,1.00586 0,0.17841 -0.0683,0.39043 -0.55078,0.77344 -0.48247,0.38302 -1.34268,0.84174 -2.59961,1.32422 -6.03136,2.30678 -17.46965,3.87998 -27.61328,4.84374 -10.14363,0.96376 -18.94284,1.34624 -20.27344,1.44141 h -0.008 l -0.004,0.002 c -1.10293,0.092 -1.76396,0.26262 -3.89453,0.4336 -0.003,2.3e-4 -0.004,-2.2e-4 -0.006,0 -0.6181,0.0275 -0.95426,0.0426 -1.33594,0.0605 0.0114,-5.46233 8.2e-4,-10.91818 0.0195,-16.38671 v -0.004 -0.002 c 0,-1.28344 -0.41279,-2.52251 -0.33203,-3.35547 0.0404,-0.4165 0.14525,-0.69092 0.42774,-0.96094 0.28227,-0.26982 0.81477,-0.55615 1.79101,-0.73242 4.66963,-0.84039 9.26483,-1.37535 13.77344,-1.52149 0.84548,-0.0274 1.68793,-0.0414 2.52734,-0.041 z"
     transform="translate(-18,129.5)"
     id="path841"
     inkscape:connector-curvature="0"
     sodipodi:nodetypes="sssssssssssssssccccccccccccccccccccccccccccccccccccccccccccccccccccccccccccccccccccccccccccsccccccccsscccscccccccsccscccccccccccscccccsccscccccscccscccccscsccccccccccccccccccccccccccccccccccccsccsccccccccsccccc" /></svg>